<svg id="svg10" xmlns="http://www.w3.org/2000/svg" xmlns:xlink="http://www.w3.org/1999/xlink" viewBox="0 0 1233.39 228.9"><defs><style>.cls-1{fill:url(#Gradient_bez_nazwy_3);}</style><linearGradient id="Gradient_bez_nazwy_3" y1="114.45" x2="1233.39" y2="114.45" gradientUnits="userSpaceOnUse"><stop offset="0" stop-color="#ae67fa"/><stop offset="1" stop-color="#f49867"/></linearGradient></defs><path class="cls-1" d="M106,0c10.5,0,20.2.8,29.1,3.2a64.18,64.18,0,0,1,22.7,8.9,37.42,37.42,0,0,1,14.6,17c3.2,7.3,4.9,16.2,4.9,25.9,0,11.3-2.4,21-8.1,28.3-4.9,7.3-12.9,13.8-22.7,18.6,13.8,4,24.3,11.3,30.7,21a66.8,66.8,0,0,1,4,64.7,52.75,52.75,0,0,1-17.8,20.2,82.4,82.4,0,0,1-25.9,11.3,121.4,121.4,0,0,1-29.1,4L0,223.3V0ZM99.5,90.6c8.9,0,16.2-2.4,21.8-6.5s8.1-11.3,8.1-20.2c0-4.9-.8-9.7-2.4-12.9a22.35,22.35,0,0,0-7.3-8.1,40.92,40.92,0,0,0-10.5-4,65.7,65.7,0,0,0-12.9-.8H49.4V90.7C49.4,90.6,99.5,90.6,99.5,90.6Zm2.4,95.5a72.61,72.61,0,0,0,13.8-1.6,27.28,27.28,0,0,0,11.3-4.9,30.41,30.41,0,0,0,8.1-8.9,38.84,38.84,0,0,0,3.2-14.6c0-11.3-3.2-19.4-9.7-25.1-6.5-4.9-15.4-7.3-25.9-7.3H49.4V186h52.5Zm156.2-.8c6.5,6.5,16.2,9.7,29.1,9.7a44,44,0,0,0,23.5-6.5c6.5-4.9,10.5-9.7,12.1-14.6h39.6c-6.5,19.4-16.2,33.2-29.1,42.1-12.9,8.1-28.3,12.9-46.9,12.9a94.17,94.17,0,0,1-34.8-6.5,64.39,64.39,0,0,1-25.9-17.8,64.94,64.94,0,0,1-16.2-26.7c-4-10.5-5.7-21.8-5.7-34.8,0-12.1,1.6-23.5,5.7-34a88.2,88.2,0,0,1,17-27.5,81.47,81.47,0,0,1,25.9-17.8,91.51,91.51,0,0,1,34-6.5c13.8,0,25.9,2.4,36.4,8.1s18.6,12.1,25.1,21.8a99,99,0,0,1,14.6,30.7,171.71,171.71,0,0,1,1.6,35.6H246.8C246.8,166.7,251.6,178.8,258.1,185.3Zm51-85c-5.7-5.7-14.6-8.9-25.1-8.9a39,39,0,0,0-17.8,4c-4.9,2.4-8.1,5.7-11.3,8.9a21.79,21.79,0,0,0-5.7,11.3c-.8,4-1.6,7.3-1.6,10.5h72.8C318.8,114.1,314.7,106,309.1,100.3ZM237.9,15.4h90.6V37.2H237.9ZM427.2,0V84.1h.8c5.7-9.7,12.9-16.2,21.8-20.2s17-6.5,25.9-6.5c12.1,0,21.8,1.6,29.1,4.9s13.8,8.1,17.8,13.8a55.61,55.61,0,0,1,8.9,21,140.72,140.72,0,0,1,2.4,27.5v99.5H489.4V132.7c0-13.8-2.4-23.5-6.5-29.9S471.7,93,461.2,93c-12.1,0-21,4-25.9,10.5-5.7,7.3-8.1,19.4-8.1,35.6v85H382.7V0ZM566.4,85.8c4.9-7.3,10.5-12.1,17.8-17a80.11,80.11,0,0,1,24.3-8.9,150.62,150.62,0,0,1,26.7-2.4c8.1,0,16.2.8,25.1,1.6A65.84,65.84,0,0,1,683,65.6c7.3,3.2,12.1,8.1,17,13.8,4,5.7,6.5,13.8,6.5,23.5v85a170.73,170.73,0,0,0,1.6,21c.8,6.5,3.2,12.1,5.7,15.4H668.5c-1.6-1.6-2.4-4.9-3.2-7.3s-.8-5.7-.8-8.1a62.84,62.84,0,0,1-25.1,15.4c-9.7,3.2-19.4,4-29.1,4a65,65,0,0,1-21.8-3.2c-6.5-1.6-12.1-4.9-17.8-8.9a44.86,44.86,0,0,1-12.1-15.4,58.89,58.89,0,0,1-4-21.8c0-8.9,1.6-17,4.9-22.7a53.62,53.62,0,0,1,12.1-14.6,60.5,60.5,0,0,1,17.8-8.1,150.44,150.44,0,0,1,20.2-4l19.4-2.4c6.5-.8,12.1-1.6,17-2.4,4.9-1.6,8.9-3.2,12.1-5.7s4-5.7,4-10.5-.8-8.9-2.4-11.3a23.66,23.66,0,0,0-6.5-6.5c-2.4-1.6-5.7-2.4-8.9-3.2s-7.3-.8-11.3-.8c-8.9,0-15.4,1.6-20.2,5.7s-8.1,10.5-8.9,18.6H559.4A45,45,0,0,1,566.4,85.8Zm88.2,63.1c-2.4.8-5.7,1.6-8.9,2.4s-6.5.8-10.5,1.6c-3.2.8-7.3.8-10.5,1.6l-9.7,2.4c-3.2.8-6.5,2.4-8.1,4-2.4,1.6-4,4-5.7,6.5-2.4,3.2-2.4,6.5-2.4,10.5s.8,7.3,2.4,9.7,3.2,4.9,5.7,6.5,5.7,2.4,8.9,3.2,6.5.8,10.5.8c8.9,0,15.4-1.6,20.2-4A31.82,31.82,0,0,0,657,183.6c2.4-4,4-8.1,4-12.1a46.78,46.78,0,0,0,.8-9.7v-17C659.4,146.4,657,148.1,654.6,148.9ZM773.5,61.5V84.2h.8C780,74.5,787.2,68,796.1,64s18.6-6.5,27.5-6.5c12.1,0,21.8,1.6,29.1,4.9a38.4,38.4,0,0,1,17.8,13.8,72.83,72.83,0,0,1,9.7,21,140.72,140.72,0,0,1,2.4,27.5v99.5H838.1V132.8c0-13.8-2.4-23.5-6.5-29.9s-11.3-10.5-22.7-10.5c-12.1,0-21,4.9-26.7,12.1s-8.1,19.4-8.1,35.6v85H729.6V61.5ZM982.3,90.6c-7.3,0-12.9,1.6-17.8,4.9a36.7,36.7,0,0,0-12.1,12.9c-3.2,4.9-4.9,10.5-6.5,17s-1.6,12.1-1.6,18.6a133.77,133.77,0,0,0,1.6,17.8c1.6,6.5,3.2,11.3,6.5,16.2s6.5,8.9,11.3,12.1,10.5,4.9,17.8,4.9c10.5,0,18.6-3.2,25.1-8.9,5.7-5.7,9.7-13.8,10.5-24.3H1060c-3.2,21.8-11.3,38-25.1,49.4s-31.6,17-53.4,17a85.81,85.81,0,0,1-33.2-6.5,71.68,71.68,0,0,1-25.9-17,80.89,80.89,0,0,1-17-25.9c-4-10.5-5.7-21-5.7-33.2,0-12.9,1.6-24.3,5.7-34.8s8.9-20.2,16.2-28.3,16.2-13.8,25.9-18.6a95.84,95.84,0,0,1,34.8-6.5,103.83,103.83,0,0,1,27.5,4,71.29,71.29,0,0,1,23.5,11.3,50,50,0,0,1,17,19.4c4,7.3,6.5,17,7.3,27.5h-43.7Q1011.35,90.65,982.3,90.6Zm144.8,94.7c6.5,6.5,17,9.7,29.1,9.7a44,44,0,0,0,23.5-6.5c6.5-4.9,10.5-9.7,12.1-14.6h38.8c-6.5,19.4-16.2,33.2-29.1,42.1-12.9,8.1-28.3,12.9-46.9,12.9a94.17,94.17,0,0,1-34.8-6.5,64.39,64.39,0,0,1-25.9-17.8,64.94,64.94,0,0,1-16.2-26.7c-4-10.5-5.7-21.8-5.7-34.8,0-12.1,1.6-23.5,5.7-34a86.39,86.39,0,0,1,17-27.5,81.47,81.47,0,0,1,25.9-17.8,94.78,94.78,0,0,1,34-6.5c13.8,0,25.9,2.4,35.6,8.1,10.5,5.7,18.6,12.1,25.1,21.8a99,99,0,0,1,14.6,30.7c3.2,11.3,4,23.5,3.2,36.4H1115.8c0,12.4,4.8,24.5,11.3,31Zm51.8-85c-5.7-5.7-14.6-8.9-25.1-8.9a39,39,0,0,0-17.8,4,31.93,31.93,0,0,0-11.3,8.9c-2.4,3.2-4.9,7.3-5.7,11.3s-1.6,7.3-1.6,10.5h72.8c-2.4-12-6.5-20.1-11.3-25.8Z" transform="translate(0 0)"/></svg>