<svg id="Warstwa_1" data-name="Warstwa 1" xmlns="http://www.w3.org/2000/svg" xmlns:xlink="http://www.w3.org/1999/xlink" viewBox="0 0 62.49 12.1"><defs><style>.cls-1{fill:url(#Gradient_bez_nazwy_6);}</style><linearGradient id="Gradient_bez_nazwy_6" y1="6.05" x2="62.49" y2="6.05" gradientUnits="userSpaceOnUse"><stop offset="0" stop-color="#ae67fa"/><stop offset="1" stop-color="#f49867"/></linearGradient></defs><path class="cls-1" d="M4.89,1.89c-.74,0-.95.33-.95,1.05V4.13h2L5.71,6.06H3.94v5.86H1.59V6.06H0V4.13H1.59V3c0-1.94.78-3,3-3A10.39,10.39,0,0,1,5.93.08V1.9ZM6.07,7.78C6.07,5.6,7.1,4,9.25,4a2.3,2.3,0,0,1,2.24,1.35V4.13h2.26v7.79H11.49V10.74a2.28,2.28,0,0,1-2.24,1.34c-2.15,0-3.18-1.64-3.18-3.81Zm2.35.52c0,1.16.43,1.93,1.52,1.93s1.46-.7,1.46-1.81V7.64c0-1.12-.49-1.82-1.46-1.82s-1.52.77-1.52,1.93ZM18.66,4a4.35,4.35,0,0,1,2.25.52l-.52,1.67a3.72,3.72,0,0,0-1.57-.36c-1.28,0-1.83.74-1.83,2v.45c0,1.26.55,2,1.83,2a3.88,3.88,0,0,0,1.57-.36l.52,1.67a4.35,4.35,0,0,1-2.25.52c-2.77,0-4-1.49-4-3.88V7.84C14.63,5.46,15.89,4,18.66,4Zm2.56,4.35V7.64C21.22,5.43,22.48,4,25.05,4c2.42,0,3.48,1.47,3.48,3.63V8.85h-5c0,1.06.52,1.53,1.82,1.53a6.6,6.6,0,0,0,2.51-.47l.43,1.61a7.55,7.55,0,0,1-3,.58C22.33,12.09,21.22,10.61,21.22,8.32Zm2.36-1h2.84v-.2c0-.85-.34-1.52-1.37-1.52s-1.47.67-1.47,1.71Zm13.68,1c0,2.17-1,3.81-3.2,3.81a2.42,2.42,0,0,1-2.33-1.34v1.18H29.51V.22L31.87,0v5.2A2.33,2.33,0,0,1,34.06,4c2.15,0,3.2,1.63,3.2,3.81ZM34.9,7.73c0-1.1-.42-1.91-1.55-1.91-1,0-1.49.68-1.49,1.8v.81c0,1.11.53,1.8,1.49,1.8,1.13,0,1.55-.82,1.55-1.91Zm3.15.49V7.83A3.55,3.55,0,0,1,41.92,4,3.56,3.56,0,0,1,45.8,7.83v.39a3.56,3.56,0,0,1-3.88,3.86A3.55,3.55,0,0,1,38.05,8.22Zm5.39-.56c0-1-.42-1.84-1.52-1.84s-1.52.81-1.52,1.84v.72c0,1,.42,1.85,1.52,1.85s1.52-.82,1.52-1.85Zm3.14.56V7.83A3.55,3.55,0,0,1,50.45,4a3.56,3.56,0,0,1,3.88,3.86v.39a3.56,3.56,0,0,1-3.88,3.86A3.55,3.55,0,0,1,46.58,8.22ZM52,7.66c0-1-.43-1.84-1.53-1.84s-1.52.81-1.52,1.84v.72c0,1,.43,1.85,1.52,1.85S52,9.41,52,8.38Zm5.59.18,2.32-3.71h2.5L60,8l2.54,3.94H60L57.57,8.1v3.82H55.21V.22L57.57,0Z" transform="translate(0 0)"/></svg>