<svg id="Warstwa_1" data-name="Warstwa 1" xmlns="http://www.w3.org/2000/svg" xmlns:xlink="http://www.w3.org/1999/xlink" viewBox="0 0 594.68 145.05"><defs><style>.cls-1{fill:url(#Gradient_bez_nazwy_5);}</style><linearGradient id="Gradient_bez_nazwy_5" y1="420.67" x2="594.68" y2="420.67" gradientUnits="userSpaceOnUse"><stop offset="0" stop-color="#ae67fa"/><stop offset="1" stop-color="#f49867"/></linearGradient></defs><path class="cls-1" d="M586.33,484h0a2.69,2.69,0,0,0,2.67-2.67.76.76,0,0,0,0-.15c0-2-1.2-3-3.68-3h-4v10.47h1.5v-4.56h1.85l0,.05,2.87,4.51h1.62L586.12,484ZM584.58,483h-1.75v-3.54h2.22c1.14,0,2.44.18,2.44,1.68,0,1.72-1.31,1.86-2.92,1.86M0,369.46H22.21v80.92H63.34v20.5H0Zm73.16,32.65H94.51v68.73H73.16ZM83.83,368a12.38,12.38,0,1,1-12.38,12.38A12.44,12.44,0,0,1,83.83,368h0m100,1.49h21.34v60.62l24.19-28h26.16l-28,31.82,27.42,37H228.06l-22.65-34h-.28v34H183.78Zm-77.44,32.68h20.49v9.39h.29a22.47,22.47,0,0,1,20.21-11.1c21.64,0,25.63,14.24,25.63,32.74v37.69H151.62V437.42c0-8-.15-18.23-11.12-18.23s-12.8,8.69-12.8,17.65v34H106.35Zm194.08,26.37v-.31a12.85,12.85,0,0,0-12.79-12.79h-.32a14.32,14.32,0,0,0-15.08,13.1Zm18.08,30.45a37.66,37.66,0,0,1-29.19,13.68c-21.34,0-38.43-14.25-38.43-36.31S268,400,289.31,400c19.95,0,32.46,14.23,32.46,36.3V443H272.23a16,16,0,0,0,16.09,13.38,18.22,18.22,0,0,0,15.23-8.4Zm47.75-40.21c-10.67,0-17.07,7.12-17.07,17.5s6.4,17.52,17.07,17.52,17.09-7.12,17.09-17.52-6.4-17.5-17.09-17.5M403,470.83H383.34v-9.11h-.29a26.87,26.87,0,0,1-21.22,10.82c-20.5,0-34-14.8-34-35.73,0-19.22,11.95-36.87,31.6-36.87,8.83,0,17.08,2.42,21.92,9.11h.28V369.44H403Zm144.07,0H525.72V437.45c0-8-.14-18.23-11.1-18.23s-12.81,8.68-12.81,17.65v34H480.46V402.14H501v9.39h.29a22.48,22.48,0,0,1,20.21-11.1c21.63,0,25.62,14.23,25.62,32.74Zm-90.68-78.13h0a12.38,12.38,0,1,1,12.39-12.38h0a12.44,12.44,0,0,1-12.39,12.38m10.67,78.13H445.69V402.14h21.36ZM557.7,348.16H435a10.56,10.56,0,0,0-10.63,10.38V481.78A10.57,10.57,0,0,0,435,492.18H557.7a10.59,10.59,0,0,0,10.67-10.4V358.53a10.58,10.58,0,0,0-10.67-10.38m27.07,125.4a9.82,9.82,0,1,0,.18,0h-.18m0,18.52h-.15a8.61,8.61,0,1,1,8.61-8.75v.14a8.47,8.47,0,0,1-8.24,8.61h-.22" transform="translate(0 -348.15)"/></svg>