<svg id="svg10" xmlns="http://www.w3.org/2000/svg" xmlns:xlink="http://www.w3.org/1999/xlink" viewBox="0 0 1234.99 229.2"><defs><style>.cls-1{fill:url(#Gradient_bez_nazwy_22);}</style><linearGradient id="Gradient_bez_nazwy_22" x1="-1.6" y1="114.51" x2="1233.39" y2="114.51" gradientTransform="matrix(1, 0, 0, -1, 0, 228)" gradientUnits="userSpaceOnUse"><stop offset="0" stop-color="#ae67fa"/><stop offset="1" stop-color="#f49867"/></linearGradient></defs><path class="cls-1" d="M104.54-1.11c10.51,0,20.23.8,29.14,3.2A64.44,64.44,0,0,1,156.41,11,37.44,37.44,0,0,1,171,28c3.2,7.31,4.9,16.22,4.9,25.93,0,11.32-2.4,21-8.11,28.34-4.9,7.31-12.91,13.82-22.73,18.62,13.82,4,24.33,11.32,30.74,21a66.88,66.88,0,0,1,4,64.78A52.86,52.86,0,0,1,162,207a82.33,82.33,0,0,1-25.93,11.31,121.48,121.48,0,0,1-29.14,4l-108.54.2V-1.11ZM98,89.61c8.91,0,16.22-2.41,21.83-6.51S128,71.78,128,62.87c0-4.9-.8-9.71-2.4-12.91a22.27,22.27,0,0,0-7.31-8.11,40.89,40.89,0,0,0-10.52-4A65.61,65.61,0,0,0,94.83,37h-47V89.71C47.87,89.61,98,89.61,98,89.61Zm2.4,95.62a72.92,72.92,0,0,0,13.82-1.6,27.27,27.27,0,0,0,11.32-4.91,30.55,30.55,0,0,0,8.11-8.91,38.93,38.93,0,0,0,3.2-14.62c0-11.31-3.2-19.42-9.71-25.13-6.51-4.91-15.42-7.31-25.93-7.31H47.87v62.38h52.56Zm156.41-.8c6.51,6.51,16.22,9.71,29.13,9.71a44.13,44.13,0,0,0,23.54-6.5c6.5-4.91,10.51-9.72,12.11-14.62h39.65c-6.51,19.42-16.22,33.24-29.14,42.15-12.91,8.11-28.33,12.92-47,12.92a94.4,94.4,0,0,1-34.84-6.51,64.39,64.39,0,0,1-25.93-17.82A65,65,0,0,1,208.17,177c-4-10.51-5.7-21.83-5.7-34.84,0-12.12,1.6-23.53,5.7-34.05a88.16,88.16,0,0,1,17-27.53,81.45,81.45,0,0,1,25.93-17.83,91.88,91.88,0,0,1,34-6.51c13.82,0,25.94,2.41,36.45,8.12s18.63,12.11,25.13,21.82a99.08,99.08,0,0,1,14.62,30.74,171.46,171.46,0,0,1,1.6,35.65H245.52C245.52,165.81,250.33,177.92,256.84,184.43ZM307.9,99.32c-5.7-5.71-14.62-8.91-25.13-8.91a39.15,39.15,0,0,0-17.82,4c-4.91,2.41-8.11,5.71-11.32,8.92a21.78,21.78,0,0,0-5.7,11.31c-.81,4-1.61,7.31-1.61,10.51h72.9C317.62,113.14,313.51,105,307.9,99.32Zm-71.29-85h90.72V36.14H236.61ZM426.16-1.11V83.1h.8c5.7-9.71,12.91-16.22,21.83-20.23s17-6.5,25.93-6.5c12.11,0,21.83,1.6,29.14,4.9s13.81,8.11,17.82,13.82a55.63,55.63,0,0,1,8.91,21,140.43,140.43,0,0,1,2.4,27.53v99.63H488.44V131.76c0-13.82-2.41-23.53-6.51-29.94S470.71,92,460.2,92c-12.12,0-21,4-25.93,10.51-5.71,7.31-8.11,19.43-8.11,35.65v85.11H381.6V-1.11ZM565.54,84.8c4.9-7.31,10.51-12.11,17.82-17a80.09,80.09,0,0,1,24.33-8.91,149.81,149.81,0,0,1,26.74-2.4c8.11,0,16.22.8,25.13,1.6a65.66,65.66,0,0,1,22.73,6.51c7.31,3.2,12.11,8.11,17,13.81,4,5.71,6.51,13.82,6.51,23.53V187a170,170,0,0,0,1.6,21c.8,6.51,3.2,12.12,5.71,15.42H667.77c-1.6-1.6-2.4-4.9-3.2-7.31s-.81-5.71-.81-8.11a62.88,62.88,0,0,1-25.13,15.42c-9.71,3.21-19.42,4-29.14,4a65.17,65.17,0,0,1-21.82-3.21c-6.51-1.6-12.12-4.9-17.83-8.91A44.87,44.87,0,0,1,557.73,200a58.83,58.83,0,0,1-4-21.83c0-8.91,1.6-17,4.91-22.73a53.94,53.94,0,0,1,12.11-14.62,60.81,60.81,0,0,1,17.83-8.11,151.24,151.24,0,0,1,20.22-4l19.43-2.4c6.51-.81,12.11-1.61,17-2.41,4.91-1.6,8.91-3.2,12.12-5.7s4-5.71,4-10.52-.8-8.91-2.4-11.31a23.73,23.73,0,0,0-6.51-6.51c-2.4-1.6-5.71-2.4-8.91-3.21s-7.31-.8-11.32-.8c-8.91,0-15.42,1.61-20.22,5.71s-8.11,10.51-8.91,18.62H558.53A44.94,44.94,0,0,1,565.54,84.8ZM653.85,148c-2.4.8-5.71,1.61-8.91,2.41s-6.51.8-10.51,1.6c-3.21.8-7.31.8-10.52,1.6L614.2,156c-3.2.81-6.51,2.41-8.11,4-2.4,1.6-4,4-5.71,6.51C598,169.71,598,173,598,177s.8,7.31,2.4,9.71,3.21,4.91,5.71,6.51,5.71,2.41,8.91,3.21,6.51.8,10.51.8c8.92,0,15.42-1.6,20.23-4a31.72,31.72,0,0,0,10.51-10.51c2.41-4,4-8.11,4-12.12a47.16,47.16,0,0,0,.8-9.71v-17a33.06,33.06,0,0,1-7.21,4.1ZM772.91,60.47V83.2h.8C779.41,73.49,786.62,67,795.53,63s18.63-6.5,27.54-6.5c12.12,0,21.83,1.6,29.14,4.9A38.48,38.48,0,0,1,870,75.19a72.62,72.62,0,0,1,9.71,21,140.44,140.44,0,0,1,2.41,27.53v99.63H837.59V131.86c0-13.82-2.4-23.53-6.51-29.94s-11.31-10.51-22.73-10.51c-12.11,0-21,4.91-26.73,12.12s-8.11,19.42-8.11,35.64v85.11H729V60.47ZM982,89.61c-7.31,0-12.92,1.6-17.83,4.9A36.75,36.75,0,0,0,952,107.43c-3.21,4.91-4.91,10.51-6.51,17s-1.6,12.12-1.6,18.63a133,133,0,0,0,1.6,17.82c1.6,6.51,3.2,11.32,6.51,16.22s6.51,8.91,11.31,12.12,10.52,4.9,17.83,4.9c10.51,0,18.62-3.2,25.13-8.91,5.7-5.71,9.71-13.82,10.51-24.33h43c-3.21,21.83-11.32,38-25.14,49.46s-31.64,17-53.46,17a86.15,86.15,0,0,1-33.25-6.51,71.91,71.91,0,0,1-25.93-17,81.08,81.08,0,0,1-17-25.94c-4-10.51-5.71-21-5.71-33.24,0-12.92,1.6-24.33,5.71-34.85s8.91-20.22,16.22-28.33,16.22-13.82,25.93-18.63A95.93,95.93,0,0,1,982,56.37a103.88,103.88,0,0,1,27.53,4A71.45,71.45,0,0,1,1033,71.68a50,50,0,0,1,17,19.43c4,7.31,6.51,17,7.31,27.54h-43.75Q1011.06,89.65,982,89.61Zm145,94.82c6.51,6.51,17,9.71,29.14,9.71a44,44,0,0,0,23.53-6.51c6.51-4.9,10.52-9.71,12.12-14.61h38.85c-6.51,19.42-16.22,33.24-29.14,42.15-12.92,8.11-28.34,12.92-47,12.92a94.45,94.45,0,0,1-34.85-6.51,64.52,64.52,0,0,1-25.93-17.82A65,65,0,0,1,1077.5,177c-4-10.51-5.71-21.83-5.71-34.84,0-12.12,1.6-23.53,5.71-34.05a86.49,86.49,0,0,1,17-27.53,81.6,81.6,0,0,1,25.94-17.83,95.09,95.09,0,0,1,34-6.51c13.82,0,25.93,2.41,35.65,8.12,10.51,5.7,18.62,12.11,25.13,21.82a99.3,99.3,0,0,1,14.62,30.74c3.2,11.32,4,23.53,3.2,36.45H1115.65c0,12.42,4.81,24.53,11.31,31Zm51.87-85.11c-5.71-5.71-14.62-8.91-25.13-8.91a39.12,39.12,0,0,0-17.82,4,32.07,32.07,0,0,0-11.32,8.92c-2.4,3.2-4.91,7.31-5.71,11.31s-1.6,7.31-1.6,10.51h72.9C1187.74,113.14,1183.64,105,1178.83,99.32Z" transform="translate(1.6 1.11)"/></svg>