<svg id="Warstwa_1" data-name="Warstwa 1" xmlns="http://www.w3.org/2000/svg" xmlns:xlink="http://www.w3.org/1999/xlink" viewBox="0 0 500.57 92.9"><defs><style>.cls-1{fill:url(#Gradient_bez_nazwy_2);}</style><linearGradient id="Gradient_bez_nazwy_2" x1="-0.57" y1="101.98" x2="500" y2="101.98" gradientTransform="matrix(1, 0, 0, -1, 0, 202)" gradientUnits="userSpaceOnUse"><stop offset="0" stop-color="#ae67fa"/><stop offset="1" stop-color="#f49867"/></linearGradient></defs><path class="cls-1" d="M42.45,53.58a45.55,45.55,0,0,1,11.81,1.29,26,26,0,0,1,9.22,3.62,15.13,15.13,0,0,1,5.92,6.9,26.34,26.34,0,0,1,2,10.51c0,4.58-1,8.52-3.29,11.48a23.38,23.38,0,0,1-9.21,7.55c5.6,1.62,9.86,4.59,12.46,8.52A27.1,27.1,0,0,1,73,129.71a21.31,21.31,0,0,1-7.22,8.2,33.67,33.67,0,0,1-10.51,4.59,49.58,49.58,0,0,1-11.81,1.62l-44,.08V53.58ZM39.82,90.34a14.68,14.68,0,0,0,8.84-2.63C50.94,86,52,83.12,52,79.51a12.45,12.45,0,0,0-1-5.24A9,9,0,0,0,48,71a16.53,16.53,0,0,0-4.26-1.63A26.17,26.17,0,0,0,38.52,69h-19V90.39S39.82,90.34,39.82,90.34Zm1,38.76a28.54,28.54,0,0,0,5.6-.65,11.08,11.08,0,0,0,4.59-2,12.46,12.46,0,0,0,3.28-3.62,15.49,15.49,0,0,0,1.3-5.92c0-4.59-1.3-7.88-3.93-10.19-2.64-2-6.25-3-10.52-3H19.48v25.28H40.79Zm63.39-.32c2.64,2.64,6.58,3.94,11.81,3.94a17.92,17.92,0,0,0,9.54-2.64c2.64-2,4.26-3.94,4.91-5.93h16.07c-2.63,7.88-6.57,13.48-11.81,17.09a34.9,34.9,0,0,1-19,5.23,38.29,38.29,0,0,1-14.12-2.63A26.26,26.26,0,0,1,91,136.61a26.35,26.35,0,0,1-6.57-10.83,39.06,39.06,0,0,1-2.31-14.13,37.72,37.72,0,0,1,2.31-13.8,35.82,35.82,0,0,1,6.9-11.16,32.93,32.93,0,0,1,10.51-7.22,37,37,0,0,1,13.8-2.64c5.6,0,10.51,1,14.77,3.29A26.91,26.91,0,0,1,140.63,89a40.08,40.08,0,0,1,5.92,12.45,69.19,69.19,0,0,1,.65,14.45H99.6C99.6,121.23,101.55,126.14,104.18,128.78Zm20.7-34.5c-2.31-2.31-5.92-3.61-10.19-3.61a15.86,15.86,0,0,0-7.22,1.62,16.88,16.88,0,0,0-4.59,3.62,8.87,8.87,0,0,0-2.31,4.58,23,23,0,0,0-.65,4.26h29.55C128.82,99.88,127.15,96.59,124.88,94.28ZM96,59.83h36.76v8.84H96Zm76.82-6.25V87.71h.33a19.21,19.21,0,0,1,8.84-8.2,25.23,25.23,0,0,1,10.52-2.64c4.91,0,8.84.65,11.81,2a17.8,17.8,0,0,1,7.22,5.6A22.51,22.51,0,0,1,215.14,93a57.25,57.25,0,0,1,1,11.16v40.39H198.06v-37.1c0-5.6-1-9.54-2.64-12.13s-4.55-4-8.81-4c-4.91,0-8.52,1.62-10.51,4.26-2.31,3-3.29,7.87-3.29,14.45v34.5H154.75V53.58Zm56.5,34.82a24.25,24.25,0,0,1,7.22-6.9,32.48,32.48,0,0,1,9.86-3.61,60.62,60.62,0,0,1,10.84-1c3.29,0,6.57.33,10.18.65a26.76,26.76,0,0,1,9.22,2.64,19.12,19.12,0,0,1,6.9,5.6,16.62,16.62,0,0,1,2.63,9.54v34.49a71.54,71.54,0,0,0,.65,8.53,13.57,13.57,0,0,0,2.32,6.25H270.74a8.3,8.3,0,0,1-1.3-3,11.43,11.43,0,0,1-.32-3.28,25.49,25.49,0,0,1-10.19,6.25,37,37,0,0,1-11.81,1.62,26.6,26.6,0,0,1-8.85-1.3,21.68,21.68,0,0,1-7.22-3.61,18.24,18.24,0,0,1-4.91-6.25,23.69,23.69,0,0,1-1.62-8.85,18.86,18.86,0,0,1,2-9.21,21.72,21.72,0,0,1,4.91-5.93,24.31,24.31,0,0,1,7.22-3.28,61.63,61.63,0,0,1,8.2-1.63l7.87-1c2.64-.33,4.91-.65,6.9-1a15.45,15.45,0,0,0,4.91-2.31c1.3-1,1.63-2.31,1.63-4.26a8.77,8.77,0,0,0-1-4.59,9.44,9.44,0,0,0-2.64-2.63,11.68,11.68,0,0,0-3.61-1.3,20,20,0,0,0-4.59-.33c-3.61,0-6.25.65-8.19,2.32a11.15,11.15,0,0,0-3.62,7.54H226.46A18.26,18.26,0,0,1,229.31,88.4ZM265.1,114c-1,.32-2.31.65-3.61,1s-2.64.32-4.26.65c-1.3.32-3,.32-4.26.65l-3.94,1a7.86,7.86,0,0,0-3.29,1.63,9.2,9.2,0,0,0-2.31,2.63c-1,1.3-1,2.64-1,4.27a7,7,0,0,0,1,3.93,8.49,8.49,0,0,0,2.31,2.64,12.56,12.56,0,0,0,3.61,1.3,17.79,17.79,0,0,0,4.27.32,18.15,18.15,0,0,0,8.19-1.62,12.88,12.88,0,0,0,4.27-4.26,9.83,9.83,0,0,0,1.62-4.91,19.29,19.29,0,0,0,.32-3.94v-6.9A13.38,13.38,0,0,1,265.1,114Zm48.26-35.48v9.22h.32a19.23,19.23,0,0,1,8.85-8.2,28.09,28.09,0,0,1,11.16-2.64c4.91,0,8.85.65,11.81,2a15.53,15.53,0,0,1,7.22,5.6A29.49,29.49,0,0,1,356.66,93a56.48,56.48,0,0,1,1,11.16v40.39H339.57v-37.1c0-5.6-1-9.54-2.63-12.13s-4.59-4.26-9.22-4.26A13.24,13.24,0,0,0,316.89,96c-2.32,2.92-3.29,7.87-3.29,14.44v34.5H295.54V78.53ZM398.1,90.34a12.33,12.33,0,0,0-7.23,2A14.94,14.94,0,0,0,386,97.57a21.8,21.8,0,0,0-2.64,6.9,29.68,29.68,0,0,0-.65,7.55,56.3,56.3,0,0,0,.65,7.22,19.13,19.13,0,0,0,2.64,6.58,16.72,16.72,0,0,0,4.59,4.91,12.53,12.53,0,0,0,7.22,2A14.76,14.76,0,0,0,408,129.1a15.21,15.21,0,0,0,4.26-9.86h17.41c-1.3,8.85-4.59,15.42-10.19,20s-12.82,6.9-21.67,6.9a34.78,34.78,0,0,1-13.47-2.64,29,29,0,0,1-10.51-6.9,32.61,32.61,0,0,1-6.9-10.51,36.44,36.44,0,0,1-2.32-13.47,38.12,38.12,0,0,1,2.32-14.13,36.41,36.41,0,0,1,6.57-11.48A34.05,34.05,0,0,1,384,79.51a39,39,0,0,1,14.13-2.64,42.58,42.58,0,0,1,11.16,1.62,29.14,29.14,0,0,1,9.54,4.59A20.37,20.37,0,0,1,425.69,91a28.2,28.2,0,0,1,3,11.16H410.92Q409.89,90.37,398.1,90.34Zm58.76,38.44c2.64,2.64,6.9,3.94,11.81,3.94a17.92,17.92,0,0,0,9.54-2.64c2.64-2,4.26-3.94,4.91-5.93h15.75c-2.64,7.88-6.58,13.48-11.81,17.09a35,35,0,0,1-19,5.23,38.32,38.32,0,0,1-14.12-2.63,26.16,26.16,0,0,1-10.51-7.23,26.37,26.37,0,0,1-6.58-10.83,39.06,39.06,0,0,1-2.31-14.13,37.72,37.72,0,0,1,2.31-13.8,35.23,35.23,0,0,1,6.9-11.16,33.08,33.08,0,0,1,10.52-7.22A38.48,38.48,0,0,1,468,76.83c5.6,0,10.52,1,14.45,3.29A26.91,26.91,0,0,1,492.66,89a40.08,40.08,0,0,1,5.92,12.45,44,44,0,0,1,1.3,14.78h-47.6c0,5,2,9.94,4.58,12.58Zm21-34.5C475.57,92,472,90.67,467.7,90.67a15.83,15.83,0,0,0-7.22,1.62,12.88,12.88,0,0,0-4.59,3.62,12.17,12.17,0,0,0-2.31,4.58,22.23,22.23,0,0,0-.65,4.26h29.54A22.73,22.73,0,0,0,477.89,94.28Z" transform="translate(0.57 -53.58)"/></svg>