<svg id="svg10" xmlns="http://www.w3.org/2000/svg" viewBox="0 0 1234.94 229.2"><defs><style>.cls-1{fill:#e76f51;}</style></defs><path class="cls-1" d="M106.14,0c10.51,0,20.23.8,29.14,3.2A64.35,64.35,0,0,1,158,12.11a37.43,37.43,0,0,1,14.59,17c3.2,7.31,4.9,16.22,4.9,25.93,0,11.32-2.4,21-8.11,28.34-4.9,7.31-12.91,13.82-22.73,18.62,13.82,4,24.33,11.32,30.74,21a66.88,66.88,0,0,1,4,64.78,52.91,52.91,0,0,1-17.8,20.33,82.43,82.43,0,0,1-25.93,11.31,121.53,121.53,0,0,1-29.14,4L0,223.62V0ZM99.6,90.72c8.91,0,16.22-2.41,21.83-6.51S129.6,72.89,129.6,64c0-4.9-.8-9.71-2.4-12.91A22.27,22.27,0,0,0,119.89,43a41,41,0,0,0-10.52-4,65.94,65.94,0,0,0-12.94-.85h-47V90.82C49.47,90.72,99.6,90.72,99.6,90.72Zm2.4,95.62a73,73,0,0,0,13.82-1.6,27.27,27.27,0,0,0,11.32-4.91,30.55,30.55,0,0,0,8.11-8.91,39,39,0,0,0,3.2-14.62c0-11.31-3.2-19.42-9.71-25.13-6.51-4.91-15.42-7.31-25.93-7.31H49.47v62.38H102Zm156.41-.8c6.51,6.51,16.22,9.71,29.13,9.71a44.13,44.13,0,0,0,23.54-6.5c6.5-4.91,10.51-9.72,12.11-14.62h39.65c-6.51,19.42-16.22,33.24-29.14,42.15-12.91,8.11-28.33,12.92-47,12.92a94.4,94.4,0,0,1-34.84-6.51,64.42,64.42,0,0,1-25.93-17.82,65,65,0,0,1-16.16-26.76c-4-10.51-5.7-21.83-5.7-34.84,0-12.12,1.6-23.53,5.7-34.05a88.07,88.07,0,0,1,17-27.53A81.45,81.45,0,0,1,252.7,63.86a92.07,92.07,0,0,1,34-6.51c13.82,0,25.94,2.41,36.45,8.12s18.63,12.11,25.13,21.82A99.08,99.08,0,0,1,362.9,118a171.46,171.46,0,0,1,1.6,35.65H247.12c0,13.24,4.81,25.35,11.32,31.86Zm51.09-85.11c-5.7-5.71-14.62-8.91-25.13-8.91a39.15,39.15,0,0,0-17.82,4c-4.91,2.41-8.11,5.71-11.32,8.92a21.78,21.78,0,0,0-5.7,11.31c-.81,4-1.61,7.31-1.61,10.51h72.9C319.22,114.25,315.11,106.11,309.5,100.43Zm-71.29-85h90.72V37.25H238.21ZM427.76,0V84.21h.8C434.26,74.5,441.47,68,450.39,64s17-6.5,25.93-6.5c12.11,0,21.83,1.6,29.14,4.9s13.81,8.11,17.82,13.82a55.66,55.66,0,0,1,8.91,21,140.5,140.5,0,0,1,2.4,27.53v99.63H490V132.87c0-13.82-2.41-23.53-6.51-29.94s-11.22-9.82-21.73-9.82c-12.12,0-21,4-25.93,10.51-5.71,7.31-8.11,19.43-8.11,35.65v85.11H383.2V0ZM567.14,85.91c4.9-7.31,10.51-12.11,17.82-17A80.09,80.09,0,0,1,609.29,60,149.81,149.81,0,0,1,636,57.6c8.11,0,16.22.8,25.13,1.6a65.66,65.66,0,0,1,22.73,6.51c7.31,3.2,12.11,8.11,17,13.81,4,5.71,6.51,13.82,6.51,23.53v85.06a169.56,169.56,0,0,0,1.6,21c.8,6.51,3.2,12.12,5.71,15.42H669.37c-1.6-1.6-2.4-4.9-3.2-7.31s-.81-5.71-.81-8.11a62.94,62.94,0,0,1-25.13,15.42c-9.71,3.21-19.42,4-29.14,4a65.17,65.17,0,0,1-21.82-3.21c-6.51-1.6-12.12-4.9-17.83-8.91a44.89,44.89,0,0,1-12.11-15.3,58.86,58.86,0,0,1-4-21.83c0-8.91,1.6-17,4.91-22.73a53.94,53.94,0,0,1,12.11-14.62,60.81,60.81,0,0,1,17.83-8.11,151.24,151.24,0,0,1,20.22-4l19.43-2.4c6.51-.81,12.11-1.61,17-2.41,4.91-1.6,8.91-3.2,12.12-5.7s4-5.71,4-10.52-.8-8.91-2.4-11.31A23.73,23.73,0,0,0,654,91c-2.4-1.6-5.71-2.4-8.91-3.21s-7.31-.8-11.32-.8c-8.91,0-15.42,1.61-20.22,5.71s-8.11,10.51-8.91,18.62H560.13A44.92,44.92,0,0,1,567.14,85.91Zm88.31,63.2c-2.4.8-5.71,1.61-8.91,2.41s-6.51.8-10.51,1.6c-3.21.8-7.31.8-10.52,1.6l-9.71,2.39c-3.2.81-6.51,2.41-8.11,4-2.4,1.6-4,4-5.71,6.51-2.38,3.2-2.38,6.49-2.38,10.49s.8,7.31,2.4,9.71,3.21,4.91,5.71,6.51,5.71,2.41,8.91,3.21,6.51.8,10.51.8c8.92,0,15.42-1.6,20.23-4a31.62,31.62,0,0,0,10.51-10.51c2.41-4,4-8.11,4-12.12a47.16,47.16,0,0,0,.8-9.71V145a33.14,33.14,0,0,1-7.21,4.1ZM774.51,61.58V84.31h.8c5.7-9.71,12.91-16.2,21.82-20.2s18.63-6.5,27.54-6.5c12.12,0,21.83,1.6,29.14,4.9A38.45,38.45,0,0,1,871.6,76.3a72.57,72.57,0,0,1,9.71,21,140.51,140.51,0,0,1,2.41,27.53v99.63H839.19V133c0-13.82-2.4-23.53-6.51-29.94S821.37,92.52,810,92.52c-12.11,0-21,4.91-26.73,12.12s-8.11,19.42-8.11,35.64v85.11H730.6V61.58ZM983.6,90.72c-7.31,0-12.92,1.6-17.83,4.9a36.75,36.75,0,0,0-12.17,12.92c-3.21,4.91-4.91,10.51-6.51,17s-1.6,12.12-1.6,18.63a133,133,0,0,0,1.6,17.82c1.6,6.51,3.2,11.32,6.51,16.22s6.51,8.91,11.31,12.12,10.52,4.9,17.83,4.9c10.51,0,18.62-3.2,25.13-8.91,5.7-5.71,9.71-13.82,10.51-24.33h43c-3.21,21.83-11.32,38-25.14,49.46s-31.64,17-53.46,17a86.19,86.19,0,0,1-33.25-6.51,71.86,71.86,0,0,1-25.93-17,81,81,0,0,1-17-25.94c-4-10.51-5.71-21-5.71-33.24,0-12.92,1.6-24.33,5.71-34.85s8.91-20.22,16.22-28.33S939,68.76,948.75,64a95.9,95.9,0,0,1,34.85-6.47,103.88,103.88,0,0,1,27.53,4,71.35,71.35,0,0,1,23.47,11.31,50.06,50.06,0,0,1,17,19.43c4,7.31,6.51,17,7.31,27.54h-43.75Q1012.66,90.77,983.6,90.72Zm145,94.82c6.51,6.51,17,9.71,29.14,9.71a44,44,0,0,0,23.53-6.51c6.51-4.9,10.52-9.71,12.12-14.61h38.85c-6.51,19.42-16.22,33.24-29.14,42.15-12.92,8.11-28.34,12.92-47,12.92a94.45,94.45,0,0,1-34.85-6.51,64.52,64.52,0,0,1-25.93-17.82,65,65,0,0,1-16.22-26.76c-4-10.51-5.71-21.83-5.71-34.84,0-12.12,1.6-23.53,5.71-34.05a86.47,86.47,0,0,1,17-27.53A81.6,81.6,0,0,1,1122,63.86a95.09,95.09,0,0,1,34-6.51c13.82,0,25.93,2.41,35.65,8.12,10.51,5.7,18.62,12.11,25.13,21.82A99.3,99.3,0,0,1,1231.44,118c3.2,11.32,4,23.53,3.2,36.45H1117.25c0,12.42,4.81,24.53,11.31,31Zm51.87-85.11c-5.71-5.71-14.62-8.91-25.13-8.91a39.15,39.15,0,0,0-17.82,4,32.19,32.19,0,0,0-11.32,8.92c-2.4,3.2-4.91,7.31-5.71,11.31s-1.6,7.31-1.6,10.51h72.9c-2.45-12-6.55-20.15-11.36-25.83Z" transform="translate(0.01)"/></svg>