<svg id="svg10" xmlns="http://www.w3.org/2000/svg" viewBox="0 0 1234.76 239"><defs><style>.cls-1{fill:#e76f51;}</style></defs><path class="cls-1" d="M96.61,37.43c-14.54,0-18.74,6.45-18.74,20.67V81.69h38.78l-3.89,38.12H77.89V235.48H31.39V119.81H0V81.69H31.39V58.75C31.39,20.3,46.85,0,90.1,0a217.63,217.63,0,0,1,27.12,1.61V37.48Zm23.26,116.3c0-43,20.35-75.32,63-75.32,23.26,0,37.47,12,44.26,26.81V81.69h44.58V235.48H227.13V212.22c-6.46,14.86-21,26.49-44.26,26.49-42.65,0-63-32.31-63-75.32Zm46.52,10.35c0,22.93,8.39,38.12,30,38.12,19.07,0,28.76-13.89,28.76-35.86V150.9c0-22-9.69-35.85-28.76-35.85-21.65,0-30,15.18-30,38.11ZM368.64,78.45c18.08,0,35.2,3.89,44.58,10.34l-10.34,33a73.27,73.27,0,0,0-31-7.11c-25.2,0-36.15,14.54-36.15,39.42v9c0,24.89,11,39.43,36.15,39.43a73.27,73.27,0,0,0,31-7.11l10.34,32.94c-9.38,6.47-26.49,10.35-44.58,10.35-54.61,0-79.48-29.4-79.48-76.57V155C289.16,107.86,314,78.45,368.64,78.45Zm50.71,86V150.9c0-43.61,24.87-72.31,75.61-72.31,47.81,0,68.81,29.07,68.81,71.72v24.56H465.85c1,21,10.35,30.37,36.16,30.37,17.46,0,35.87-3.56,49.44-9.37L560,227.73C547.68,234.21,522.48,239,500.2,239c-58.89,0-80.81-29.37-80.81-74.56Zm46.52-20h56.22v-3.87c0-16.8-6.78-30.13-27.12-30.13-21,0-29.1,13.27-29.1,33.94Zm270.35,19c0,43-20.67,75.32-63.27,75.32-23.26,0-39.41-11.63-45.87-26.5v23.25H583.15V4.52L629.67.3V103c6.78-13.55,21.65-24.55,43.29-24.55,42.65,0,63.28,32.31,63.28,75.32ZM689.7,152.78c0-21.65-8.39-37.8-30.69-37.8-19.07,0-29.4,13.56-29.4,35.54v16.15c0,22,10.33,35.54,29.4,35.54,22.3,0,30.69-16.15,30.69-37.8Zm62.08,9.69v-7.75c0-44.27,25.21-76.26,76.58-76.26s76.59,32,76.59,76.26v7.75c0,44.26-25.2,76.25-76.58,76.25s-76.59-32-76.59-76.26Zm106.63-11c0-20.35-8.4-36.5-30.13-36.5s-30,16.15-30,36.5v14.22c0,20.36,8.41,36.51,30,36.51s30.11-16.18,30.11-36.51Zm62,11v-7.75c0-44.27,25.2-76.26,76.58-76.26s76.57,32,76.57,76.26v7.75c0,44.26-25.2,76.25-76.57,76.25s-76.6-32-76.6-76.26Zm106.63-11c0-20.35-8.41-36.5-30-36.5s-30,16.15-30,36.5v14.22c0,20.36,8.39,36.51,30,36.51s30-16.15,30-36.51Zm110.5,3.55,45.85-73.33h49.43l-48.14,75.93,50.08,77.86h-49.37l-47.81-75.33v75.33H1091V4.48L1137.58.26Z" transform="translate(0 -0.02)"/></svg>