<svg id="svg10" xmlns="http://www.w3.org/2000/svg" xmlns:xlink="http://www.w3.org/1999/xlink" viewBox="0 0 1234.78 239.05"><defs><style>.cls-1{fill:url(#Gradient_bez_nazwy_21);}</style><linearGradient id="Gradient_bez_nazwy_21" x1="-1.39" y1="113.5" x2="1233.39" y2="113.5" gradientUnits="userSpaceOnUse"><stop offset="0" stop-color="#af68f8"/><stop offset="1" stop-color="#f39769"/></linearGradient></defs><path class="cls-1" d="M95.22,31.41c-14.54,0-18.74,6.45-18.74,20.67V75.67h38.78l-3.89,38.12H76.5V229.46H30V113.79H-1.39V75.67H30V52.73C30,14.28,45.46-6,88.71-6a217.52,217.52,0,0,1,27.12,1.61V31.46Zm23.26,116.3c0-43,20.35-75.32,63-75.32,23.26,0,37.47,12,44.26,26.81V75.67h44.58V229.46H225.74V206.2c-6.46,14.86-21,26.49-44.26,26.49-42.65,0-63-32.31-63-75.32ZM165,158.06c0,22.93,8.39,38.12,30,38.12,19.07,0,28.76-13.89,28.76-35.86V144.88c0-22-9.69-35.85-28.76-35.85-21.65,0-30,15.18-30,38.11ZM367.25,72.43c18.08,0,35.2,3.89,44.58,10.34l-10.34,33a73.17,73.17,0,0,0-31-7.11c-25.2,0-36.15,14.54-36.15,39.42v9c0,24.89,11,39.43,36.15,39.43a73.32,73.32,0,0,0,31-7.11l10.34,32.94c-9.38,6.47-26.49,10.35-44.58,10.35-54.61,0-79.48-29.4-79.48-76.57V149C287.77,101.84,312.64,72.43,367.25,72.43Zm50.71,86V144.88c0-43.61,24.87-72.31,75.61-72.31,47.81,0,68.81,29.07,68.81,71.72v24.56H464.46c1,21,10.35,30.37,36.16,30.37,17.46,0,35.87-3.56,49.44-9.37l8.51,31.86C546.29,228.19,521.09,233,498.81,233,439.92,233,418,203.63,418,158.44Zm46.52-20H520.7v-3.87c0-16.8-6.78-30.13-27.12-30.13-21,0-29.1,13.27-29.1,33.94Zm270.35,19c0,43-20.67,75.32-63.27,75.32-23.26,0-39.41-11.63-45.87-26.5V229.5H581.76v-231l46.52-4.22V97c6.78-13.55,21.65-24.55,43.29-24.55,42.65,0,63.28,32.31,63.28,75.32Zm-46.52-10.67c0-21.65-8.39-37.8-30.69-37.8-19.07,0-29.4,13.56-29.4,35.54v16.15c0,22,10.33,35.54,29.4,35.54,22.3,0,30.69-16.15,30.69-37.8Zm62.08,9.69v-7.75c0-44.27,25.21-76.26,76.58-76.26s76.59,32,76.59,76.26v7.75c0,44.26-25.2,76.25-76.58,76.25S750.39,200.7,750.39,156.44Zm106.63-11c0-20.35-8.4-36.5-30.13-36.5s-30,16.15-30,36.5v14.22c0,20.36,8.41,36.51,30,36.51S857,180,857,159.67Zm62,11v-7.75c0-44.27,25.2-76.26,76.58-76.26s76.57,32,76.57,76.26v7.75c0,44.26-25.2,76.25-76.57,76.25S919,200.7,919,156.44Zm106.63-11c0-20.35-8.41-36.5-30.05-36.5s-30,16.15-30,36.5v14.22c0,20.36,8.39,36.51,30,36.51s30.05-16.15,30.05-36.51ZM1136.15,149,1182,75.67h49.43l-48.14,75.93,50.08,77.86H1184l-47.81-75.33v75.33h-46.54v-231l46.54-4.22Z" transform="translate(1.39 6.02)"/></svg>