<svg id="Warstwa_1" data-name="Warstwa 1" xmlns="http://www.w3.org/2000/svg" xmlns:xlink="http://www.w3.org/1999/xlink" viewBox="0 0 856.58 588.7"><defs><style>.cls-1{fill:#14152c;opacity:0.6;}.cls-1,.cls-21,.cls-23,.cls-39{isolation:isolate;}.cls-2{fill:url(#Gradient_bez_nazwy_44);}.cls-3{fill:url(#Gradient_bez_nazwy_44-2);}.cls-4{fill:url(#Gradient_bez_nazwy_44-3);}.cls-5{fill:url(#Gradient_bez_nazwy_44-4);}.cls-6{fill:url(#Gradient_bez_nazwy_44-5);}.cls-7{fill:url(#Gradient_bez_nazwy_44-6);}.cls-8{fill:url(#Gradient_bez_nazwy_44-7);}.cls-9{fill:url(#Gradient_bez_nazwy_44-8);}.cls-10{fill:url(#Gradient_bez_nazwy_44-9);}.cls-11{fill:url(#Gradient_bez_nazwy_44-10);}.cls-12{fill:url(#Gradient_bez_nazwy_44-11);}.cls-13{fill:url(#Gradient_bez_nazwy_38);}.cls-14{fill:url(#Gradient_bez_nazwy_44-12);}.cls-15{fill:url(#Gradient_bez_nazwy_44-13);}.cls-16{fill:url(#Gradient_bez_nazwy_44-14);}.cls-17,.cls-21{opacity:0.4;}.cls-18,.cls-21,.cls-23{fill:#1a1a38;}.cls-19{fill:url(#Gradient_bez_nazwy_44-15);}.cls-20{fill:url(#Gradient_bez_nazwy_16);}.cls-22{fill:url(#Gradient_bez_nazwy_44-16);}.cls-23,.cls-25,.cls-39{opacity:0.5;}.cls-24{fill:url(#Gradient_bez_nazwy_17);}.cls-26{fill:#003566;}.cls-27,.cls-39{fill:#fff;}.cls-28{fill:#e8975b;}.cls-29{fill:#e64491;}.cls-30{fill:url(#Gradient_bez_nazwy_44-17);}.cls-31{fill:url(#Gradient_bez_nazwy_44-18);}.cls-32{fill:url(#Gradient_bez_nazwy_20);}.cls-33{fill:url(#Gradient_bez_nazwy_44-19);}.cls-34{fill:url(#Gradient_bez_nazwy_44-20);}.cls-35{fill:url(#Gradient_bez_nazwy_44-21);}.cls-36{fill:url(#Gradient_bez_nazwy_44-22);}.cls-37{fill:#272d66;}.cls-38{fill:url(#Gradient_bez_nazwy_24);}</style><linearGradient id="Gradient_bez_nazwy_44" x1="887.75" y1="675.14" x2="942.36" y2="675.14" gradientTransform="matrix(1, 0, 0, -1, -137.08, 1125.98)" gradientUnits="userSpaceOnUse"><stop offset="0" stop-color="#457b9d"/><stop offset="1" stop-color="#1d3557"/></linearGradient><linearGradient id="Gradient_bez_nazwy_44-2" x1="691.43" y1="576.46" x2="824.66" y2="576.46" xlink:href="#Gradient_bez_nazwy_44"/><linearGradient id="Gradient_bez_nazwy_44-3" x1="447.63" y1="976.18" x2="580.81" y2="976.18" xlink:href="#Gradient_bez_nazwy_44"/><linearGradient id="Gradient_bez_nazwy_44-4" x1="813.07" y1="749.9" x2="904.76" y2="749.9" xlink:href="#Gradient_bez_nazwy_44"/><linearGradient id="Gradient_bez_nazwy_44-5" x1="902.01" y1="825.28" x2="993.68" y2="825.28" xlink:href="#Gradient_bez_nazwy_44"/><linearGradient id="Gradient_bez_nazwy_44-6" x1="644" y1="980.54" x2="884.74" y2="980.54" xlink:href="#Gradient_bez_nazwy_44"/><linearGradient id="Gradient_bez_nazwy_44-7" x1="237.03" y1="891.96" x2="322.5" y2="891.96" xlink:href="#Gradient_bez_nazwy_44"/><linearGradient id="Gradient_bez_nazwy_44-8" x1="137.1" y1="799.79" x2="279.78" y2="799.79" xlink:href="#Gradient_bez_nazwy_44"/><linearGradient id="Gradient_bez_nazwy_44-9" x1="208.43" y1="719.19" x2="300.1" y2="719.19" xlink:href="#Gradient_bez_nazwy_44"/><linearGradient id="Gradient_bez_nazwy_44-10" x1="315.24" y1="725.05" x2="804.53" y2="725.05" xlink:href="#Gradient_bez_nazwy_44"/><linearGradient id="Gradient_bez_nazwy_44-11" x1="322.68" y1="870.31" x2="451.17" y2="870.31" xlink:href="#Gradient_bez_nazwy_44"/><linearGradient id="Gradient_bez_nazwy_38" x1="525.76" y1="912.26" x2="835.61" y2="912.26" gradientTransform="matrix(1, 0, 0, -1, -137.08, 1125.98)" gradientUnits="userSpaceOnUse"><stop offset="0" stop-color="#003566"/><stop offset="1" stop-color="#1d1d1b"/></linearGradient><linearGradient id="Gradient_bez_nazwy_44-12" x1="352.6" y1="759.45" x2="768.88" y2="759.45" xlink:href="#Gradient_bez_nazwy_44"/><linearGradient id="Gradient_bez_nazwy_44-13" x1="352.51" y1="766.72" x2="768.94" y2="766.72" xlink:href="#Gradient_bez_nazwy_44"/><linearGradient id="Gradient_bez_nazwy_44-14" x1="215.5" y1="406.77" x2="631.74" y2="406.77" gradientTransform="matrix(1, 0, 0, 1, 0, 0)" xlink:href="#Gradient_bez_nazwy_44"/><linearGradient id="Gradient_bez_nazwy_44-15" x1="446.49" y1="855.13" x2="756.29" y2="855.13" gradientTransform="translate(-61.89 -640.47)" xlink:href="#Gradient_bez_nazwy_44"/><linearGradient id="Gradient_bez_nazwy_16" x1="526.86" y1="911.28" x2="826.31" y2="911.28" gradientTransform="matrix(1, 0, 0, -1, -137.08, 1125.98)" gradientUnits="userSpaceOnUse"><stop offset="0" stop-color="#3b3c90"/><stop offset="1" stop-color="#4c4797"/></linearGradient><linearGradient id="Gradient_bez_nazwy_44-16" x1="389.78" y1="214.7" x2="689.23" y2="214.7" gradientTransform="matrix(1, 0, 0, 1, 0, 0)" xlink:href="#Gradient_bez_nazwy_44"/><radialGradient id="Gradient_bez_nazwy_17" cx="349.3" cy="1111.26" r="582.24" gradientTransform="translate(-61.89 -640.47)" gradientUnits="userSpaceOnUse"><stop offset="0" stop-color="#e39a65"/><stop offset="0.47" stop-color="#6f4a98"/><stop offset="0.59" stop-color="#5c4797"/><stop offset="0.73" stop-color="#4c4797"/><stop offset="1" stop-color="#3b3c90"/></radialGradient><linearGradient id="Gradient_bez_nazwy_44-17" x1="204.55" y1="182.69" x2="298.29" y2="182.69" gradientTransform="matrix(1, 0, 0, 1, 0, 0)" xlink:href="#Gradient_bez_nazwy_44"/><linearGradient id="Gradient_bez_nazwy_44-18" x1="201.95" y1="116.62" x2="301.07" y2="116.62" gradientTransform="matrix(1, 0, 0, 1, 0, 0)" xlink:href="#Gradient_bez_nazwy_44"/><linearGradient id="Gradient_bez_nazwy_20" x1="273.04" y1="1052.02" x2="353.68" y2="1052.02" gradientTransform="matrix(1, 0, 0, -1, -61.91, 1163.53)" gradientUnits="userSpaceOnUse"><stop offset="0" stop-color="#424898"/><stop offset="1" stop-color="#6f4a98"/></linearGradient><linearGradient id="Gradient_bez_nazwy_44-19" x1="209.22" y1="111.51" x2="289.86" y2="111.51" gradientTransform="matrix(1, 0, 0, 1, 0, 0)" xlink:href="#Gradient_bez_nazwy_44"/><linearGradient id="Gradient_bez_nazwy_44-20" x1="211.1" y1="100.92" x2="291.82" y2="100.92" gradientTransform="matrix(1, 0, 0, 1, 0, 0)" xlink:href="#Gradient_bez_nazwy_44"/><linearGradient id="Gradient_bez_nazwy_44-21" x1="202.6" y1="111.51" x2="300.32" y2="111.51" gradientTransform="matrix(1, 0, 0, 1, 0, 0)" xlink:href="#Gradient_bez_nazwy_44"/><linearGradient id="Gradient_bez_nazwy_44-22" x1="211.27" y1="98.58" x2="291.76" y2="98.58" gradientTransform="matrix(1, 0, 0, 1, 0, 0)" xlink:href="#Gradient_bez_nazwy_44"/><linearGradient id="Gradient_bez_nazwy_24" x1="382.16" y1="992.21" x2="396.23" y2="992.21" gradientTransform="matrix(1, 0, 0, -1, -137.08, 1125.98)" gradientUnits="userSpaceOnUse"><stop offset="0" stop-color="#262857"/><stop offset="0.19" stop-color="#262859"/><stop offset="0.28" stop-color="#282a5f"/><stop offset="0.36" stop-color="#2c2a6b"/><stop offset="0.42" stop-color="#30277a"/><stop offset="0.48" stop-color="#3d3189"/><stop offset="0.54" stop-color="#473c90"/><stop offset="0.58" stop-color="#4f4395"/><stop offset="0.61" stop-color="#524697"/><stop offset="0.62" stop-color="#564596"/><stop offset="0.68" stop-color="#7d4896"/><stop offset="0.75" stop-color="#b85e9e"/><stop offset="0.81" stop-color="#cc7680"/><stop offset="0.88" stop-color="#dd896d"/><stop offset="0.94" stop-color="#e5935f"/><stop offset="1" stop-color="#e8975b"/></linearGradient></defs><path class="cls-1" d="M459.56,518.43,217.81,378.85c-3.53-2-3.08-5.57,1-7.93L374,281.34c4.07-2.35,10.21-2.6,13.75-.57L629.48,420.35c3.52,2,3.08,5.59-1,7.93L473.33,517.86C469.23,520.21,463.11,520.53,459.56,518.43Z" transform="translate(-0.02)"/><path class="cls-2" d="M778,466.93a11.79,11.79,0,0,1-5.83-1.57L752.53,454a3.62,3.62,0,0,1-1.41-4.91h0V449a3.7,3.7,0,0,1,1.36-1.36l19.63-11.33a11.74,11.74,0,0,1,11.72,0l19.58,11.28a3.65,3.65,0,0,1,1.39,5l0,0h0a3.6,3.6,0,0,1-1.36,1.35l-19.6,11.36A11.75,11.75,0,0,1,778,466.93Zm0-29a8.43,8.43,0,0,0-4.27,1.14l-19.61,11.34a.51.51,0,0,0-.26.47.51.51,0,0,0,.26.45l19.64,11.4h0a8.59,8.59,0,0,0,8.55,0L802,451.4a.51.51,0,0,0,.26-.45.51.51,0,0,0-.26-.47l-19.64-11.34a8.48,8.48,0,0,0-4.31-1.2Z" transform="translate(-0.02)"/><path class="cls-3" d="M620.93,588.7a28.6,28.6,0,0,1-14.21-3.84l-47.9-27.65a8.86,8.86,0,0,1,0-15.39l47.9-27.65a28.61,28.61,0,0,1,28.58,0l47.81,27.53a8.86,8.86,0,0,1,0,15.39l-47.9,27.65A28.71,28.71,0,0,1,620.93,588.7Zm0-70.73a20.68,20.68,0,0,0-10.41,2.78l-47.9,27.64a1.27,1.27,0,0,0-.66,1.15,1.24,1.24,0,0,0,.66,1.1l47.9,27.81h0a20.89,20.89,0,0,0,20.86,0l47.9-27.65a1.28,1.28,0,0,0,.66-1.1,1.27,1.27,0,0,0-.66-1.14l-47.9-27.65A20.67,20.67,0,0,0,620.93,518Z" transform="translate(-0.02)"/><path class="cls-4" d="M377.11,189a28.6,28.6,0,0,1-14.21-3.84L315,157.46a8.86,8.86,0,0,1,0-15.39l47.9-27.65a28.61,28.61,0,0,1,28.58,0L439.26,142a8.86,8.86,0,0,1,0,15.39L391.36,185A28.61,28.61,0,0,1,377.11,189Zm0-70.73A20.8,20.8,0,0,0,366.69,121l-47.9,27.64a1.29,1.29,0,0,0-.65,1.15,1.25,1.25,0,0,0,.65,1.1l47.9,27.81h0a20.91,20.91,0,0,0,20.87,0l47.9-27.65a1.25,1.25,0,0,0,.65-1.1,1.23,1.23,0,0,0-.65-1.14l-47.9-27.65a20.7,20.7,0,0,0-10.45-2.94Z" transform="translate(-0.02)"/><path class="cls-5" d="M721.81,402.53a18.86,18.86,0,0,1-9.47-2.52l-33.81-19.48a5.16,5.16,0,0,1-1.86-7,5.08,5.08,0,0,1,1.86-1.85l33.81-19.52a19,19,0,0,1,18.93,0l33.84,19.5a5.13,5.13,0,0,1,1.89,7,5.05,5.05,0,0,1-1.89,1.92L731.27,400A18.81,18.81,0,0,1,721.81,402.53Zm-7.91-5.22a15.88,15.88,0,0,0,15.81,0l33.81-19.51a2,2,0,0,0,1-1.68,1.94,1.94,0,0,0-1-1.67l-33.81-19.52a15.88,15.88,0,0,0-15.81,0l-33.79,19.54a1.9,1.9,0,0,0-.78,2.57,2,2,0,0,0,.78.78Z" transform="translate(-0.02)"/><path class="cls-6" d="M810.75,327.17a18.74,18.74,0,0,1-9.47-2.53l-33.81-19.51a5.14,5.14,0,0,1-1.85-7h0a5.08,5.08,0,0,1,1.85-1.86l33.81-19.51a19,19,0,0,1,18.93,0L854,296.22a5.14,5.14,0,0,1,0,8.91l-33.81,19.51A18.7,18.7,0,0,1,810.75,327.17ZM802.84,322a15.88,15.88,0,0,0,15.81,0l33.82-19.52a2,2,0,0,0,1-1.67,1.92,1.92,0,0,0-1-1.67l-33.82-19.56a15.88,15.88,0,0,0-15.81,0L769,299.07a1.89,1.89,0,0,0,0,3.34Z" transform="translate(-0.02)"/><path class="cls-7" d="M627.31,215a49.73,49.73,0,0,1-24.88-6.64l-88.79-51.25a13.54,13.54,0,0,1,0-23.39l88.79-51.21a49.9,49.9,0,0,1,49.68,0l88.79,51.25a13.5,13.5,0,0,1,0,23.39l-88.79,51.21A49.62,49.62,0,0,1,627.31,215Zm-20.8-13.72a41.69,41.69,0,0,0,41.54,0L736.84,150a5.14,5.14,0,0,0,2.64-4.4,5.07,5.07,0,0,0-2.64-4.39L648,90a41.74,41.74,0,0,0-41.54,0l-88.79,51.3a5.18,5.18,0,0,0-2.63,4.39,5.25,5.25,0,0,0,2.63,4.4Z" transform="translate(-0.02)"/><path class="cls-8" d="M142.68,258.71a17.67,17.67,0,0,1-8.83-2.36l-31.51-18.19a4.8,4.8,0,0,1,0-8.3l31.51-18.19a17.76,17.76,0,0,1,17.65,0L183,229.86a4.79,4.79,0,0,1,0,8.3l-31.51,18.19A17.64,17.64,0,0,1,142.68,258.71Zm-7.38-4.87a14.82,14.82,0,0,0,14.75,0l31.51-18.19a1.76,1.76,0,0,0,.73-2.38v0a1.67,1.67,0,0,0-.72-.72L150,214.32a14.82,14.82,0,0,0-14.75,0l-31.51,18.21a1.83,1.83,0,0,0-.93,1.56,1.86,1.86,0,0,0,.93,1.56Z" transform="translate(-0.02)"/><path class="cls-9" d="M71.35,367.42a29.43,29.43,0,0,1-14.74-3.89L4,333.12a8,8,0,0,1,0-13.86l52.61-30.37a29.62,29.62,0,0,1,29.46,0l52.61,30.37a8,8,0,0,1,0,13.86L86.11,363.53A29.38,29.38,0,0,1,71.35,367.42ZM59,359.29a24.69,24.69,0,0,0,24.61,0l52.62-30.36a3,3,0,0,0,0-5.21l-52.62-30.4a24.74,24.74,0,0,0-24.61,0l-52.6,30.4a3.06,3.06,0,0,0-1.56,2.6,3.11,3.11,0,0,0,1.56,2.61Z" transform="translate(-0.02)"/><path class="cls-10" d="M117.18,433.29a19.14,19.14,0,0,1-9.46-2.53L73.91,411.23a5.14,5.14,0,0,1,0-8.89l33.81-19.52a18.94,18.94,0,0,1,18.93,0l33.81,19.52a5.14,5.14,0,0,1,0,8.89l-33.81,19.53A19.08,19.08,0,0,1,117.18,433.29Zm0-49.88a15.76,15.76,0,0,0-7.9,2.11L75.47,405a2,2,0,0,0-1,1.76,1.94,1.94,0,0,0,1,1.67L109.28,428h0a15.8,15.8,0,0,0,15.82,0l33.81-19.52a2,2,0,0,0,.69-2.74,2,2,0,0,0-.69-.69l-33.8-19.5a15.74,15.74,0,0,0-7.92-2.11Z" transform="translate(-0.02)"/><path class="cls-11" d="M465.11,543.64a15.56,15.56,0,0,1-7.62-1.79h0L181.59,382.53a6.15,6.15,0,0,1-3.43-5.19c0-2.42,1.67-4.78,4.62-6.47L370.85,260.7c5.17-3,12.73-3.35,17.25-.67L664,419.21a6.21,6.21,0,0,1,3.5,5.29c0,2.41-1.68,4.77-4.62,6.48L474.74,541.2A19.75,19.75,0,0,1,465.11,543.64ZM380.47,261.3a16.78,16.78,0,0,0-8.12,2L184.28,373.53c-1.94,1.1-3.08,2.51-3.08,3.76a3.37,3.37,0,0,0,1.94,2.6L459,539.19h0c3.51,2,10,1.67,14.13-.66L661.24,428.31c1.92-1.12,3.08-2.52,3.08-3.78a3.34,3.34,0,0,0-1.94-2.59L386.48,262.66A12.17,12.17,0,0,0,380.47,261.3Z" transform="translate(-0.02)"/><path class="cls-12" d="M249.8,292.53A26.17,26.17,0,0,1,236.71,289h0l-47.86-27.6a6.68,6.68,0,0,1-2.31-9.15h0a6.55,6.55,0,0,1,2.29-2.3l47.89-27.62a26.17,26.17,0,0,1,26.16,0L310.75,250a6.6,6.6,0,0,1,2.48,9,6.68,6.68,0,0,1-2.48,2.47L262.9,289A26.1,26.1,0,0,1,249.8,292.53Zm-11.54-6.19a23.14,23.14,0,0,0,23.05,0l47.86-27.63a3.5,3.5,0,0,0,0-6.08l-47.86-27.58a23.09,23.09,0,0,0-23.05,0l-47.85,27.63a3.5,3.5,0,0,0-1.31,4.77,3.58,3.58,0,0,0,1.31,1.31Z" transform="translate(-0.02)"/><path class="cls-13" d="M693.69,186.35l-240.81-139a6.21,6.21,0,0,0-4.92-.7h0l-4.47,1.54,1.62.34a7.79,7.79,0,0,0-1.47,2.75L389.11,228.11a10.64,10.64,0,0,0,4.42,11.9L634.39,379a7,7,0,0,0,1.77.72l-.6,1.3,4.25-1.5h0a6.73,6.73,0,0,0,3.87-4.51l54.43-176.75A10.69,10.69,0,0,0,693.69,186.35Z" transform="translate(-0.02)"/><path class="cls-14" d="M625.72,385.63l.08.1L388,248.53c-3.5-2-9.61-1.76-13.64.57L220.64,337.76l-5.12-2,1.42,7.18h0a4.25,4.25,0,0,0,2.31,2.88L459.36,484.53c3.5,2,9.61,1.76,13.64-.57l154.11-89a6.2,6.2,0,0,0,3.27-3.8h0l1.42-7.11Z" transform="translate(-0.02)"/><path class="cls-15" d="M459.56,478.08,217.81,338.53c-3.53-2-3.08-5.59,1-7.94L374,241c4.07-2.34,10.21-2.59,13.75-.57L629.48,380c3.52,2,3.08,5.59-1,7.94l-155.15,89.6C469.23,479.85,463.11,480.12,459.56,478.08Z" transform="translate(-0.02)"/><path class="cls-16" d="M628.41,386.05,473.25,475.63c-4.07,2.35-10.21,2.6-13.74.57L217.81,336.62a4.44,4.44,0,0,1-2.19-2.51,3.77,3.77,0,0,0,2.19,4.42L459.56,478.08c3.53,2,9.67,1.77,13.74-.57l155.11-89.58c2.68-1.54,3.75-3.62,3.18-5.43A6.37,6.37,0,0,1,628.41,386.05Z" transform="translate(-0.02)"/><g class="cls-17"><path class="cls-18" d="M333.11,315.85l-8.15-4.7c-.67-.39-.59-1.06.16-1.49l9.65-5.56a2.82,2.82,0,0,1,2.56-.1l8.2,4.74c.67.38.58,1-.19,1.47l-9.62,5.57A2.8,2.8,0,0,1,333.11,315.85Z" transform="translate(-0.02)"/><path class="cls-18" d="M345.72,323.13l-8.15-4.72c-.67-.37-.59-1,.18-1.47l9.63-5.56a2.82,2.82,0,0,1,2.56-.1l8.15,4.7c.67.39.59,1-.18,1.48L348.28,323A2.88,2.88,0,0,1,345.72,323.13Z" transform="translate(-0.02)"/><path class="cls-18" d="M358.33,330.53l-8.16-4.72c-.66-.37-.58-1,.19-1.48l9.62-5.55a2.88,2.88,0,0,1,2.56-.12l8.16,4.72c.67.37.58,1-.19,1.47l-9.62,5.56A2.88,2.88,0,0,1,358.33,330.53Z" transform="translate(-0.02)"/><path class="cls-18" d="M375.77,324.4l-8.17-4.72c-.65-.38-.57-1,.18-1.47l8.09-4.67a2.82,2.82,0,0,1,2.56-.1l8.17,4.7c.65.39.57,1-.19,1.48l-8.1,4.67A2.84,2.84,0,0,1,375.77,324.4Z" transform="translate(-0.02)"/><path class="cls-18" d="M388.37,331.67,380.2,327c-.65-.39-.57-1,.19-1.48l8.08-4.67a2.85,2.85,0,0,1,2.56-.11l8.17,4.72c.65.36.57,1-.18,1.47l-8.1,4.67A2.8,2.8,0,0,1,388.37,331.67Z" transform="translate(-0.02)"/><path class="cls-18" d="M401,339l-8.16-4.7c-.66-.39-.57-1.06.18-1.49l8.09-4.67a2.85,2.85,0,0,1,2.56-.1l8.16,4.72c.66.36.57,1-.18,1.47l-8.1,4.69A2.83,2.83,0,0,1,401,339Z" transform="translate(-0.02)"/><path class="cls-18" d="M413.58,346.23l-8.17-4.7c-.65-.37-.57-1,.18-1.47l8.09-4.67a2.82,2.82,0,0,1,2.56-.1l8.17,4.7c.65.39.57,1-.19,1.49l-8.11,4.65A2.82,2.82,0,0,1,413.58,346.23Z" transform="translate(-0.02)"/><path class="cls-18" d="M426.18,353.53,418,348.81c-.65-.37-.56-1,.19-1.47l8.08-4.67a2.82,2.82,0,0,1,2.56-.1l8.17,4.7c.66.39.57,1-.18,1.47l-8.09,4.67A2.87,2.87,0,0,1,426.18,353.53Z" transform="translate(-0.02)"/><path class="cls-18" d="M438.79,360.78l-8.17-4.71c-.65-.38-.57-1,.18-1.47l8.09-4.67a2.88,2.88,0,0,1,2.56-.12l8.17,4.72c.65.39.57,1-.19,1.48l-8.08,4.62A2.85,2.85,0,0,1,438.79,360.78Z" transform="translate(-0.02)"/><path class="cls-18" d="M451.39,368.06l-8.17-4.71c-.65-.38-.57-1,.19-1.49l8.08-4.58a2.88,2.88,0,0,1,2.56-.1l8.17,4.72c.65.37.57,1-.18,1.47L454,368A2.85,2.85,0,0,1,451.39,368.06Z" transform="translate(-0.02)"/><path class="cls-18" d="M464,375.34l-8.16-4.67c-.66-.37-.57-1,.18-1.47l8.1-4.67a2.84,2.84,0,0,1,2.57-.1l8.16,4.7c.66.38.57,1-.18,1.49l-8.08,4.67A2.85,2.85,0,0,1,464,375.34Z" transform="translate(-0.02)"/><path class="cls-18" d="M476.6,382.62l-8.17-4.72c-.65-.37-.57-1,.18-1.47l8.09-4.67a2.82,2.82,0,0,1,2.56-.1l8.17,4.7c.65.38.57,1-.19,1.47l-8.08,4.7A2.88,2.88,0,0,1,476.6,382.62Z" transform="translate(-0.02)"/><path class="cls-18" d="M489.2,389.88l-8.08-4.7c-.66-.38-.57-1,.18-1.47l8.09-4.67a2.88,2.88,0,0,1,2.56-.12l8.17,4.72c.65.39.56,1-.19,1.47l-8.08,4.67A2.83,2.83,0,0,1,489.2,389.88Z" transform="translate(-0.02)"/><path class="cls-18" d="M394.33,321l-8.15-4.72c-.67-.37-.59-1,.18-1.48l8.09-4.67A2.81,2.81,0,0,1,397,310l8.17,4.71c.65.38.57,1-.18,1.47l-8.09,4.67A2.85,2.85,0,0,1,394.33,321Z" transform="translate(-0.02)"/><path class="cls-18" d="M381.54,313.53l-8.17-4.72c-.65-.38-.57-1,.19-1.47l8.08-4.67a2.82,2.82,0,0,1,2.56-.1l8.17,4.7c.65.39.57,1-.18,1.48L384,313.42A3,3,0,0,1,381.54,313.53Z" transform="translate(-0.02)"/><path class="cls-18" d="M368.72,306.18,351.11,296c-.66-.37-.57-1,.18-1.48l8.08-4.67a2.87,2.87,0,0,1,2.57-.1l17.57,10.15c.65.38.59,1-.18,1.47L371.24,306A2.93,2.93,0,0,1,368.72,306.18Z" transform="translate(-0.02)"/><path class="cls-18" d="M377.69,297.17l-14.28-8.23c-.65-.39-.56-1,.19-1.48l8.08-4.67a2.85,2.85,0,0,1,2.56-.1l14.27,8.24c.66.37.58,1-.19,1.47l-8.08,4.6A2.8,2.8,0,0,1,377.69,297.17Z" transform="translate(-0.02)"/><path class="cls-18" d="M406.93,328.24l-8.15-4.71c-.67-.39-.58-1,.19-1.48l8.08-4.67a2.83,2.83,0,0,1,2.55-.1l8.16,4.71c.66.38.57,1-.18,1.47l-8.09,4.67A2.85,2.85,0,0,1,406.93,328.24Z" transform="translate(-0.02)"/><path class="cls-18" d="M419.54,335.53l-8.15-4.7c-.67-.39-.59-1,.18-1.48l8.08-4.67a2.9,2.9,0,0,1,2.55-.12l8.17,4.73c.65.36.57,1-.19,1.47l-8.07,4.66A2.81,2.81,0,0,1,419.54,335.53Z" transform="translate(-0.02)"/><path class="cls-18" d="M432.11,342.78l-8.15-4.7c-.65-.39-.59-1.06.18-1.49l8.09-4.67a2.82,2.82,0,0,1,2.56-.1l8.15,4.72c.65.37.57,1-.18,1.47l-8.09,4.67A2.82,2.82,0,0,1,432.11,342.78Z" transform="translate(-0.02)"/><path class="cls-18" d="M444.75,350.06l-8.16-4.72c-.65-.36-.58-1,.19-1.47l8.08-4.67a2.82,2.82,0,0,1,2.56-.1l8.15,4.7c.66.39.57,1-.18,1.49L447.31,350A2.85,2.85,0,0,1,444.75,350.06Z" transform="translate(-0.02)"/><path class="cls-18" d="M457.35,357.28l-8.15-4.75c-.66-.39-.59-1,.18-1.48l8.09-4.66a2.82,2.82,0,0,1,2.56-.11l8.15,4.71c.65.38.57,1-.19,1.47l-8.08,4.79A2.88,2.88,0,0,1,457.35,357.28Z" transform="translate(-0.02)"/><path class="cls-18" d="M470,364.61l-8.15-4.7c-.65-.39-.58-1,.19-1.48l8.08-4.67a2.85,2.85,0,0,1,2.56-.11l8.15,4.72c.66.36.57,1-.18,1.47l-8.09,4.69A2.85,2.85,0,0,1,470,364.61Z" transform="translate(-0.02)"/><path class="cls-18" d="M482.56,371.89l-8.14-4.7c-.65-.39-.57-1.06.19-1.49l8.08-4.67a2.82,2.82,0,0,1,2.56-.1l8.15,4.72c.66.37.57,1-.18,1.47l-8.11,4.67A2.8,2.8,0,0,1,482.56,371.89Z" transform="translate(-0.02)"/><path class="cls-18" d="M495.16,379.17,487,374.45c-.65-.37-.57-1,.18-1.47l8.09-4.67a2.82,2.82,0,0,1,2.56-.1l8.15,4.7c.65.39.59,1-.18,1.49l-8.1,4.6A2.89,2.89,0,0,1,495.16,379.17Z" transform="translate(-0.02)"/><path class="cls-18" d="M507.76,386.45l-8.15-4.72c-.65-.38-.57-1,.19-1.47l8.08-4.67a2.82,2.82,0,0,1,2.56-.1l8.15,4.7c.66.39.59,1-.18,1.48l-8.08,4.67A2.94,2.94,0,0,1,507.76,386.45Z" transform="translate(-0.02)"/><path class="cls-18" d="M530.18,399.39l-17.81-10.31c-.66-.37-.57-1,.18-1.47l8.09-4.67a2.82,2.82,0,0,1,2.56-.1L541,393.11c.65.39.57,1-.19,1.48l-8.08,4.67A2.91,2.91,0,0,1,530.18,399.39Z" transform="translate(-0.02)"/><path class="cls-18" d="M554.77,385.21l-15.07-8.68c-.65-.38-.57-1,.19-1.49l8.08-4.67a2.92,2.92,0,0,1,2.56-.1L565.6,379c.65.37.56,1-.19,1.47l-8.08,4.67A2.82,2.82,0,0,1,554.77,385.21Z" transform="translate(-0.02)"/><path class="cls-18" d="M429,326.8l-8.15-4.67c-.65-.39-.57-1,.18-1.48l8.09-4.66a2.88,2.88,0,0,1,2.56-.12l8.17,4.72c.65.38.57,1-.19,1.47l-8.08,4.67A2.83,2.83,0,0,1,429,326.8Z" transform="translate(-0.02)"/><path class="cls-18" d="M416.11,319.35,408,314.63c-.67-.37-.59-1,.18-1.47l8.07-4.63a2.78,2.78,0,0,1,2.54-.1l8.17,4.7c.65.38.57,1.05-.18,1.49l-8.09,4.67A2.9,2.9,0,0,1,416.11,319.35Z" transform="translate(-0.02)"/><path class="cls-18" d="M403.17,311.88l-8.15-4.7c-.66-.38-.57-1,.18-1.47l8.08-4.67a2.9,2.9,0,0,1,2.57-.12l8.15,4.72c.65.37.58,1-.19,1.47l-8,4.67A2.81,2.81,0,0,1,403.17,311.88Z" transform="translate(-0.02)"/><path class="cls-18" d="M390.26,304.44l-8.15-4.72c-.65-.37-.56-1,.19-1.48l8.08-4.67a2.82,2.82,0,0,1,2.56-.1l8.17,4.71c.65.38.57,1-.18,1.47l-8.1,4.67A2.9,2.9,0,0,1,390.26,304.44Z" transform="translate(-0.02)"/><path class="cls-18" d="M441.62,334.08l-8.17-4.7c-.66-.39-.57-1,.18-1.48l8.09-4.67a2.85,2.85,0,0,1,2.56-.11l8.16,4.72c.66.36.57,1-.18,1.47L444.18,334A2.85,2.85,0,0,1,441.62,334.08Z" transform="translate(-0.02)"/><path class="cls-18" d="M454.22,341.36l-8.2-4.72c-.65-.37-.57-1,.19-1.47l8.1-4.67a2.82,2.82,0,0,1,2.56-.1l8.17,4.72c.65.37.56,1-.19,1.47l-8.08,4.67A2.83,2.83,0,0,1,454.22,341.36Z" transform="translate(-0.02)"/><path class="cls-18" d="M466.82,348.64l-8.17-4.75c-.65-.37-.56-1,.19-1.48l8.1-4.67a2.81,2.81,0,0,1,2.54-.1l8.17,4.71c.66.38.57,1-.18,1.47l-8.07,4.7A2.83,2.83,0,0,1,466.82,348.64Z" transform="translate(-0.02)"/><path class="cls-18" d="M479.44,355.92l-8.16-4.72c-.66-.38-.57-1,.18-1.47l8.1-4.67a2.78,2.78,0,0,1,2.54-.1l8.17,4.7c.66.39.57,1-.18,1.48L482,355.81A2.89,2.89,0,0,1,479.44,355.92Z" transform="translate(-0.02)"/><path class="cls-18" d="M492,363.19l-8.17-4.66c-.65-.38-.57-1,.19-1.47l8.1-4.67a2.78,2.78,0,0,1,2.54-.12l8.19,4.72c.65.37.57,1-.19,1.48l-8.08,4.67A2.86,2.86,0,0,1,492,363.19Z" transform="translate(-0.02)"/><path class="cls-18" d="M504.63,370.47l-8.16-4.72c-.66-.37-.57-1,.18-1.48l8.1-4.67a2.83,2.83,0,0,1,2.55-.1l8.16,4.72c.66.37.57,1-.18,1.48l-8.08,4.67A2.84,2.84,0,0,1,504.63,370.47Z" transform="translate(-0.02)"/><path class="cls-18" d="M517.24,377.75,509.11,373c-.65-.37-.57-1,.18-1.47l8.11-4.67a2.78,2.78,0,0,1,2.54-.1l8.17,4.74c.65.38.57,1-.19,1.49l-8.08,4.65A2.87,2.87,0,0,1,517.24,377.75Z" transform="translate(-0.02)"/><path class="cls-18" d="M529.84,385l-8.15-4.72c-.67-.39-.58-1,.17-1.47l8.1-4.67a2.78,2.78,0,0,1,2.54-.1l8.17,4.7c.65.38.57,1-.18,1.47l-8.09,4.67A2.88,2.88,0,0,1,529.84,385Z" transform="translate(-0.02)"/><path class="cls-18" d="M542.45,392.29l-8.16-4.7c-.66-.38-.58-1,.19-1.47l8.08-4.67a2.86,2.86,0,0,1,2.55-.12l8.17,4.72c.65.37.56,1-.19,1.47L545,392.19A2.84,2.84,0,0,1,542.45,392.29Z" transform="translate(-0.02)"/><path class="cls-18" d="M422.37,308.74l-8.21-4.64c-.65-.38-.56-1.05.19-1.49l8.08-4.67a2.88,2.88,0,0,1,2.56-.1l8.12,4.69c.65.37.58,1-.19,1.47l-8,4.71A2.8,2.8,0,0,1,422.37,308.74Z" transform="translate(-0.02)"/><path class="cls-18" d="M409.83,301.53l-8.15-4.72c-.67-.38-.59-1,.17-1.47l8.1-4.67a2.78,2.78,0,0,1,2.54-.1l8.17,4.7c.65.39.57,1-.18,1.48l-8.09,4.67A2.92,2.92,0,0,1,409.83,301.53Z" transform="translate(-0.02)"/><path class="cls-18" d="M397.29,294.33l-8.18-4.72c-.66-.37-.57-1,.18-1.48l8.19-4.67a2.82,2.82,0,0,1,2.56-.1l8.17,4.71c.65.38.56,1.05-.19,1.49l-8.08,4.67A2.88,2.88,0,0,1,397.29,294.33Z" transform="translate(-0.02)"/><path class="cls-18" d="M384.76,287.08l-8.17-4.71c-.66-.38-.57-1,.18-1.47l8.09-4.67a2.92,2.92,0,0,1,2.56-.12l8.15,4.72c.67.37.58,1-.19,1.48l-8,4.67A2.79,2.79,0,0,1,384.76,287.08Z" transform="translate(-0.02)"/><path class="cls-18" d="M397.64,279.63l-8.16-4.7c-.66-.39-.57-1,.18-1.48l2.75-1.54a2.85,2.85,0,0,1,2.56-.11l8.14,4.73c.67.36.58,1-.17,1.47l-2.67,1.53A2.84,2.84,0,0,1,397.64,279.63Z" transform="translate(-0.02)"/><path class="cls-18" d="M414,289.09l-8.21-4.72c-.66-.37-.57-1,.18-1.48l2.68-1.54a2.85,2.85,0,0,1,2.56-.1l8.15,4.71c.65.38.59,1-.18,1.47L416.52,289A2.82,2.82,0,0,1,414,289.09Z" transform="translate(-0.02)"/><path class="cls-18" d="M426.5,296.3l-8.17-4.72c-.65-.37-.57-1,.19-1.47l2.67-1.54a2.84,2.84,0,0,1,2.57-.1l8.15,4.7c.67.39.58,1-.17,1.47l-2.63,1.54A2.83,2.83,0,0,1,426.5,296.3Z" transform="translate(-0.02)"/><path class="cls-18" d="M439,303.53l-8.09-4.73c-.67-.38-.58-1,.19-1.47l2.66-1.54a2.92,2.92,0,0,1,2.56-.12l8.17,4.72c.65.37.57,1-.19,1.48l-2.67,1.54A2.91,2.91,0,0,1,439,303.53Z" transform="translate(-0.02)"/><path class="cls-18" d="M451.47,310.71,443.32,306c-.65-.39-.58-1,.19-1.47l2.66-1.56a2.88,2.88,0,0,1,2.56-.1l8.17,4.72c.65.37.57,1-.19,1.47L454,310.61A2.86,2.86,0,0,1,451.47,310.71Z" transform="translate(-0.02)"/><path class="cls-18" d="M521.29,351l-8.18-4.71c-.65-.38-.57-1,.19-1.47l2.67-1.54a2.85,2.85,0,0,1,2.56-.12l8.16,4.72c.67.37.58,1-.19,1.48l-2.66,1.54A2.8,2.8,0,0,1,521.29,351Z" transform="translate(-0.02)"/><path class="cls-18" d="M533.69,358.18l-8.15-4.7c-.67-.39-.59-1,.18-1.47l2.67-1.56a2.82,2.82,0,0,1,2.56-.1l8.17,4.72c.65.37.56,1-.19,1.47l-2.68,1.54A2.82,2.82,0,0,1,533.69,358.18Z" transform="translate(-0.02)"/><path class="cls-18" d="M546.18,365.4,538,360.63c-.66-.39-.59-1.06.18-1.49l2.66-1.54a2.82,2.82,0,0,1,2.56-.1l8.17,4.7c.65.38.57,1-.18,1.47l-2.68,1.56A2.87,2.87,0,0,1,546.18,365.4Z" transform="translate(-0.02)"/><path class="cls-18" d="M558.68,372.61l-8.17-4.72c-.65-.37-.57-1,.19-1.47l2.68-1.54a2.78,2.78,0,0,1,2.54-.1l8.19,4.75c.65.39.57,1-.19,1.47l-2.69,1.53A2.86,2.86,0,0,1,558.68,372.61Z" transform="translate(-0.02)"/><path class="cls-18" d="M435,316.09l-8.15-4.72c-.65-.37-.57-1,.18-1.48l8.09-4.67a2.82,2.82,0,0,1,2.56-.1l8.15,4.71c.65.38.59,1-.18,1.49l-8,4.67A2.89,2.89,0,0,1,435,316.09Z" transform="translate(-0.02)"/><path class="cls-18" d="M447.64,323.37l-8.15-4.72c-.65-.39-.57-1,.18-1.48l8.09-4.67a2.85,2.85,0,0,1,2.56-.1l8.15,4.71c.65.38.59,1-.18,1.47l-8.09,4.67A2.92,2.92,0,0,1,447.64,323.37Z" transform="translate(-0.02)"/><path class="cls-18" d="M460.18,330.63l-8.15-4.7c-.66-.39-.57-1,.18-1.48l8.09-4.67a2.92,2.92,0,0,1,2.56-.11l8.15,4.72c.67.38.58,1-.19,1.47l-8.11,4.67A2.82,2.82,0,0,1,460.18,330.63Z" transform="translate(-0.02)"/><path class="cls-18" d="M472.75,337.91l-8.17-4.7c-.65-.39-.57-1,.18-1.49l8.09-4.67a2.88,2.88,0,0,1,2.56-.1l8.15,4.72c.67.37.59,1-.18,1.47l-8.09,4.67A2.78,2.78,0,0,1,472.75,337.91Z" transform="translate(-0.02)"/><path class="cls-18" d="M485.4,345.19l-8.17-4.66c-.65-.37-.56-1,.19-1.47l8.08-4.67a2.82,2.82,0,0,1,2.56-.1l8.12,4.57c.67.38.59,1-.18,1.49L487.91,345A2.78,2.78,0,0,1,485.4,345.19Z" transform="translate(-0.02)"/><path class="cls-18" d="M498,352.47l-8.17-4.72c-.65-.36-.57-1,.18-1.47l8.09-4.67a2.82,2.82,0,0,1,2.56-.1l8.15,4.7c.67.39.58,1-.18,1.48l-8.09,4.67A2.84,2.84,0,0,1,498,352.47Z" transform="translate(-0.02)"/><path class="cls-18" d="M510.61,359.74l-8.17-4.7c-.65-.39-.57-1,.19-1.48l8.08-4.67a2.85,2.85,0,0,1,2.56-.11l8.15,4.72c.67.38.59,1-.18,1.47l-8.13,4.67A2.79,2.79,0,0,1,510.61,359.74Z" transform="translate(-0.02)"/><path class="cls-18" d="M523.21,367,515,362.3c-.66-.39-.57-1,.18-1.49l8.08-4.65a2.84,2.84,0,0,1,2.57-.12l8.15,4.72c.67.37.58,1-.17,1.47l-8.1,4.67A2.8,2.8,0,0,1,523.21,367Z" transform="translate(-0.02)"/><path class="cls-18" d="M535.82,374.3l-8.17-4.72c-.65-.37-.57-1,.18-1.47l8.09-4.67a2.82,2.82,0,0,1,2.56-.1l8.17,4.7c.65.39.57,1.06-.19,1.49l-8.1,4.67A2.78,2.78,0,0,1,535.82,374.3Z" transform="translate(-0.02)"/><path class="cls-18" d="M362.91,317l-24.07-13.9c-.65-.37-.57-1,.19-1.48l8.18-4.6a2.82,2.82,0,0,1,2.56-.1l24,13.88c.65.38.57,1-.19,1.47l-8.08,4.67A2.91,2.91,0,0,1,362.91,317Z" transform="translate(-0.02)"/><path class="cls-18" d="M517.76,406.39l-24-13.88c-.65-.38-.57-1.05.19-1.49l8.08-4.67a2.82,2.82,0,0,1,2.56-.1l24,13.88c.65.38.57,1-.19,1.47l-8.08,4.67A2.88,2.88,0,0,1,517.76,406.39Z" transform="translate(-0.02)"/><path class="cls-18" d="M467.36,393.35l-8.17-4.7c-.65-.39-.57-1,.18-1.48L469,381.6a2.82,2.82,0,0,1,2.56-.1l8.15,4.72c.65.37.57,1-.19,1.47l-9.62,5.56A2.82,2.82,0,0,1,467.36,393.35Z" transform="translate(-0.02)"/><path class="cls-18" d="M375.82,340.53l-13-7.53c-.67-.39-.59-1,.18-1.48l9.63-5.57a2.82,2.82,0,0,1,2.56-.1l13,7.53c.66.39.57,1-.18,1.48l-9.64,5.57A2.8,2.8,0,0,1,375.82,340.53Z" transform="translate(-0.02)"/><path class="cls-18" d="M455.21,386.34l-13-7.54c-.67-.36-.59-1,.18-1.47l9.63-5.56a2.85,2.85,0,0,1,2.56-.11l13.05,7.55c.66.36.57,1-.18,1.47l-9.64,5.56A2.84,2.84,0,0,1,455.21,386.34Z" transform="translate(-0.02)"/><path class="cls-18" d="M394.11,351,381,343.47c-.65-.37-.57-1,.19-1.47l9.64-5.56a2.84,2.84,0,0,1,2.54-.12l13.06,7.55c.65.37.57,1-.19,1.47l-9.62,5.56A2.82,2.82,0,0,1,394.11,351Z" transform="translate(-0.02)"/><path class="cls-18" d="M393.43,336.37l56.74,32.78a.75.75,0,0,1,.54.93.19.19,0,0,1,0,.07h0a.81.81,0,0,1-.51.51l-9.83,5.67a2.78,2.78,0,0,1-2.54,0L381,343.53Z" transform="translate(-0.02)"/><path class="cls-18" d="M502.59,406.53l9.09,5.23c.54.32.47.86-.15,1.21l-3.95,2.28a2.33,2.33,0,0,1-2.09.1l-9.09-5.26c-.54-.3-.47-.85.15-1.2l3.93-2.28A2.28,2.28,0,0,1,502.59,406.53Z" transform="translate(-0.02)"/><path class="cls-18" d="M489.87,399.21l9.09,5.25c.54.3.47.86-.15,1.21l-3.93,2.27a2.29,2.29,0,0,1-2.1.09l-9.08-5.24c-.54-.32-.47-.85.15-1.22l4-2.28A2.35,2.35,0,0,1,489.87,399.21Z" transform="translate(-0.02)"/><path class="cls-18" d="M477.27,391.93l9.09,5.25c.53.32.47.86-.15,1.21l-3.94,2.27a2.27,2.27,0,0,1-2.09.09l-9.07-5.22c-.55-.32-.46-.86.16-1.21l3.93-2.27A2.32,2.32,0,0,1,477.27,391.93Z" transform="translate(-0.02)"/><path class="cls-18" d="M496.83,395.19l9.09,5.26c.54.3.47.85-.15,1.2l-3.93,2.28a2.3,2.3,0,0,1-2.09.08l-9.11-5.24c-.53-.32-.47-.85.15-1.22l4-2.28A2.39,2.39,0,0,1,496.83,395.19Z" transform="translate(-0.02)"/></g><g class="cls-17"><path class="cls-18" d="M333.11,315.85l-8.15-4.7c-.67-.39-.59-1.06.16-1.49l9.65-5.56a2.82,2.82,0,0,1,2.56-.1l8.2,4.74c.67.38.58,1-.19,1.47l-9.62,5.57A2.8,2.8,0,0,1,333.11,315.85Z" transform="translate(-0.02)"/><path class="cls-18" d="M345.72,323.13l-8.15-4.72c-.67-.37-.59-1,.18-1.47l9.63-5.56a2.82,2.82,0,0,1,2.56-.1l8.15,4.7c.67.39.59,1-.18,1.48L348.28,323A2.88,2.88,0,0,1,345.72,323.13Z" transform="translate(-0.02)"/><path class="cls-18" d="M358.33,330.53l-8.16-4.72c-.66-.37-.58-1,.19-1.48l9.62-5.55a2.88,2.88,0,0,1,2.56-.12l8.16,4.72c.67.37.58,1-.19,1.47l-9.62,5.56A2.88,2.88,0,0,1,358.33,330.53Z" transform="translate(-0.02)"/><path class="cls-18" d="M375.77,324.4l-8.17-4.72c-.65-.38-.57-1,.18-1.47l8.09-4.67a2.82,2.82,0,0,1,2.56-.1l8.17,4.7c.65.39.57,1-.19,1.48l-8.1,4.67A2.84,2.84,0,0,1,375.77,324.4Z" transform="translate(-0.02)"/><path class="cls-18" d="M388.37,331.67,380.2,327c-.65-.39-.57-1,.19-1.48l8.08-4.67a2.85,2.85,0,0,1,2.56-.11l8.17,4.72c.65.36.57,1-.18,1.47l-8.1,4.67A2.8,2.8,0,0,1,388.37,331.67Z" transform="translate(-0.02)"/><path class="cls-18" d="M401,339l-8.16-4.7c-.66-.39-.57-1.06.18-1.49l8.09-4.67a2.85,2.85,0,0,1,2.56-.1l8.16,4.72c.66.36.57,1-.18,1.47l-8.1,4.69A2.83,2.83,0,0,1,401,339Z" transform="translate(-0.02)"/><path class="cls-18" d="M413.58,346.23l-8.17-4.7c-.65-.37-.57-1,.18-1.47l8.09-4.67a2.82,2.82,0,0,1,2.56-.1l8.17,4.7c.65.39.57,1-.19,1.49l-8.11,4.65A2.82,2.82,0,0,1,413.58,346.23Z" transform="translate(-0.02)"/><path class="cls-18" d="M426.18,353.53,418,348.81c-.65-.37-.56-1,.19-1.47l8.08-4.67a2.82,2.82,0,0,1,2.56-.1l8.17,4.7c.66.39.57,1-.18,1.47l-8.09,4.67A2.87,2.87,0,0,1,426.18,353.53Z" transform="translate(-0.02)"/><path class="cls-18" d="M438.79,360.78l-8.17-4.71c-.65-.38-.57-1,.18-1.47l8.09-4.67a2.88,2.88,0,0,1,2.56-.12l8.17,4.72c.65.39.57,1-.19,1.48l-8.08,4.62A2.85,2.85,0,0,1,438.79,360.78Z" transform="translate(-0.02)"/><path class="cls-18" d="M451.39,368.06l-8.17-4.71c-.65-.38-.57-1,.19-1.49l8.08-4.58a2.88,2.88,0,0,1,2.56-.1l8.17,4.72c.65.37.57,1-.18,1.47L454,368A2.85,2.85,0,0,1,451.39,368.06Z" transform="translate(-0.02)"/><path class="cls-18" d="M464,375.34l-8.16-4.67c-.66-.37-.57-1,.18-1.47l8.1-4.67a2.84,2.84,0,0,1,2.57-.1l8.16,4.7c.66.38.57,1-.18,1.49l-8.08,4.67A2.85,2.85,0,0,1,464,375.34Z" transform="translate(-0.02)"/><path class="cls-18" d="M476.6,382.62l-8.17-4.72c-.65-.37-.57-1,.18-1.47l8.09-4.67a2.82,2.82,0,0,1,2.56-.1l8.17,4.7c.65.38.57,1-.19,1.47l-8.08,4.7A2.88,2.88,0,0,1,476.6,382.62Z" transform="translate(-0.02)"/><path class="cls-18" d="M489.2,389.88l-8.08-4.7c-.66-.38-.57-1,.18-1.47l8.09-4.67a2.88,2.88,0,0,1,2.56-.12l8.17,4.72c.65.39.56,1-.19,1.47l-8.08,4.67A2.83,2.83,0,0,1,489.2,389.88Z" transform="translate(-0.02)"/><path class="cls-18" d="M394.33,321l-8.15-4.72c-.67-.37-.59-1,.18-1.48l8.09-4.67A2.81,2.81,0,0,1,397,310l8.17,4.71c.65.38.57,1-.18,1.47l-8.09,4.67A2.85,2.85,0,0,1,394.33,321Z" transform="translate(-0.02)"/><path class="cls-18" d="M381.54,313.53l-8.17-4.72c-.65-.38-.57-1,.19-1.47l8.08-4.67a2.82,2.82,0,0,1,2.56-.1l8.17,4.7c.65.39.57,1-.18,1.48L384,313.42A3,3,0,0,1,381.54,313.53Z" transform="translate(-0.02)"/><path class="cls-18" d="M368.72,306.18,351.11,296c-.66-.37-.57-1,.18-1.48l8.08-4.67a2.87,2.87,0,0,1,2.57-.1l17.57,10.15c.65.38.59,1-.18,1.47L371.24,306A2.93,2.93,0,0,1,368.72,306.18Z" transform="translate(-0.02)"/><path class="cls-18" d="M377.69,297.17l-14.28-8.23c-.65-.39-.56-1,.19-1.48l8.08-4.67a2.85,2.85,0,0,1,2.56-.1l14.27,8.24c.66.37.58,1-.19,1.47l-8.08,4.6A2.8,2.8,0,0,1,377.69,297.17Z" transform="translate(-0.02)"/><path class="cls-18" d="M406.93,328.24l-8.15-4.71c-.67-.39-.58-1,.19-1.48l8.08-4.67a2.83,2.83,0,0,1,2.55-.1l8.16,4.71c.66.38.57,1-.18,1.47l-8.09,4.67A2.85,2.85,0,0,1,406.93,328.24Z" transform="translate(-0.02)"/><path class="cls-18" d="M419.54,335.53l-8.15-4.7c-.67-.39-.59-1,.18-1.48l8.08-4.67a2.9,2.9,0,0,1,2.55-.12l8.17,4.73c.65.36.57,1-.19,1.47l-8.07,4.66A2.81,2.81,0,0,1,419.54,335.53Z" transform="translate(-0.02)"/><path class="cls-18" d="M432.11,342.78l-8.15-4.7c-.65-.39-.59-1.06.18-1.49l8.09-4.67a2.82,2.82,0,0,1,2.56-.1l8.15,4.72c.65.37.57,1-.18,1.47l-8.09,4.67A2.82,2.82,0,0,1,432.11,342.78Z" transform="translate(-0.02)"/><path class="cls-18" d="M444.75,350.06l-8.16-4.72c-.65-.36-.58-1,.19-1.47l8.08-4.67a2.82,2.82,0,0,1,2.56-.1l8.15,4.7c.66.39.57,1-.18,1.49L447.31,350A2.85,2.85,0,0,1,444.75,350.06Z" transform="translate(-0.02)"/><path class="cls-18" d="M457.35,357.28l-8.15-4.75c-.66-.39-.59-1,.18-1.48l8.09-4.66a2.82,2.82,0,0,1,2.56-.11l8.15,4.71c.65.38.57,1-.19,1.47l-8.08,4.79A2.88,2.88,0,0,1,457.35,357.28Z" transform="translate(-0.02)"/><path class="cls-18" d="M470,364.61l-8.15-4.7c-.65-.39-.58-1,.19-1.48l8.08-4.67a2.85,2.85,0,0,1,2.56-.11l8.15,4.72c.66.36.57,1-.18,1.47l-8.09,4.69A2.85,2.85,0,0,1,470,364.61Z" transform="translate(-0.02)"/><path class="cls-18" d="M482.56,371.89l-8.14-4.7c-.65-.39-.57-1.06.19-1.49l8.08-4.67a2.82,2.82,0,0,1,2.56-.1l8.15,4.72c.66.37.57,1-.18,1.47l-8.11,4.67A2.8,2.8,0,0,1,482.56,371.89Z" transform="translate(-0.02)"/><path class="cls-18" d="M495.16,379.17,487,374.45c-.65-.37-.57-1,.18-1.47l8.09-4.67a2.82,2.82,0,0,1,2.56-.1l8.15,4.7c.65.39.59,1-.18,1.49l-8.1,4.6A2.89,2.89,0,0,1,495.16,379.17Z" transform="translate(-0.02)"/><path class="cls-18" d="M507.76,386.45l-8.15-4.72c-.65-.38-.57-1,.19-1.47l8.08-4.67a2.82,2.82,0,0,1,2.56-.1l8.15,4.7c.66.39.59,1-.18,1.48l-8.08,4.67A2.94,2.94,0,0,1,507.76,386.45Z" transform="translate(-0.02)"/><path class="cls-18" d="M530.18,399.39l-17.81-10.31c-.66-.37-.57-1,.18-1.47l8.09-4.67a2.82,2.82,0,0,1,2.56-.1L541,393.11c.65.39.57,1-.19,1.48l-8.08,4.67A2.91,2.91,0,0,1,530.18,399.39Z" transform="translate(-0.02)"/><path class="cls-18" d="M554.77,385.21l-15.07-8.68c-.65-.38-.57-1,.19-1.49l8.08-4.67a2.92,2.92,0,0,1,2.56-.1L565.6,379c.65.37.56,1-.19,1.47l-8.08,4.67A2.82,2.82,0,0,1,554.77,385.21Z" transform="translate(-0.02)"/><path class="cls-18" d="M429,326.8l-8.15-4.67c-.65-.39-.57-1,.18-1.48l8.09-4.66a2.88,2.88,0,0,1,2.56-.12l8.17,4.72c.65.38.57,1-.19,1.47l-8.08,4.67A2.83,2.83,0,0,1,429,326.8Z" transform="translate(-0.02)"/><path class="cls-18" d="M416.11,319.35,408,314.63c-.67-.37-.59-1,.18-1.47l8.07-4.63a2.78,2.78,0,0,1,2.54-.1l8.17,4.7c.65.38.57,1.05-.18,1.49l-8.09,4.67A2.9,2.9,0,0,1,416.11,319.35Z" transform="translate(-0.02)"/><path class="cls-18" d="M403.17,311.88l-8.15-4.7c-.66-.38-.57-1,.18-1.47l8.08-4.67a2.9,2.9,0,0,1,2.57-.12l8.15,4.72c.65.37.58,1-.19,1.47l-8,4.67A2.81,2.81,0,0,1,403.17,311.88Z" transform="translate(-0.02)"/><path class="cls-18" d="M390.26,304.44l-8.15-4.72c-.65-.37-.56-1,.19-1.48l8.08-4.67a2.82,2.82,0,0,1,2.56-.1l8.17,4.71c.65.38.57,1-.18,1.47l-8.1,4.67A2.9,2.9,0,0,1,390.26,304.44Z" transform="translate(-0.02)"/><path class="cls-18" d="M441.62,334.08l-8.17-4.7c-.66-.39-.57-1,.18-1.48l8.09-4.67a2.85,2.85,0,0,1,2.56-.11l8.16,4.72c.66.36.57,1-.18,1.47L444.18,334A2.85,2.85,0,0,1,441.62,334.08Z" transform="translate(-0.02)"/><path class="cls-18" d="M454.22,341.36l-8.2-4.72c-.65-.37-.57-1,.19-1.47l8.1-4.67a2.82,2.82,0,0,1,2.56-.1l8.17,4.72c.65.37.56,1-.19,1.47l-8.08,4.67A2.83,2.83,0,0,1,454.22,341.36Z" transform="translate(-0.02)"/><path class="cls-18" d="M466.82,348.64l-8.17-4.75c-.65-.37-.56-1,.19-1.48l8.1-4.67a2.81,2.81,0,0,1,2.54-.1l8.17,4.71c.66.38.57,1-.18,1.47l-8.07,4.7A2.83,2.83,0,0,1,466.82,348.64Z" transform="translate(-0.02)"/><path class="cls-18" d="M479.44,355.92l-8.16-4.72c-.66-.38-.57-1,.18-1.47l8.1-4.67a2.78,2.78,0,0,1,2.54-.1l8.17,4.7c.66.39.57,1-.18,1.48L482,355.81A2.89,2.89,0,0,1,479.44,355.92Z" transform="translate(-0.02)"/><path class="cls-18" d="M492,363.19l-8.17-4.66c-.65-.38-.57-1,.19-1.47l8.1-4.67a2.78,2.78,0,0,1,2.54-.12l8.19,4.72c.65.37.57,1-.19,1.48l-8.08,4.67A2.86,2.86,0,0,1,492,363.19Z" transform="translate(-0.02)"/><path class="cls-18" d="M504.63,370.47l-8.16-4.72c-.66-.37-.57-1,.18-1.48l8.1-4.67a2.83,2.83,0,0,1,2.55-.1l8.16,4.72c.66.37.57,1-.18,1.48l-8.08,4.67A2.84,2.84,0,0,1,504.63,370.47Z" transform="translate(-0.02)"/><path class="cls-18" d="M517.24,377.75,509.11,373c-.65-.37-.57-1,.18-1.47l8.11-4.67a2.78,2.78,0,0,1,2.54-.1l8.17,4.74c.65.38.57,1-.19,1.49l-8.08,4.65A2.87,2.87,0,0,1,517.24,377.75Z" transform="translate(-0.02)"/><path class="cls-18" d="M529.84,385l-8.15-4.72c-.67-.39-.58-1,.17-1.47l8.1-4.67a2.78,2.78,0,0,1,2.54-.1l8.17,4.7c.65.38.57,1-.18,1.47l-8.09,4.67A2.88,2.88,0,0,1,529.84,385Z" transform="translate(-0.02)"/><path class="cls-18" d="M542.45,392.29l-8.16-4.7c-.66-.38-.58-1,.19-1.47l8.08-4.67a2.86,2.86,0,0,1,2.55-.12l8.17,4.72c.65.37.56,1-.19,1.47L545,392.19A2.84,2.84,0,0,1,542.45,392.29Z" transform="translate(-0.02)"/><path class="cls-18" d="M422.37,308.74l-8.21-4.64c-.65-.38-.56-1.05.19-1.49l8.08-4.67a2.88,2.88,0,0,1,2.56-.1l8.12,4.69c.65.37.58,1-.19,1.47l-8,4.71A2.8,2.8,0,0,1,422.37,308.74Z" transform="translate(-0.02)"/><path class="cls-18" d="M409.83,301.53l-8.15-4.72c-.67-.38-.59-1,.17-1.47l8.1-4.67a2.78,2.78,0,0,1,2.54-.1l8.17,4.7c.65.39.57,1-.18,1.48l-8.09,4.67A2.92,2.92,0,0,1,409.83,301.53Z" transform="translate(-0.02)"/><path class="cls-18" d="M397.29,294.33l-8.18-4.72c-.66-.37-.57-1,.18-1.48l8.19-4.67a2.82,2.82,0,0,1,2.56-.1l8.17,4.71c.65.38.56,1.05-.19,1.49l-8.08,4.67A2.88,2.88,0,0,1,397.29,294.33Z" transform="translate(-0.02)"/><path class="cls-18" d="M384.76,287.08l-8.17-4.71c-.66-.38-.57-1,.18-1.47l8.09-4.67a2.92,2.92,0,0,1,2.56-.12l8.15,4.72c.67.37.58,1-.19,1.48l-8,4.67A2.79,2.79,0,0,1,384.76,287.08Z" transform="translate(-0.02)"/><path class="cls-18" d="M397.64,279.63l-8.16-4.7c-.66-.39-.57-1,.18-1.48l2.75-1.54a2.85,2.85,0,0,1,2.56-.11l8.14,4.73c.67.36.58,1-.17,1.47l-2.67,1.53A2.84,2.84,0,0,1,397.64,279.63Z" transform="translate(-0.02)"/><path class="cls-18" d="M414,289.09l-8.21-4.72c-.66-.37-.57-1,.18-1.48l2.68-1.54a2.85,2.85,0,0,1,2.56-.1l8.15,4.71c.65.38.59,1-.18,1.47L416.52,289A2.82,2.82,0,0,1,414,289.09Z" transform="translate(-0.02)"/><path class="cls-18" d="M426.5,296.3l-8.17-4.72c-.65-.37-.57-1,.19-1.47l2.67-1.54a2.84,2.84,0,0,1,2.57-.1l8.15,4.7c.67.39.58,1-.17,1.47l-2.63,1.54A2.83,2.83,0,0,1,426.5,296.3Z" transform="translate(-0.02)"/><path class="cls-18" d="M439,303.53l-8.09-4.73c-.67-.38-.58-1,.19-1.47l2.66-1.54a2.92,2.92,0,0,1,2.56-.12l8.17,4.72c.65.37.57,1-.19,1.48l-2.67,1.54A2.91,2.91,0,0,1,439,303.53Z" transform="translate(-0.02)"/><path class="cls-18" d="M451.47,310.71,443.32,306c-.65-.39-.58-1,.19-1.47l2.66-1.56a2.88,2.88,0,0,1,2.56-.1l8.17,4.72c.65.37.57,1-.19,1.47L454,310.61A2.86,2.86,0,0,1,451.47,310.71Z" transform="translate(-0.02)"/><path class="cls-18" d="M521.29,351l-8.18-4.71c-.65-.38-.57-1,.19-1.47l2.67-1.54a2.85,2.85,0,0,1,2.56-.12l8.16,4.72c.67.37.58,1-.19,1.48l-2.66,1.54A2.8,2.8,0,0,1,521.29,351Z" transform="translate(-0.02)"/><path class="cls-18" d="M533.69,358.18l-8.15-4.7c-.67-.39-.59-1,.18-1.47l2.67-1.56a2.82,2.82,0,0,1,2.56-.1l8.17,4.72c.65.37.56,1-.19,1.47l-2.68,1.54A2.82,2.82,0,0,1,533.69,358.18Z" transform="translate(-0.02)"/><path class="cls-18" d="M546.18,365.4,538,360.63c-.66-.39-.59-1.06.18-1.49l2.66-1.54a2.82,2.82,0,0,1,2.56-.1l8.17,4.7c.65.38.57,1-.18,1.47l-2.68,1.56A2.87,2.87,0,0,1,546.18,365.4Z" transform="translate(-0.02)"/><path class="cls-18" d="M558.68,372.61l-8.17-4.72c-.65-.37-.57-1,.19-1.47l2.68-1.54a2.78,2.78,0,0,1,2.54-.1l8.19,4.75c.65.39.57,1-.19,1.47l-2.69,1.53A2.86,2.86,0,0,1,558.68,372.61Z" transform="translate(-0.02)"/><path class="cls-18" d="M435,316.09l-8.15-4.72c-.65-.37-.57-1,.18-1.48l8.09-4.67a2.82,2.82,0,0,1,2.56-.1l8.15,4.71c.65.38.59,1-.18,1.49l-8,4.67A2.89,2.89,0,0,1,435,316.09Z" transform="translate(-0.02)"/><path class="cls-18" d="M447.64,323.37l-8.15-4.72c-.65-.39-.57-1,.18-1.48l8.09-4.67a2.85,2.85,0,0,1,2.56-.1l8.15,4.71c.65.38.59,1-.18,1.47l-8.09,4.67A2.92,2.92,0,0,1,447.64,323.37Z" transform="translate(-0.02)"/><path class="cls-18" d="M460.18,330.63l-8.15-4.7c-.66-.39-.57-1,.18-1.48l8.09-4.67a2.92,2.92,0,0,1,2.56-.11l8.15,4.72c.67.38.58,1-.19,1.47l-8.11,4.67A2.82,2.82,0,0,1,460.18,330.63Z" transform="translate(-0.02)"/><path class="cls-18" d="M472.75,337.91l-8.17-4.7c-.65-.39-.57-1,.18-1.49l8.09-4.67a2.88,2.88,0,0,1,2.56-.1l8.15,4.72c.67.37.59,1-.18,1.47l-8.09,4.67A2.78,2.78,0,0,1,472.75,337.91Z" transform="translate(-0.02)"/><path class="cls-18" d="M485.4,345.19l-8.17-4.66c-.65-.37-.56-1,.19-1.47l8.08-4.67a2.82,2.82,0,0,1,2.56-.1l8.12,4.57c.67.38.59,1-.18,1.49L487.91,345A2.78,2.78,0,0,1,485.4,345.19Z" transform="translate(-0.02)"/><path class="cls-18" d="M498,352.47l-8.17-4.72c-.65-.36-.57-1,.18-1.47l8.09-4.67a2.82,2.82,0,0,1,2.56-.1l8.15,4.7c.67.39.58,1-.18,1.48l-8.09,4.67A2.84,2.84,0,0,1,498,352.47Z" transform="translate(-0.02)"/><path class="cls-18" d="M510.61,359.74l-8.17-4.7c-.65-.39-.57-1,.19-1.48l8.08-4.67a2.85,2.85,0,0,1,2.56-.11l8.15,4.72c.67.38.59,1-.18,1.47l-8.13,4.67A2.79,2.79,0,0,1,510.61,359.74Z" transform="translate(-0.02)"/><path class="cls-18" d="M523.21,367,515,362.3c-.66-.39-.57-1,.18-1.49l8.08-4.65a2.84,2.84,0,0,1,2.57-.12l8.15,4.72c.67.37.58,1-.17,1.47l-8.1,4.67A2.8,2.8,0,0,1,523.21,367Z" transform="translate(-0.02)"/><path class="cls-18" d="M535.82,374.3l-8.17-4.72c-.65-.37-.57-1,.18-1.47l8.09-4.67a2.82,2.82,0,0,1,2.56-.1l8.17,4.7c.65.39.57,1.06-.19,1.49l-8.1,4.67A2.78,2.78,0,0,1,535.82,374.3Z" transform="translate(-0.02)"/><path class="cls-18" d="M362.91,317l-24.07-13.9c-.65-.37-.57-1,.19-1.48l8.18-4.6a2.82,2.82,0,0,1,2.56-.1l24,13.88c.65.38.57,1-.19,1.47l-8.08,4.67A2.91,2.91,0,0,1,362.91,317Z" transform="translate(-0.02)"/><path class="cls-18" d="M517.76,406.39l-24-13.88c-.65-.38-.57-1.05.19-1.49l8.08-4.67a2.82,2.82,0,0,1,2.56-.1l24,13.88c.65.38.57,1-.19,1.47l-8.08,4.67A2.88,2.88,0,0,1,517.76,406.39Z" transform="translate(-0.02)"/><path class="cls-18" d="M467.36,393.35l-8.17-4.7c-.65-.39-.57-1,.18-1.48L469,381.6a2.82,2.82,0,0,1,2.56-.1l8.15,4.72c.65.37.57,1-.19,1.47l-9.62,5.56A2.82,2.82,0,0,1,467.36,393.35Z" transform="translate(-0.02)"/><path class="cls-18" d="M375.82,340.53l-13-7.53c-.67-.39-.59-1,.18-1.48l9.63-5.57a2.82,2.82,0,0,1,2.56-.1l13,7.53c.66.39.57,1-.18,1.48l-9.64,5.57A2.8,2.8,0,0,1,375.82,340.53Z" transform="translate(-0.02)"/><path class="cls-18" d="M455.21,386.34l-13-7.54c-.67-.36-.59-1,.18-1.47l9.63-5.56a2.85,2.85,0,0,1,2.56-.11l13.05,7.55c.66.36.57,1-.18,1.47l-9.64,5.56A2.84,2.84,0,0,1,455.21,386.34Z" transform="translate(-0.02)"/><path class="cls-18" d="M394.11,351,381,343.47c-.65-.37-.57-1,.19-1.47l9.64-5.56a2.84,2.84,0,0,1,2.54-.12l13.06,7.55c.65.37.57,1-.19,1.47l-9.62,5.56A2.82,2.82,0,0,1,394.11,351Z" transform="translate(-0.02)"/><path class="cls-18" d="M393.43,336.37l56.74,32.78a.75.75,0,0,1,.54.93.19.19,0,0,1,0,.07h0a.81.81,0,0,1-.51.51l-9.83,5.67a2.78,2.78,0,0,1-2.54,0L381,343.53Z" transform="translate(-0.02)"/><path class="cls-18" d="M502.59,406.53l9.09,5.23c.54.32.47.86-.15,1.21l-3.95,2.28a2.33,2.33,0,0,1-2.09.1l-9.09-5.26c-.54-.3-.47-.85.15-1.2l3.93-2.28A2.28,2.28,0,0,1,502.59,406.53Z" transform="translate(-0.02)"/><path class="cls-18" d="M489.87,399.21l9.09,5.25c.54.3.47.86-.15,1.21l-3.93,2.27a2.29,2.29,0,0,1-2.1.09l-9.08-5.24c-.54-.32-.47-.85.15-1.22l4-2.28A2.35,2.35,0,0,1,489.87,399.21Z" transform="translate(-0.02)"/><path class="cls-18" d="M477.27,391.93l9.09,5.25c.53.32.47.86-.15,1.21l-3.94,2.27a2.27,2.27,0,0,1-2.09.09l-9.07-5.22c-.55-.32-.46-.86.16-1.21l3.93-2.27A2.32,2.32,0,0,1,477.27,391.93Z" transform="translate(-0.02)"/><path class="cls-18" d="M496.83,395.19l9.09,5.26c.54.3.47.85-.15,1.2l-3.93,2.28a2.3,2.3,0,0,1-2.09.08l-9.11-5.24c-.53-.32-.47-.85.15-1.22l4-2.28A2.39,2.39,0,0,1,496.83,395.19Z" transform="translate(-0.02)"/></g><path class="cls-19" d="M630.24,380.53l-240.81-139a10.66,10.66,0,0,1-4.41-11.9L439.47,52.82c1.36-4.38,5.51-6.17,9.31-4l240.8,139a10.67,10.67,0,0,1,4.4,11.9L639.53,376.53C638.19,380.88,634,382.65,630.24,380.53Z" transform="translate(-0.02)"/><path class="cls-20" d="M628,374.28l-233.56-135a10.22,10.22,0,0,1-4.22-11.38l52-169a5.93,5.93,0,0,1,7-4.55,5.83,5.83,0,0,1,1.87.75l233.56,135a10.21,10.21,0,0,1,4.22,11.39l-52,169C635.56,374.67,631.58,376.38,628,374.28Z" transform="translate(-0.02)"/><path class="cls-21" d="M628,374.28l-233.56-135a10.22,10.22,0,0,1-4.22-11.38l52-169a5.93,5.93,0,0,1,7-4.55,5.83,5.83,0,0,1,1.87.75l233.56,135a10.21,10.21,0,0,1,4.22,11.39l-52,169C635.56,374.67,631.58,376.38,628,374.28Z" transform="translate(-0.02)"/><path class="cls-22" d="M628,374.28l-233.56-135a10.22,10.22,0,0,1-4.22-11.38l52-169a5.93,5.93,0,0,1,7-4.55,5.83,5.83,0,0,1,1.87.75l233.56,135a10.21,10.21,0,0,1,4.22,11.39l-52,169C635.56,374.67,631.58,376.38,628,374.28Z" transform="translate(-0.02)"/><path class="cls-23" d="M615.41,322.63,457.3,231.34a7,7,0,0,1-2.9-7.82l35.76-116.08a4.06,4.06,0,0,1,4.82-3.12h0a3.82,3.82,0,0,1,1.26.5l158.1,91.29a7,7,0,0,1,2.9,7.81L621.52,320a4.07,4.07,0,0,1-4.83,3.12A4,4,0,0,1,615.41,322.63Z" transform="translate(-0.02)"/><path class="cls-24" d="M594,325.53l-158.1-91.39a7,7,0,0,1-2.89-7.8l35.75-116.1a4,4,0,0,1,4.69-3.16h.1a4.2,4.2,0,0,1,1.32.53L633,198.9a7,7,0,0,1,2.9,7.82L600.11,322.81a4.05,4.05,0,0,1-4.76,3.19h0A4.14,4.14,0,0,1,594,325.53Z" transform="translate(-0.02)"/><g class="cls-25"><path class="cls-26" d="M594,325.53l-158.1-91.39a7,7,0,0,1-2.89-7.8l35.75-116.1a4,4,0,0,1,4.69-3.16h.1a4.2,4.2,0,0,1,1.32.53L633,198.9a7,7,0,0,1,2.9,7.82L600.11,322.81a4.05,4.05,0,0,1-4.76,3.19h0A4.14,4.14,0,0,1,594,325.53Z" transform="translate(-0.02)"/></g><path class="cls-27" d="M633,198.9,474.91,107.63a4,4,0,0,0-4.45.15,4.3,4.3,0,0,1,2.27.58l158.11,91.28a7,7,0,0,1,2.91,7.81L598,323.53a4.66,4.66,0,0,1-1.67,2.46,4.21,4.21,0,0,0,3.83-3.2L635.9,206.7A7,7,0,0,0,633,198.9Z" transform="translate(-0.02)"/><path class="cls-21" d="M394.63,420.23a12,12,0,0,1-5.86-1.37h0l-63.32-36.57a4.6,4.6,0,0,1-2.61-3.9,6,6,0,0,1,3.5-4.84l32.59-18.83a14.57,14.57,0,0,1,13.39-.52l63.27,36.55a4.58,4.58,0,0,1,2.61,3.9,6,6,0,0,1-3.5,4.84l-32.59,18.83A15.17,15.17,0,0,1,394.63,420.23Zm-28.2-65.55a13.76,13.76,0,0,0-6.58,1.68l-32.61,18.83c-1.67,1-2.57,2.14-2.57,3.26a2.82,2.82,0,0,0,1.67,2.31l63.34,36.57a13,13,0,0,0,11.48-.5L433.78,398c1.68-1,2.58-2.14,2.58-3.35a2.89,2.89,0,0,0-1.67-2.31l-63.36-36.57a9.91,9.91,0,0,0-4.9-1.09Z" transform="translate(-0.02)"/><path class="cls-27" d="M513.42,168.53l-9.77-5.66a2.51,2.51,0,0,1-1.09-2.81h0a1.45,1.45,0,0,1,1.71-1.11,1.68,1.68,0,0,1,.48.2l9.84,5.63a2.55,2.55,0,0,1,1.09,2.81h0a1.44,1.44,0,0,1-1.66,1.17h0A1.34,1.34,0,0,1,513.42,168.53Z" transform="translate(-0.02)"/><path class="cls-27" d="M536.71,182l-14.42-8.37a2.53,2.53,0,0,1-1.08-2.81h0a1.43,1.43,0,0,1,1.66-1.13h0a1.28,1.28,0,0,1,.5.2l14.41,8.37a2.58,2.58,0,0,1,1.09,2.81h0a1.44,1.44,0,0,1-1.7,1.12A1.32,1.32,0,0,1,536.71,182Z" transform="translate(-0.02)"/><path class="cls-27" d="M493.7,212.06l-9.77-5.66a2.58,2.58,0,0,1-1.09-2.81h0a1.45,1.45,0,0,1,1.71-1.11,1.68,1.68,0,0,1,.48.2l9.78,5.64a2.59,2.59,0,0,1,1.09,2.82h0a1.47,1.47,0,0,1-1.74,1.1A1.3,1.3,0,0,1,493.7,212.06Z" transform="translate(-0.02)"/><path class="cls-27" d="M514.46,224,500,215.66a2.54,2.54,0,0,1-1.09-2.82h0a1.44,1.44,0,0,1,1.71-1.1,1.68,1.68,0,0,1,.48.2l14.41,8.37a2.55,2.55,0,0,1,1.09,2.81h0a1.43,1.43,0,0,1-1.69,1.11h0A1.6,1.6,0,0,1,514.46,224Z" transform="translate(-0.02)"/><path class="cls-27" d="M484.11,160.77,478,157.26a2.59,2.59,0,0,1-1.09-2.82h0a1.46,1.46,0,0,1,1.73-1.11,1.42,1.42,0,0,1,.48.19l6.11,3.54a2.52,2.52,0,0,1,1.07,2.81h0a1.42,1.42,0,0,1-1.68,1.1h0A1.11,1.11,0,0,1,484.11,160.77Z" transform="translate(-0.02)"/><path class="cls-27" d="M502.51,180.53,483.85,169.8a2.55,2.55,0,0,1-1.09-2.81h0a1.45,1.45,0,0,1,1.71-1.11h0a1.6,1.6,0,0,1,.47.19l18.64,10.77a2.55,2.55,0,0,1,1.09,2.81h0a1.44,1.44,0,0,1-1.74,1h0A1.78,1.78,0,0,1,502.51,180.53Z" transform="translate(-0.02)"/><path class="cls-27" d="M485.3,188.89l-6.11-3.51a2.59,2.59,0,0,1-1.08-2.85h0a1.45,1.45,0,0,1,1.7-1.12,1.69,1.69,0,0,1,.5.2l6.11,3.54A2.56,2.56,0,0,1,487.5,188h0a1.42,1.42,0,0,1-1.68,1.1h0A1.34,1.34,0,0,1,485.3,188.89Z" transform="translate(-0.02)"/><path class="cls-27" d="M516.7,243.63l-16.3-9.41a2.58,2.58,0,0,1-1.09-2.81h0a1.45,1.45,0,0,1,1.7-1.13,1.43,1.43,0,0,1,.49.21l16.32,9.42a2.55,2.55,0,0,1,1.09,2.81h0a1.45,1.45,0,0,1-1.71,1.11h0A1.69,1.69,0,0,1,516.7,243.63Z" transform="translate(-0.02)"/><path class="cls-27" d="M478.46,203.29,474.54,201a2.55,2.55,0,0,1-1.09-2.79h0a1.43,1.43,0,0,1,1.68-1.13h0a1.74,1.74,0,0,1,.49.2l3.92,2.26a2.53,2.53,0,0,1,1.09,2.82h0a1.47,1.47,0,0,1-1.77,1.09,1.28,1.28,0,0,1-.42-.17Z" transform="translate(-0.02)"/><path class="cls-27" d="M474.74,219.41l-4.85-2.82a2.51,2.51,0,0,1-1.09-2.81h0a1.42,1.42,0,0,1,1.68-1.1h0a1.2,1.2,0,0,1,.48.2l4.87,2.79a2.59,2.59,0,0,1,1.09,2.82h0a1.45,1.45,0,0,1-1.72,1.11h0A1.29,1.29,0,0,1,474.74,219.41Z" transform="translate(-0.02)"/><path class="cls-27" d="M493.69,230.34l-12.84-7.4a2.58,2.58,0,0,1-1.09-2.81h0a1.43,1.43,0,0,1,1.68-1.13h0a1.74,1.74,0,0,1,.49.2l12.84,7.42a2.55,2.55,0,0,1,1.09,2.81h0a1.45,1.45,0,0,1-1.71,1.11A1.63,1.63,0,0,1,493.69,230.34Z" transform="translate(-0.02)"/><path class="cls-27" d="M476.78,229.73l-9.24-5.34a2.51,2.51,0,0,1-1.07-2.79h0a1.44,1.44,0,0,1,1.7-1.12,1.24,1.24,0,0,1,.49.2l9.23,5.32a2.58,2.58,0,0,1,1.09,2.81h0a1.45,1.45,0,0,1-1.7,1.13A1.48,1.48,0,0,1,476.78,229.73Z" transform="translate(-0.02)"/><path class="cls-27" d="M530.7,251.83l-5.93-3.3a2.58,2.58,0,0,1-1.09-2.81h0a1.48,1.48,0,0,1,1.77-1.1,1.14,1.14,0,0,1,.44.18l5.93,3.34a2.59,2.59,0,0,1,1.09,2.82h0a1.36,1.36,0,0,1-1.56,1.15,1.31,1.31,0,0,1-.65-.28Z" transform="translate(-0.02)"/><path class="cls-27" d="M508,202l-16.31-9.42a2.53,2.53,0,0,1-1.09-2.81h0a1.45,1.45,0,0,1,1.71-1.11,1.43,1.43,0,0,1,.49.21l16.3,9.4a2.55,2.55,0,0,1,1.09,2.81h0a1.43,1.43,0,0,1-1.68,1.13h0A1.48,1.48,0,0,1,508,202Z" transform="translate(-0.02)"/><path class="cls-28" d="M509.94,194l-28.45-16.45a2.53,2.53,0,0,1-1.09-2.8h0a1.45,1.45,0,0,1,1.72-1.11h0a1.42,1.42,0,0,1,.48.19l28.5,16.44a2.58,2.58,0,0,1,1.09,2.81h0a1.45,1.45,0,0,1-1.72,1.12h0A1.62,1.62,0,0,1,509.94,194Z" transform="translate(-0.02)"/><path class="cls-28" d="M493.17,202.6l-16.3-9.36a2.55,2.55,0,0,1-1.09-2.81h0a1.42,1.42,0,0,1,1.68-1.1h0a1.2,1.2,0,0,1,.48.2l16.32,9.4a2.59,2.59,0,0,1,1.09,2.82h0a1.56,1.56,0,0,1-2,.95l-.22-.1Z" transform="translate(-0.02)"/><path class="cls-28" d="M520.39,209.16l-5.93-3.35a2.58,2.58,0,0,1-1.09-2.81h0a1.42,1.42,0,0,1,1.68-1.1h0a1.2,1.2,0,0,1,.48.2l5.93,3.35a2.51,2.51,0,0,1,1.09,2.81h0a1.46,1.46,0,0,1-1.75,1.09A1.33,1.33,0,0,1,520.39,209.16Z" transform="translate(-0.02)"/><path class="cls-28" d="M580.66,207.35,545.51,187.1a2.53,2.53,0,0,1-1.09-2.81h0a1.44,1.44,0,0,1,1.7-1.12,1.24,1.24,0,0,1,.49.2l35.15,20.25a2.51,2.51,0,0,1,1.09,2.81h0a1.45,1.45,0,0,1-1.71,1.11h0A1.66,1.66,0,0,1,580.66,207.35Z" transform="translate(-0.02)"/><path class="cls-29" d="M491.81,220.11l-19.6-11.32a2.55,2.55,0,0,1-1.09-2.79h0a1.44,1.44,0,0,1,1.7-1.12,1.28,1.28,0,0,1,.5.2l19.6,11.32a2.55,2.55,0,0,1,1.09,2.81h0a1.44,1.44,0,0,1-1.7,1.12A1.5,1.5,0,0,1,491.81,220.11Z" transform="translate(-0.02)"/><path class="cls-29" d="M494.78,157.76l-14.43-8.37a2.52,2.52,0,0,1-1.07-2.81h0a1.43,1.43,0,0,1,1.69-1.11h0a1.68,1.68,0,0,1,.48.2L495.88,154a2.58,2.58,0,0,1,1.09,2.81h0a1.43,1.43,0,0,1-1.69,1.11h0A1.6,1.6,0,0,1,494.78,157.76Z" transform="translate(-0.02)"/><path class="cls-28" d="M473.77,237.13,457,227.53a2.59,2.59,0,0,1-1.09-2.82h0a1.46,1.46,0,0,1,1.73-1.11,1.42,1.42,0,0,1,.48.19l16.74,9.65a2.58,2.58,0,0,1,1.09,2.81h0a1.42,1.42,0,0,1-1.67,1.12h0A1.34,1.34,0,0,1,473.77,237.13Z" transform="translate(-0.02)"/><path class="cls-27" d="M584.59,189.31l-7.13-4.13a1.85,1.85,0,0,1-.8-2h0a1,1,0,0,1,1.11-.88h.1a.94.94,0,0,1,.46.19l7.15,4.12a1.88,1.88,0,0,1,.79,2.06h0a1.06,1.06,0,0,1-1.22.87A1.11,1.11,0,0,1,584.59,189.31Z" transform="translate(-0.02)"/><path class="cls-27" d="M598.28,197.18l-7.17-4.12a1.89,1.89,0,0,1-.81-2.06h0a1.07,1.07,0,0,1,1.22-.87,1.12,1.12,0,0,1,.46.2l7.15,4.12a1.88,1.88,0,0,1,.8,2.06h0a1.05,1.05,0,0,1-1.21.86A1,1,0,0,1,598.28,197.18Z" transform="translate(-0.02)"/><path class="cls-27" d="M611.86,205l-7.15-4.11a1.83,1.83,0,0,1-.78-2.06h0a1,1,0,0,1,1.14-.83h.07a.84.84,0,0,1,.38.15l7.14,4.12a1.87,1.87,0,0,1,.81,2h0a1.06,1.06,0,0,1-1.25.82A.77.77,0,0,1,611.86,205Z" transform="translate(-0.02)"/><path class="cls-29" d="M618.55,208.91l-.21-.12a1.88,1.88,0,0,1-.79-2.06h0a1,1,0,0,1,1.08-.92,1,1,0,0,1,.59.26l.22.13a1.87,1.87,0,0,1,.79,2h0a1.07,1.07,0,0,1-1.21.87A1.1,1.1,0,0,1,618.55,208.91Z" transform="translate(-0.02)"/><ellipse class="cls-1" cx="249.54" cy="256.33" rx="32.87" ry="18.98"/><path class="cls-30" d="M298.29,121H204.55l8.76,101.38h0c0,5.64,3.71,11.26,11.16,15.56,14.88,8.59,39,8.59,53.9,0,7.43-4.3,11.15-9.92,11.15-15.56Z" transform="translate(-0.02)"/><path class="cls-21" d="M298.29,121H204.55L206,137.77a36.1,36.1,0,0,0,8.69,7.8c17.89,11.87,47.4,14.16,67.55,5.61l-3.12,74.15a14.61,14.61,0,0,1-3.35,8.86c-3,3.56-8.87,7.76-20.08,10.14A53.31,53.31,0,0,0,278.36,238c7.43-4.31,11.15-9.93,11.15-15.57l7-81.3h0Z" transform="translate(-0.02)"/><ellipse class="cls-21" cx="251.45" cy="121.05" rx="46.82" ry="27.03"/><ellipse class="cls-21" cx="251.45" cy="111.51" rx="40.32" ry="23.28"/><path class="cls-31" d="M301,119.76h0a.38.38,0,0,0,0-.15l-.89-9.07v.1c-.4-6.86-5.12-13.67-14.21-18.91-19-11-49.83-11-68.84,0-9.31,5.37-14.05,12.38-14.23,19.43h0l-.86,8.08V120h0c-.5,7.7,4.32,15.5,14.5,21.37,19.4,11.2,50.83,11.2,70.3,0C296.81,135.38,301.63,127.53,301,119.76Z" transform="translate(-0.02)"/><ellipse class="cls-32" cx="251.45" cy="111.51" rx="40.32" ry="23.28"/><ellipse class="cls-33" cx="249.54" cy="111.51" rx="40.32" ry="23.28"/><path class="cls-21" d="M227.73,98.53c15.76-9.09,41.28-9.09,57,0l.57.35a32,32,0,0,0-5.36-3.81c-15.75-9.11-41.27-9.11-57,0s-15.72,23.43-.57,32.55C212.27,118.59,214,106.42,227.73,98.53Z" transform="translate(-0.02)"/><path class="cls-34" d="M223,99.09c15.75-9.09,41.27-9.09,57,0,7,4,10.87,9.17,11.72,14.45,1-6.62-2.88-13.39-11.72-18.42-15.75-9.1-41.27-9.1-57,0-8.77,5-12.64,11.87-11.72,18.42C212.11,108.26,216,103.13,223,99.09Z" transform="translate(-0.02)"/><path class="cls-35" d="M286.18,91.88c-19-11.18-49.91-11.47-69.09-.62s-19.33,28.7-.35,39.89,49.91,11.46,69.09.61S305.17,103.06,286.18,91.88ZM280,128a52.52,52.52,0,0,1-18.41,6l-.73-2.41a2.31,2.31,0,0,0-2.21-1.68H244.11a2.31,2.31,0,0,0-2.21,1.68l-.74,2.41a53.07,53.07,0,0,1-18.41-6c-15.75-9.1-15.75-23.83,0-32.92s41.28-9.1,57,0,16,23.84.22,32.92Z" transform="translate(-0.02)"/><path class="cls-36" d="M280,93.33c-15.75-9.1-41.27-9.1-57,0-8.25,4.76-12.17,11.08-11.72,17.33.35-5.68,4.27-11.28,11.72-15.6,15.75-9.11,41.27-9.11,57,0,7.5,4.32,11.42,9.92,11.72,15.6C292.11,104.41,288.23,98.09,280,93.33Z" transform="translate(-0.02)"/><path class="cls-27" d="M285.83,130c-19.18,10.85-50.11,10.58-69.09-.62-9-5.3-13.73-12.15-14.1-19-.36,7.43,4.31,15,14.1,20.74,19,11.19,49.91,11.46,69.09.61,10-5.69,14.87-13.39,14.45-20.87C299.93,117.92,295.11,124.78,285.83,130Z" transform="translate(-0.02)"/><rect class="cls-37" x="246.03" y="132.93" width="10.85" height="2.34" rx="1.09"/><path class="cls-38" d="M255.79,133h-8.68a1.08,1.08,0,0,0-1.08,1.08h0v.15a1.61,1.61,0,0,0,0,.31,1.08,1.08,0,0,1,1-.81h8.66a1.08,1.08,0,0,1,1,.81,1.61,1.61,0,0,0,0-.31v-.15A1.09,1.09,0,0,0,255.79,133Z" transform="translate(-0.02)"/><path class="cls-39" d="M254.53,134.11s26.18-8.77,15.59-38.87S238.87,56,247.18,31.94c0,0-13,19.48-.85,45.83S261.18,101.1,261,113.7a22.75,22.75,0,0,1-12.27,20.41Z" transform="translate(-0.02)"/><path class="cls-39" d="M256.83,36.12S254.11,18.12,271,0c0,0-14.93,33.33-10,49.8C261,49.8,257,39.34,256.83,36.12Z" transform="translate(-0.02)"/><path class="cls-27" d="M240.84,188.22a9.24,9.24,0,0,1,2.29.72,5,5,0,0,1,1.43,1.07,3.93,3.93,0,0,1,.78,1.68,11.55,11.55,0,0,1,.24,2.49v8.24a2.76,2.76,0,0,0,.43,1.77,2.11,2.11,0,0,0,1.53.54v.65l-1.85-.19-2.41-.23c-.82,0-1.67-.17-2.39-.22l-1.79-.16v-.67a1.27,1.27,0,0,0,1.26-.29,2.94,2.94,0,0,0,.35-1.67v-9.68a5.91,5.91,0,0,0-.14-1.39,2.14,2.14,0,0,0-.52-1,2.23,2.23,0,0,0-1.17-.57,2.46,2.46,0,0,0-1.67.08,2.34,2.34,0,0,0-1.19,1,3.37,3.37,0,0,0-.45,1.78v8.88a3.47,3.47,0,0,0,.37,1.9,1.74,1.74,0,0,0,1.23.71v.67l-1.67-.4-2.11-.63-2.61-.59-2-.47v-.71a2.13,2.13,0,0,0,1.68,0c.33-.22.48-.82.48-1.67V189.44a5.22,5.22,0,0,0-.45-2.37,3.09,3.09,0,0,0-1.67-1.41v-.79c.72.37,1.41.69,2,1a22.11,22.11,0,0,0,2.53.72,15.73,15.73,0,0,0,2.26.4v2.95a3.34,3.34,0,0,1,2.18-1.68A7.64,7.64,0,0,1,240.84,188.22Zm10.19,1a8.15,8.15,0,0,1,2.31.25,3.68,3.68,0,0,1,1.43.77,3,3,0,0,1,.78,1.44,11.25,11.25,0,0,1,.24,2.45v8.25a2.24,2.24,0,0,0,.48,1.67,2.17,2.17,0,0,0,1.68.32V205l-1.93.08h-2.53l-2.41.1h-1.79v-.64a1.43,1.43,0,0,0,1.28-.43,3.17,3.17,0,0,0,.35-1.68V193a4.91,4.91,0,0,0-.15-1.32,1.7,1.7,0,0,0-.57-.89,2.25,2.25,0,0,0-1.31-.35,3,3,0,0,0-2.31.92,3.55,3.55,0,0,0-1,2.51c0-.64-.12-1.27-.17-1.89a4.55,4.55,0,0,1,2.43-2.3,9.42,9.42,0,0,1,3.21-.41Z" transform="translate(-0.02)"/><path class="cls-27" d="M265.86,186.87a8.93,8.93,0,0,1,2.46-.47,4.39,4.39,0,0,1,1.53.12c.75.21,1.22-.31,1.39-1.56l.7-.29c0,.64-.08,1.43-.1,2.33s0,2.11,0,3.6l-.7.27a8,8,0,0,0-.62-2.2,2.93,2.93,0,0,0-1.36-1.44,3.12,3.12,0,0,0-2.29,0,4,4,0,0,0-1.68,1,2.37,2.37,0,0,0-.66,1.67,2,2,0,0,0,.6,1.52,5,5,0,0,0,1.55.94l2,.82a13.7,13.7,0,0,1,2.81,1.54,3.34,3.34,0,0,1,1.15,2.9,5.38,5.38,0,0,1-.87,2.89,7.83,7.83,0,0,1-2.29,2.33,8.83,8.83,0,0,1-3.16,1.29,7.69,7.69,0,0,1-1.79.15,6.43,6.43,0,0,1-1.38-.24l-.82-.23c-.25-.08-.5-.13-.72-.19a.56.56,0,0,0-.58.31,2.61,2.61,0,0,0-.4.92l-.71.08c0-.67.09-1.47.1-2.43s0-2.21,0-3.8c.24,0,.47-.08.71-.1a10.18,10.18,0,0,0,.73,2.87,4,4,0,0,0,1.46,1.79,3.14,3.14,0,0,0,2.34.33,3.21,3.21,0,0,0,1.68-.87,2.45,2.45,0,0,0,.73-1.92,2.48,2.48,0,0,0-.94-2.13,16.63,16.63,0,0,0-2.44-1.44c-.72-.4-1.39-.8-2-1.22a5.64,5.64,0,0,1-1.58-1.46,3.48,3.48,0,0,1-.6-2,4.15,4.15,0,0,1,.82-2.51,7.41,7.41,0,0,1,2.14-1.92A11.46,11.46,0,0,1,265.86,186.87Z" transform="translate(-0.02)"/></svg>