<svg id="Warstwa_1" data-name="Warstwa 1" xmlns="http://www.w3.org/2000/svg" xmlns:xlink="http://www.w3.org/1999/xlink" viewBox="0 0 856.58 588.7"><defs><style>.cls-1{fill:url(#Gradient_bez_nazwy_11);}.cls-2{fill:url(#Gradient_bez_nazwy_11-2);}.cls-3{fill:url(#Gradient_bez_nazwy_11-3);}.cls-4{fill:url(#Gradient_bez_nazwy_11-4);}.cls-5{fill:url(#Gradient_bez_nazwy_11-5);}.cls-6{fill:url(#Gradient_bez_nazwy_11-6);}.cls-7{fill:url(#Gradient_bez_nazwy_11-7);}.cls-8{fill:url(#Gradient_bez_nazwy_11-8);}.cls-9{fill:url(#Gradient_bez_nazwy_11-9);}.cls-10{fill:#14152c;opacity:0.6;}.cls-10,.cls-20,.cls-21,.cls-35{isolation:isolate;}.cls-11{fill:url(#Gradient_bez_nazwy_11-10);}.cls-12{fill:url(#Gradient_bez_nazwy_5);}.cls-13{fill:url(#Gradient_bez_nazwy_6);}.cls-14{fill:url(#Gradient_bez_nazwy_10);}.cls-15,.cls-35{fill:#fff;}.cls-16,.cls-20{opacity:0.4;}.cls-17,.cls-20,.cls-21{fill:#1a1a38;}.cls-18{fill:url(#Gradient_bez_nazwy_10-2);}.cls-19{fill:url(#Gradient_bez_nazwy_9);}.cls-21,.cls-23,.cls-35{opacity:0.5;}.cls-22{fill:url(#Gradient_bez_nazwy_10-3);}.cls-24{fill:#e8975b;}.cls-25{fill:#e64491;}.cls-26{fill:url(#Gradient_bez_nazwy_11-11);}.cls-27{fill:url(#Gradient_bez_nazwy_12);}.cls-28{fill:url(#Gradient_bez_nazwy_13);}.cls-29{fill:url(#Gradient_bez_nazwy_15);}.cls-30{fill:url(#Gradient_bez_nazwy_15-2);}.cls-31{fill:url(#Gradient_bez_nazwy_18);}.cls-32{fill:url(#Gradient_bez_nazwy_17);}.cls-33{fill:#272d66;}.cls-34{fill:url(#Gradient_bez_nazwy_18-2);}</style><linearGradient id="Gradient_bez_nazwy_11" x1="887.77" y1="285.11" x2="942.38" y2="285.11" gradientTransform="matrix(1, 0, 0, -1, -75.19, 964.45)" gradientUnits="userSpaceOnUse"><stop offset="0" stop-color="#e39a65"/><stop offset="1" stop-color="#e9608d"/></linearGradient><linearGradient id="Gradient_bez_nazwy_11-2" x1="691.42" y1="186.46" x2="824.63" y2="186.46" xlink:href="#Gradient_bez_nazwy_11"/><linearGradient id="Gradient_bez_nazwy_11-3" x1="447.57" y1="586.21" x2="580.78" y2="586.21" xlink:href="#Gradient_bez_nazwy_11"/><linearGradient id="Gradient_bez_nazwy_11-4" x1="813.05" y1="359.92" x2="904.74" y2="359.92" xlink:href="#Gradient_bez_nazwy_11"/><linearGradient id="Gradient_bez_nazwy_11-5" x1="901.99" y1="435.3" x2="993.68" y2="435.3" xlink:href="#Gradient_bez_nazwy_11"/><linearGradient id="Gradient_bez_nazwy_11-6" x1="644" y1="590.54" x2="884.77" y2="590.54" xlink:href="#Gradient_bez_nazwy_11"/><linearGradient id="Gradient_bez_nazwy_11-7" x1="237.04" y1="501.97" x2="322.49" y2="501.97" xlink:href="#Gradient_bez_nazwy_11"/><linearGradient id="Gradient_bez_nazwy_11-8" x1="137.1" y1="409.79" x2="279.76" y2="409.79" xlink:href="#Gradient_bez_nazwy_11"/><linearGradient id="Gradient_bez_nazwy_11-9" x1="208.43" y1="329.19" x2="300.1" y2="329.19" xlink:href="#Gradient_bez_nazwy_11"/><linearGradient id="Gradient_bez_nazwy_11-10" x1="315.24" y1="335.05" x2="804.53" y2="335.05" xlink:href="#Gradient_bez_nazwy_11"/><radialGradient id="Gradient_bez_nazwy_5" cx="585.47" cy="697.38" r="373.76" gradientTransform="matrix(1, 0, 0, -1, -75.19, 964.45)" gradientUnits="userSpaceOnUse"><stop offset="0" stop-color="#e39a65"/><stop offset="0.47" stop-color="#6f4a98"/><stop offset="0.59" stop-color="#5c4797"/><stop offset="0.74" stop-color="#4c4797"/><stop offset="0.8" stop-color="#272c60"/></radialGradient><radialGradient id="Gradient_bez_nazwy_6" cx="356.86" cy="397.23" r="408.7" gradientTransform="matrix(1, 0, 0, -1, -75.19, 964.45)" gradientUnits="userSpaceOnUse"><stop offset="0" stop-color="#e39a65"/><stop offset="0.47" stop-color="#6f4a98"/><stop offset="0.57" stop-color="#5c4797"/><stop offset="0.68" stop-color="#4c4797"/><stop offset="0.74" stop-color="#272c60"/></radialGradient><radialGradient id="Gradient_bez_nazwy_10" cx="394.46" cy="479.26" r="366.5" gradientTransform="matrix(1, 0, 0, -1, -75.19, 964.45)" gradientUnits="userSpaceOnUse"><stop offset="0" stop-color="#e39a65"/><stop offset="0.47" stop-color="#6f4a98"/><stop offset="0.59" stop-color="#5c4797"/><stop offset="0.73" stop-color="#4c4797"/><stop offset="1" stop-color="#3b3c90"/></radialGradient><radialGradient id="Gradient_bez_nazwy_10-2" cx="485.76" cy="619.43" r="373.83" xlink:href="#Gradient_bez_nazwy_10"/><linearGradient id="Gradient_bez_nazwy_9" x1="526.86" y1="521.29" x2="826.41" y2="521.29" gradientTransform="matrix(1, 0, 0, -1, -75.19, 964.45)" gradientUnits="userSpaceOnUse"><stop offset="0" stop-color="#3b3c90"/><stop offset="1" stop-color="#4c4797"/></linearGradient><radialGradient id="Gradient_bez_nazwy_10-3" cx="349.3" cy="699.26" r="582.24" xlink:href="#Gradient_bez_nazwy_10"/><linearGradient id="Gradient_bez_nazwy_11-11" x1="322.68" y1="480.31" x2="451.17" y2="480.31" xlink:href="#Gradient_bez_nazwy_11"/><radialGradient id="Gradient_bez_nazwy_12" cx="334.02" cy="585.13" r="276.77" gradientTransform="matrix(1, 0, 0, -1, -75.19, 964.45)" gradientUnits="userSpaceOnUse"><stop offset="0" stop-color="#e39a65"/><stop offset="0.15" stop-color="#6f4a98"/><stop offset="0.41" stop-color="#3b3c90"/><stop offset="0.93" stop-color="#3b3c90"/></radialGradient><linearGradient id="Gradient_bez_nazwy_13" x1="338.9" y1="619.35" x2="438.18" y2="619.35" gradientTransform="matrix(1, 0, 0, -1, -75.19, 964.45)" gradientUnits="userSpaceOnUse"><stop offset="0" stop-color="#e39a65"/><stop offset="0.25" stop-color="#6f4a98"/><stop offset="0.56" stop-color="#3b3c90"/></linearGradient><linearGradient id="Gradient_bez_nazwy_15" x1="273.04" y1="662.02" x2="353.68" y2="662.02" gradientTransform="matrix(1, 0, 0, -1, -61.91, 773.53)" gradientUnits="userSpaceOnUse"><stop offset="0" stop-color="#424898"/><stop offset="1" stop-color="#6f4a98"/></linearGradient><linearGradient id="Gradient_bez_nazwy_15-2" x1="271.13" y1="662.02" x2="351.77" y2="662.02" xlink:href="#Gradient_bez_nazwy_15"/><linearGradient id="Gradient_bez_nazwy_18" x1="348.18" y1="635.06" x2="449.86" y2="635.06" gradientTransform="matrix(1, 0, 0, -1, -75.19, 964.45)" gradientUnits="userSpaceOnUse"><stop offset="0" stop-color="#262857"/><stop offset="0.19" stop-color="#262859"/><stop offset="0.28" stop-color="#282a5f"/><stop offset="0.36" stop-color="#2c2a6b"/><stop offset="0.42" stop-color="#30277a"/><stop offset="0.48" stop-color="#3d3189"/><stop offset="0.54" stop-color="#473c90"/><stop offset="0.58" stop-color="#4f4395"/><stop offset="0.61" stop-color="#524697"/><stop offset="0.62" stop-color="#564596"/><stop offset="0.68" stop-color="#7d4896"/><stop offset="0.75" stop-color="#b85e9e"/><stop offset="0.81" stop-color="#cc7680"/><stop offset="0.88" stop-color="#dd896d"/><stop offset="0.94" stop-color="#e5935f"/><stop offset="1" stop-color="#e8975b"/></linearGradient><radialGradient id="Gradient_bez_nazwy_17" cx="326.52" cy="647.52" r="181.04" gradientTransform="matrix(1, 0, 0, -1, -75.19, 964.45)" gradientUnits="userSpaceOnUse"><stop offset="0" stop-color="#e39a65"/><stop offset="0.25" stop-color="#6f4a98"/><stop offset="0.74" stop-color="#3b3c90"/></radialGradient><linearGradient id="Gradient_bez_nazwy_18-2" x1="382.16" y1="602.22" x2="396.23" y2="602.22" xlink:href="#Gradient_bez_nazwy_18"/></defs><path class="cls-1" d="M839.88,695.4a11.79,11.79,0,0,1-5.83-1.57l-19.63-11.34a3.62,3.62,0,0,1-1.36-5,3.7,3.7,0,0,1,1.36-1.36l19.63-11.33a11.74,11.74,0,0,1,11.72,0l19.58,11.28a3.65,3.65,0,0,1,1.36,5,3.6,3.6,0,0,1-1.36,1.35l-19.63,11.34A11.77,11.77,0,0,1,839.88,695.4Zm0-29a8.41,8.41,0,0,0-4.27,1.14L816,678.88a.5.5,0,0,0-.26.47.51.51,0,0,0,.26.45l19.64,11.4h0a8.59,8.59,0,0,0,8.55,0l19.64-11.33a.52.52,0,0,0,.26-.45.51.51,0,0,0-.26-.47l-19.64-11.34A8.47,8.47,0,0,0,839.88,666.41Z" transform="translate(-61.91 -228.47)"/><path class="cls-2" d="M682.82,817.17a28.6,28.6,0,0,1-14.21-3.84l-47.9-27.65a8.86,8.86,0,0,1,0-15.39l47.9-27.65a28.61,28.61,0,0,1,28.58,0L745,770.17a8.86,8.86,0,0,1,0,15.39l-47.9,27.65A28.7,28.7,0,0,1,682.82,817.17Zm0-70.73a20.65,20.65,0,0,0-10.41,2.78l-47.9,27.64a1.27,1.27,0,0,0-.66,1.15,1.24,1.24,0,0,0,.66,1.1l47.9,27.81h0a20.89,20.89,0,0,0,20.86,0l47.9-27.65a1.28,1.28,0,0,0,.66-1.1,1.27,1.27,0,0,0-.66-1.14l-47.9-27.65A20.7,20.7,0,0,0,682.82,746.44Z" transform="translate(-61.91 -228.47)"/><path class="cls-3" d="M439,417.42a28.6,28.6,0,0,1-14.21-3.84l-47.9-27.65a8.86,8.86,0,0,1,0-15.39l47.9-27.65a28.61,28.61,0,0,1,28.58,0l47.78,27.53a8.86,8.86,0,0,1,0,15.39l-47.9,27.65A28.7,28.7,0,0,1,439,417.42Zm0-70.73a20.72,20.72,0,0,0-10.42,2.78l-47.9,27.64a1.28,1.28,0,0,0-.65,1.15,1.25,1.25,0,0,0,.65,1.1l47.9,27.81h0a20.91,20.91,0,0,0,20.87,0l47.9-27.65a1.25,1.25,0,0,0,.65-1.1,1.24,1.24,0,0,0-.65-1.14l-47.9-27.65A20.7,20.7,0,0,0,439,346.69Z" transform="translate(-61.91 -228.47)"/><path class="cls-4" d="M783.7,631a18.86,18.86,0,0,1-9.47-2.52L740.42,609a5.16,5.16,0,0,1-1.86-7.05,5.08,5.08,0,0,1,1.86-1.85l33.81-19.52a19,19,0,0,1,18.93,0L827,600.08a5.13,5.13,0,0,1,1.89,7A5,5,0,0,1,827,609L793.16,628.5A18.8,18.8,0,0,1,783.7,631Zm-7.91-5.22a15.88,15.88,0,0,0,15.81,0l33.81-19.51a2,2,0,0,0,1-1.68,1.93,1.93,0,0,0-1-1.67L791.6,583.4a15.88,15.88,0,0,0-15.81,0L742,602.94a1.9,1.9,0,0,0,0,3.35Z" transform="translate(-61.91 -228.47)"/><path class="cls-5" d="M872.64,555.64a18.77,18.77,0,0,1-9.47-2.53L829.36,533.6a5.15,5.15,0,0,1-1.85-7.05,5.08,5.08,0,0,1,1.85-1.86l33.81-19.51a19,19,0,0,1,18.93,0l33.81,19.51a5.14,5.14,0,0,1,0,8.91L882.1,553.11A18.7,18.7,0,0,1,872.64,555.64Zm-7.91-5.22a15.88,15.88,0,0,0,15.81,0l33.82-19.52a2,2,0,0,0,1-1.67,1.92,1.92,0,0,0-1-1.67L880.54,508a15.88,15.88,0,0,0-15.81,0l-33.81,19.54a1.89,1.89,0,0,0,0,3.34Z" transform="translate(-61.91 -228.47)"/><path class="cls-6" d="M689.2,443.49a49.68,49.68,0,0,1-24.88-6.64L575.53,385.6a13.54,13.54,0,0,1,0-23.39L664.32,311A49.9,49.9,0,0,1,714,311l88.79,51.25a13.5,13.5,0,0,1,0,23.39L714,436.85A49.55,49.55,0,0,1,689.2,443.49Zm-20.8-13.72a41.69,41.69,0,0,0,41.54,0l88.79-51.25a5.14,5.14,0,0,0,2.64-4.4,5.07,5.07,0,0,0-2.64-4.39l-88.79-51.3a41.74,41.74,0,0,0-41.54,0l-88.79,51.3a5.18,5.18,0,0,0-2.63,4.39,5.26,5.26,0,0,0,2.63,4.4Z" transform="translate(-61.91 -228.47)"/><path class="cls-7" d="M204.57,487.18a17.67,17.67,0,0,1-8.83-2.36l-31.51-18.19a4.8,4.8,0,0,1,0-8.3l31.51-18.19a17.76,17.76,0,0,1,17.65,0l31.51,18.19a4.79,4.79,0,0,1,0,8.3l-31.51,18.19A17.6,17.6,0,0,1,204.57,487.18Zm-7.38-4.87a14.82,14.82,0,0,0,14.75,0l31.51-18.19a1.77,1.77,0,0,0,0-3.12l-31.51-18.21a14.82,14.82,0,0,0-14.75,0L165.68,461a1.83,1.83,0,0,0-.93,1.56,1.86,1.86,0,0,0,.93,1.56Z" transform="translate(-61.91 -228.47)"/><path class="cls-8" d="M133.24,595.89A29.44,29.44,0,0,1,118.5,592L65.89,561.59a8,8,0,0,1,0-13.86l52.61-30.37a29.62,29.62,0,0,1,29.46,0l52.61,30.37a8,8,0,0,1,0,13.86L148,592A29.37,29.37,0,0,1,133.24,595.89Zm-12.32-8.13a24.69,24.69,0,0,0,24.61,0l52.62-30.36a3.06,3.06,0,0,0,1.56-2.61,3,3,0,0,0-1.56-2.6l-52.62-30.4a24.74,24.74,0,0,0-24.61,0l-52.61,30.4a3.06,3.06,0,0,0-1.56,2.6,3.11,3.11,0,0,0,1.56,2.61Z" transform="translate(-61.91 -228.47)"/><path class="cls-9" d="M179.07,661.76a19.14,19.14,0,0,1-9.46-2.53L135.8,639.7a5.14,5.14,0,0,1,0-8.89l33.81-19.52a18.94,18.94,0,0,1,18.93,0l33.81,19.52a5.14,5.14,0,0,1,0,8.89l-33.81,19.53A19.08,19.08,0,0,1,179.07,661.76Zm0-49.88a15.76,15.76,0,0,0-7.9,2.11L137.36,633.5a2,2,0,0,0-1,1.76,1.93,1.93,0,0,0,1,1.67l33.81,19.52h0a15.8,15.8,0,0,0,15.82,0l33.81-19.52a2,2,0,0,0,1-1.67,2,2,0,0,0-1-1.76L187,614a15.74,15.74,0,0,0-7.92-2.11Z" transform="translate(-61.91 -228.47)"/><path class="cls-10" d="M521.45,746.9,279.7,607.32c-3.53-2-3.08-5.57,1-7.93l155.19-89.58c4.07-2.35,10.21-2.6,13.75-.57L691.37,648.82c3.52,2,3.08,5.59-1,7.93L535.22,746.33C531.12,748.68,525,749,521.45,746.9Z" transform="translate(-61.91 -228.47)"/><path class="cls-11" d="M527,772.11a15.56,15.56,0,0,1-7.62-1.79h0L243.48,611a6.14,6.14,0,0,1-3.43-5.19c0-2.42,1.67-4.78,4.62-6.47L432.74,489.17c5.17-3,12.73-3.35,17.25-.67L725.84,647.68a6.19,6.19,0,0,1,3.5,5.29c0,2.41-1.68,4.77-4.62,6.48L536.63,769.67A19.79,19.79,0,0,1,527,772.11ZM442.36,489.77a16.8,16.8,0,0,0-8.12,2L246.17,602c-1.94,1.1-3.08,2.51-3.08,3.76a3.37,3.37,0,0,0,1.94,2.6l275.9,159.3h0c3.51,2,10,1.67,14.13-.66L723.13,656.78c1.92-1.12,3.08-2.52,3.08-3.78a3.34,3.34,0,0,0-1.94-2.59L448.37,491.13A12.17,12.17,0,0,0,442.36,489.77Z" transform="translate(-61.91 -228.47)"/><path class="cls-12" d="M755.58,414.82l-240.81-139a6.21,6.21,0,0,0-4.92-.7h0l-4.47,1.54L507,277a7.7,7.7,0,0,0-1.47,2.75L451,456.58a10.64,10.64,0,0,0,4.42,11.9l240.86,139a7,7,0,0,0,1.77.72l-.6,1.3,4.25-1.5h0a6.71,6.71,0,0,0,3.87-4.51L760,426.74A10.68,10.68,0,0,0,755.58,414.82Z" transform="translate(-61.91 -228.47)"/><path class="cls-13" d="M687.61,614.1l.08.1L449.84,477c-3.5-2-9.61-1.76-13.64.57L282.53,566.23l-5.12-2,1.42,7.18h0a4.25,4.25,0,0,0,2.31,2.88L521.25,713c3.5,2,9.61,1.76,13.64-.57L689,623.44a6.2,6.2,0,0,0,3.27-3.8h0l1.42-7.11Z" transform="translate(-61.91 -228.47)"/><path class="cls-14" d="M521.45,706.55,279.7,567c-3.53-2-3.08-5.59,1-7.94l155.19-89.58c4.07-2.34,10.21-2.59,13.75-.57L691.37,608.46c3.52,2,3.08,5.59-1,7.94L535.22,706C531.12,708.32,525,708.59,521.45,706.55Z" transform="translate(-61.91 -228.47)"/><path class="cls-15" d="M690.3,614.52,535.14,704.1c-4.07,2.35-10.21,2.6-13.74.57L279.7,565.09a4.44,4.44,0,0,1-2.19-2.51A3.77,3.77,0,0,0,279.7,567L521.45,706.55c3.53,2,9.67,1.77,13.74-.57L690.3,616.4c2.68-1.54,3.75-3.62,3.18-5.43A6.37,6.37,0,0,1,690.3,614.52Z" transform="translate(-61.91 -228.47)"/><g class="cls-16"><path class="cls-17" d="M395,544.32l-8.15-4.7c-.67-.39-.59-1.06.16-1.49l9.65-5.56a2.82,2.82,0,0,1,2.56-.1l8.2,4.74c.67.38.58,1-.19,1.47l-9.62,5.57A2.8,2.8,0,0,1,395,544.32Z" transform="translate(-61.91 -228.47)"/><path class="cls-17" d="M407.61,551.6l-8.15-4.72c-.67-.37-.59-1,.18-1.47l9.63-5.56a2.82,2.82,0,0,1,2.56-.1l8.15,4.7c.67.39.59,1-.18,1.48l-9.63,5.57A2.88,2.88,0,0,1,407.61,551.6Z" transform="translate(-61.91 -228.47)"/><path class="cls-17" d="M420.22,559l-8.16-4.72c-.66-.37-.58-1,.19-1.48l9.62-5.55a2.88,2.88,0,0,1,2.56-.12l8.16,4.72c.67.37.58,1-.19,1.47l-9.62,5.56A2.88,2.88,0,0,1,420.22,559Z" transform="translate(-61.91 -228.47)"/><path class="cls-17" d="M437.66,552.87l-8.17-4.72c-.65-.38-.57-1,.18-1.47l8.09-4.67a2.82,2.82,0,0,1,2.56-.1l8.17,4.7c.65.39.57,1-.19,1.48l-8.1,4.67A2.84,2.84,0,0,1,437.66,552.87Z" transform="translate(-61.91 -228.47)"/><path class="cls-17" d="M450.26,560.14l-8.17-4.7c-.65-.39-.57-1,.19-1.48l8.08-4.67a2.88,2.88,0,0,1,2.56-.11l8.17,4.72c.65.36.57,1-.18,1.47l-8.1,4.67A2.8,2.8,0,0,1,450.26,560.14Z" transform="translate(-61.91 -228.47)"/><path class="cls-17" d="M462.86,567.42l-8.16-4.7c-.66-.39-.57-1.06.18-1.49l8.09-4.67a2.85,2.85,0,0,1,2.56-.1l8.16,4.72c.66.36.57,1-.18,1.47l-8.1,4.69A2.83,2.83,0,0,1,462.86,567.42Z" transform="translate(-61.91 -228.47)"/><path class="cls-17" d="M475.47,574.7,467.3,570c-.65-.37-.57-1,.18-1.47l8.09-4.67a2.82,2.82,0,0,1,2.56-.1l8.17,4.7c.65.39.57,1-.19,1.49L478,574.6A2.84,2.84,0,0,1,475.47,574.7Z" transform="translate(-61.91 -228.47)"/><path class="cls-17" d="M488.07,582l-8.17-4.72c-.65-.37-.56-1,.19-1.47l8.08-4.67a2.82,2.82,0,0,1,2.56-.1l8.17,4.7c.66.39.57,1-.18,1.47l-8.09,4.67A2.88,2.88,0,0,1,488.07,582Z" transform="translate(-61.91 -228.47)"/><path class="cls-17" d="M500.68,589.25l-8.17-4.71c-.65-.38-.57-1,.18-1.47l8.09-4.67a2.88,2.88,0,0,1,2.56-.12l8.17,4.72c.65.39.57,1-.19,1.48l-8.08,4.62A2.85,2.85,0,0,1,500.68,589.25Z" transform="translate(-61.91 -228.47)"/><path class="cls-17" d="M513.28,596.53l-8.17-4.71c-.65-.38-.57-1,.19-1.49l8.08-4.58a2.88,2.88,0,0,1,2.56-.1l8.17,4.72c.65.37.57,1-.18,1.47l-8.09,4.67A2.85,2.85,0,0,1,513.28,596.53Z" transform="translate(-61.91 -228.47)"/><path class="cls-17" d="M525.88,603.81l-8.16-4.67c-.66-.37-.57-1,.18-1.47L526,593a2.84,2.84,0,0,1,2.57-.1l8.16,4.7c.66.38.57,1-.18,1.49l-8.08,4.67A2.87,2.87,0,0,1,525.88,603.81Z" transform="translate(-61.91 -228.47)"/><path class="cls-17" d="M538.49,611.09l-8.17-4.72c-.65-.37-.57-1,.18-1.47l8.09-4.67a2.82,2.82,0,0,1,2.56-.1l8.17,4.7c.65.38.57,1-.19,1.47L541.05,611A2.88,2.88,0,0,1,538.49,611.09Z" transform="translate(-61.91 -228.47)"/><path class="cls-17" d="M551.09,618.35l-8.08-4.7c-.66-.38-.57-1,.18-1.47l8.09-4.67a2.88,2.88,0,0,1,2.56-.12l8.17,4.72c.65.39.56,1-.19,1.47l-8.08,4.67A2.83,2.83,0,0,1,551.09,618.35Z" transform="translate(-61.91 -228.47)"/><path class="cls-17" d="M456.22,549.43l-8.15-4.72c-.67-.37-.59-1,.18-1.48l8.09-4.67a2.81,2.81,0,0,1,2.54-.1l8.17,4.71c.65.38.57,1-.18,1.47l-8.09,4.67A2.85,2.85,0,0,1,456.22,549.43Z" transform="translate(-61.91 -228.47)"/><path class="cls-17" d="M443.43,542l-8.17-4.72c-.65-.38-.57-1,.19-1.47l8.08-4.67a2.82,2.82,0,0,1,2.56-.1l8.17,4.7c.65.39.57,1-.18,1.48l-8.15,4.67A2.92,2.92,0,0,1,443.43,542Z" transform="translate(-61.91 -228.47)"/><path class="cls-17" d="M430.61,534.65,413,524.49c-.66-.37-.57-1,.18-1.48l8.08-4.67a2.87,2.87,0,0,1,2.57-.1l17.57,10.15c.65.38.59,1-.18,1.47l-8.09,4.67A2.92,2.92,0,0,1,430.61,534.65Z" transform="translate(-61.91 -228.47)"/><path class="cls-17" d="M439.58,525.64l-14.28-8.23c-.65-.39-.56-1,.19-1.48l8.08-4.67a2.85,2.85,0,0,1,2.56-.1l14.27,8.24c.66.37.58,1-.19,1.47l-8.08,4.62A2.8,2.8,0,0,1,439.58,525.64Z" transform="translate(-61.91 -228.47)"/><path class="cls-17" d="M468.82,556.71,460.67,552c-.67-.39-.58-1,.19-1.48l8.08-4.67a2.83,2.83,0,0,1,2.55-.1l8.16,4.71c.66.38.57,1-.18,1.47l-8.09,4.67A2.88,2.88,0,0,1,468.82,556.71Z" transform="translate(-61.91 -228.47)"/><path class="cls-17" d="M481.43,564l-8.15-4.7c-.67-.39-.59-1,.18-1.48l8.08-4.67a2.9,2.9,0,0,1,2.55-.12l8.17,4.73c.65.36.57,1-.19,1.47L484,563.89A2.82,2.82,0,0,1,481.43,564Z" transform="translate(-61.91 -228.47)"/><path class="cls-17" d="M494,571.25l-8.15-4.7c-.65-.39-.59-1.06.18-1.49l8.09-4.67a2.82,2.82,0,0,1,2.56-.1l8.15,4.72c.65.37.57,1-.18,1.47l-8.09,4.67A2.82,2.82,0,0,1,494,571.25Z" transform="translate(-61.91 -228.47)"/><path class="cls-17" d="M506.64,578.53l-8.16-4.72c-.65-.36-.58-1,.19-1.47l8.08-4.67a2.82,2.82,0,0,1,2.56-.1l8.15,4.7c.66.39.57,1-.18,1.49l-8.08,4.66A2.85,2.85,0,0,1,506.64,578.53Z" transform="translate(-61.91 -228.47)"/><path class="cls-17" d="M519.24,585.75,511.09,581c-.66-.39-.59-1,.18-1.48l8.09-4.66a2.82,2.82,0,0,1,2.56-.11l8.15,4.71c.65.38.57,1-.19,1.47l-8.08,4.79A2.88,2.88,0,0,1,519.24,585.75Z" transform="translate(-61.91 -228.47)"/><path class="cls-17" d="M531.84,593.08l-8.15-4.7c-.65-.39-.58-1,.19-1.48l8.08-4.67a2.88,2.88,0,0,1,2.56-.11l8.15,4.72c.66.36.57,1-.18,1.47L534.4,593A2.82,2.82,0,0,1,531.84,593.08Z" transform="translate(-61.91 -228.47)"/><path class="cls-17" d="M544.45,600.36l-8.14-4.7c-.65-.39-.57-1.06.19-1.49l8.08-4.67a2.82,2.82,0,0,1,2.56-.1l8.15,4.72c.66.37.57,1-.18,1.47L547,600.26A2.81,2.81,0,0,1,544.45,600.36Z" transform="translate(-61.91 -228.47)"/><path class="cls-17" d="M557.05,607.64l-8.15-4.72c-.65-.37-.57-1,.18-1.47l8.09-4.67a2.82,2.82,0,0,1,2.56-.1l8.15,4.7c.65.39.59,1-.18,1.49l-8.09,4.64A2.88,2.88,0,0,1,557.05,607.64Z" transform="translate(-61.91 -228.47)"/><path class="cls-17" d="M569.65,614.92l-8.15-4.72c-.65-.38-.57-1,.19-1.47l8.08-4.67a2.82,2.82,0,0,1,2.56-.1l8.15,4.7c.66.39.59,1-.18,1.48l-8.08,4.67A2.94,2.94,0,0,1,569.65,614.92Z" transform="translate(-61.91 -228.47)"/><path class="cls-17" d="M592.07,627.86l-17.81-10.31c-.66-.37-.57-1,.18-1.47l8.09-4.67a2.82,2.82,0,0,1,2.56-.1l17.81,10.27c.65.39.57,1-.19,1.48l-8.08,4.67A2.88,2.88,0,0,1,592.07,627.86Z" transform="translate(-61.91 -228.47)"/><path class="cls-17" d="M616.66,613.68,601.59,605c-.65-.38-.57-1,.19-1.49l8.08-4.67a2.92,2.92,0,0,1,2.56-.1l15.07,8.69c.65.37.56,1-.19,1.47l-8.08,4.67A2.82,2.82,0,0,1,616.66,613.68Z" transform="translate(-61.91 -228.47)"/><path class="cls-17" d="M490.9,555.27l-8.15-4.67c-.65-.39-.57-1,.18-1.48l8.09-4.66a2.88,2.88,0,0,1,2.56-.12l8.17,4.72c.65.38.57,1-.19,1.47l-8.08,4.67A2.83,2.83,0,0,1,490.9,555.27Z" transform="translate(-61.91 -228.47)"/><path class="cls-17" d="M478,547.82l-8.15-4.72c-.67-.37-.59-1,.18-1.47L478.1,537a2.78,2.78,0,0,1,2.54-.1l8.17,4.7c.65.38.57,1.05-.18,1.49l-8.09,4.67A2.88,2.88,0,0,1,478,547.82Z" transform="translate(-61.91 -228.47)"/><path class="cls-17" d="M465.06,540.35l-8.15-4.7c-.66-.38-.57-1,.18-1.47l8.08-4.67a2.9,2.9,0,0,1,2.57-.12l8.15,4.72c.65.37.58,1-.19,1.47l-8,4.67A2.82,2.82,0,0,1,465.06,540.35Z" transform="translate(-61.91 -228.47)"/><path class="cls-17" d="M452.15,532.91,444,528.19c-.65-.37-.56-1,.19-1.48l8.08-4.67a2.82,2.82,0,0,1,2.56-.1l8.17,4.71c.65.38.57,1-.18,1.47l-8.1,4.67A2.9,2.9,0,0,1,452.15,532.91Z" transform="translate(-61.91 -228.47)"/><path class="cls-17" d="M503.51,562.55l-8.17-4.7c-.66-.39-.57-1,.18-1.48l8.09-4.67a2.85,2.85,0,0,1,2.56-.11l8.16,4.72c.66.36.57,1-.18,1.47l-8.08,4.67A2.82,2.82,0,0,1,503.51,562.55Z" transform="translate(-61.91 -228.47)"/><path class="cls-17" d="M516.11,569.83l-8.17-4.72c-.65-.37-.57-1,.19-1.47l8.1-4.67a2.82,2.82,0,0,1,2.56-.1l8.17,4.72c.65.37.56,1-.19,1.47l-8.08,4.67A2.83,2.83,0,0,1,516.11,569.83Z" transform="translate(-61.91 -228.47)"/><path class="cls-17" d="M528.71,577.11l-8.17-4.75c-.65-.37-.56-1,.19-1.48l8.1-4.67a2.81,2.81,0,0,1,2.54-.1l8.17,4.71c.66.38.57,1-.18,1.47l-8.07,4.7A2.83,2.83,0,0,1,528.71,577.11Z" transform="translate(-61.91 -228.47)"/><path class="cls-17" d="M541.33,584.39l-8.16-4.72c-.66-.38-.57-1,.18-1.47l8.1-4.67a2.78,2.78,0,0,1,2.54-.1l8.17,4.7c.66.39.57,1-.18,1.48l-8.09,4.67A2.91,2.91,0,0,1,541.33,584.39Z" transform="translate(-61.91 -228.47)"/><path class="cls-17" d="M553.92,591.66,545.75,587c-.65-.38-.57-1,.19-1.47l8.1-4.67a2.78,2.78,0,0,1,2.54-.12l8.19,4.72c.65.37.57,1-.19,1.48l-8.08,4.67A2.86,2.86,0,0,1,553.92,591.66Z" transform="translate(-61.91 -228.47)"/><path class="cls-17" d="M566.52,598.94l-8.16-4.72c-.66-.37-.57-1,.18-1.48l8.1-4.67a2.83,2.83,0,0,1,2.55-.1l8.16,4.72c.66.37.57,1-.18,1.48l-8.08,4.67A2.84,2.84,0,0,1,566.52,598.94Z" transform="translate(-61.91 -228.47)"/><path class="cls-17" d="M579.13,606.22,571,601.5c-.65-.37-.57-1,.18-1.47l8.11-4.67a2.78,2.78,0,0,1,2.54-.1L590,600c.65.38.57,1-.19,1.49l-8.08,4.65A2.85,2.85,0,0,1,579.13,606.22Z" transform="translate(-61.91 -228.47)"/><path class="cls-17" d="M591.73,613.5l-8.15-4.72c-.67-.39-.58-1,.17-1.47l8.1-4.67a2.78,2.78,0,0,1,2.54-.1l8.17,4.7c.65.38.57,1-.18,1.47l-8.09,4.67A2.88,2.88,0,0,1,591.73,613.5Z" transform="translate(-61.91 -228.47)"/><path class="cls-17" d="M604.34,620.76l-8.16-4.7c-.66-.38-.58-1,.19-1.47l8.08-4.67a2.86,2.86,0,0,1,2.55-.12l8.17,4.72c.65.37.56,1-.19,1.47l-8.08,4.67A2.82,2.82,0,0,1,604.34,620.76Z" transform="translate(-61.91 -228.47)"/><path class="cls-17" d="M484.26,537.21l-8.21-4.64c-.65-.38-.56-1.05.19-1.49l8.08-4.67a2.88,2.88,0,0,1,2.56-.1L495,531c.65.37.58,1-.19,1.47l-8,4.71A2.82,2.82,0,0,1,484.26,537.21Z" transform="translate(-61.91 -228.47)"/><path class="cls-17" d="M471.72,530l-8.15-4.72c-.67-.38-.59-1,.17-1.47l8.1-4.67a2.78,2.78,0,0,1,2.54-.1l8.17,4.7c.65.39.57,1-.18,1.48l-8.09,4.67A2.92,2.92,0,0,1,471.72,530Z" transform="translate(-61.91 -228.47)"/><path class="cls-17" d="M459.18,522.8,451,518.08c-.66-.37-.57-1,.18-1.48l8.19-4.67a2.82,2.82,0,0,1,2.56-.1l8.17,4.71c.65.38.56,1.05-.19,1.49l-8.08,4.67A2.87,2.87,0,0,1,459.18,522.8Z" transform="translate(-61.91 -228.47)"/><path class="cls-17" d="M446.65,515.55l-8.17-4.71c-.66-.38-.57-1,.18-1.47l8.09-4.67a2.91,2.91,0,0,1,2.56-.12l8.15,4.72c.67.37.58,1-.19,1.48l-8,4.67A2.8,2.8,0,0,1,446.65,515.55Z" transform="translate(-61.91 -228.47)"/><path class="cls-17" d="M459.53,508.1l-8.16-4.7c-.66-.39-.57-1,.18-1.48l2.75-1.54a2.85,2.85,0,0,1,2.56-.11L465,505c.67.36.58,1-.17,1.47L462.16,508A2.84,2.84,0,0,1,459.53,508.1Z" transform="translate(-61.91 -228.47)"/><path class="cls-17" d="M475.9,517.56l-8.21-4.72c-.66-.37-.57-1,.18-1.48l2.68-1.54a2.85,2.85,0,0,1,2.56-.1l8.15,4.71c.65.38.59,1-.18,1.47l-2.67,1.56A2.84,2.84,0,0,1,475.9,517.56Z" transform="translate(-61.91 -228.47)"/><path class="cls-17" d="M488.39,524.77l-8.17-4.72c-.65-.37-.57-1,.19-1.47l2.67-1.54a2.84,2.84,0,0,1,2.57-.1l8.15,4.7c.67.39.58,1-.17,1.47L491,524.65A2.82,2.82,0,0,1,488.39,524.77Z" transform="translate(-61.91 -228.47)"/><path class="cls-17" d="M500.88,532l-8.09-4.73c-.67-.38-.58-1,.19-1.47l2.66-1.54a2.92,2.92,0,0,1,2.56-.12l8.17,4.72c.65.37.57,1-.19,1.48l-2.67,1.54A2.91,2.91,0,0,1,500.88,532Z" transform="translate(-61.91 -228.47)"/><path class="cls-17" d="M513.36,539.18l-8.15-4.7c-.65-.39-.58-1,.19-1.47l2.66-1.56a2.88,2.88,0,0,1,2.56-.1l8.17,4.72c.65.37.57,1-.19,1.47l-2.67,1.54A2.84,2.84,0,0,1,513.36,539.18Z" transform="translate(-61.91 -228.47)"/><path class="cls-17" d="M583.18,579.44,575,574.73c-.65-.38-.57-1,.19-1.47l2.67-1.54a2.85,2.85,0,0,1,2.56-.12l8.16,4.72c.67.37.58,1-.19,1.48l-2.66,1.54A2.82,2.82,0,0,1,583.18,579.44Z" transform="translate(-61.91 -228.47)"/><path class="cls-17" d="M595.58,586.65l-8.15-4.7c-.67-.39-.59-1,.18-1.47l2.67-1.56a2.82,2.82,0,0,1,2.56-.1l8.17,4.72c.65.37.56,1-.19,1.47l-2.68,1.54A2.82,2.82,0,0,1,595.58,586.65Z" transform="translate(-61.91 -228.47)"/><path class="cls-17" d="M608.07,593.87l-8.15-4.77c-.66-.39-.59-1.06.18-1.49l2.66-1.54a2.82,2.82,0,0,1,2.56-.1l8.17,4.7c.65.38.57,1-.18,1.47l-2.68,1.56A2.86,2.86,0,0,1,608.07,593.87Z" transform="translate(-61.91 -228.47)"/><path class="cls-17" d="M620.57,601.08l-8.17-4.72c-.65-.37-.57-1,.19-1.47l2.68-1.54a2.78,2.78,0,0,1,2.54-.1L626,598c.65.39.57,1-.19,1.47L623.12,601A2.86,2.86,0,0,1,620.57,601.08Z" transform="translate(-61.91 -228.47)"/><path class="cls-17" d="M496.86,544.56l-8.15-4.72c-.65-.37-.57-1,.18-1.48l8.09-4.67a2.82,2.82,0,0,1,2.56-.1l8.15,4.71c.65.38.59,1-.18,1.49l-8,4.67A2.9,2.9,0,0,1,496.86,544.56Z" transform="translate(-61.91 -228.47)"/><path class="cls-17" d="M509.53,551.84l-8.15-4.72c-.65-.39-.57-1,.18-1.48l8.09-4.67a2.85,2.85,0,0,1,2.56-.1l8.15,4.71c.65.38.59,1-.18,1.47l-8.09,4.67A2.92,2.92,0,0,1,509.53,551.84Z" transform="translate(-61.91 -228.47)"/><path class="cls-17" d="M522.07,559.1l-8.15-4.7c-.66-.39-.57-1,.18-1.48l8.09-4.67a2.91,2.91,0,0,1,2.56-.11l8.15,4.72c.67.38.58,1-.19,1.47L524.6,559A2.82,2.82,0,0,1,522.07,559.1Z" transform="translate(-61.91 -228.47)"/><path class="cls-17" d="M534.64,566.38l-8.17-4.7c-.65-.39-.57-1,.18-1.49l8.09-4.67a2.88,2.88,0,0,1,2.56-.1l8.15,4.72c.67.37.59,1-.18,1.47l-8.09,4.67A2.78,2.78,0,0,1,534.64,566.38Z" transform="translate(-61.91 -228.47)"/><path class="cls-17" d="M547.29,573.66,539.12,569c-.65-.37-.56-1,.19-1.47l8.08-4.67a2.82,2.82,0,0,1,2.56-.1l8.12,4.57c.67.38.59,1-.18,1.49l-8.09,4.67A2.78,2.78,0,0,1,547.29,573.66Z" transform="translate(-61.91 -228.47)"/><path class="cls-17" d="M559.9,580.94l-8.17-4.72c-.65-.36-.57-1,.18-1.47l8.09-4.67a2.82,2.82,0,0,1,2.56-.1l8.15,4.7c.67.39.58,1-.18,1.48l-8.09,4.67A2.84,2.84,0,0,1,559.9,580.94Z" transform="translate(-61.91 -228.47)"/><path class="cls-17" d="M572.5,588.21l-8.17-4.7c-.65-.39-.57-1,.19-1.48l8.08-4.67a2.88,2.88,0,0,1,2.56-.11l8.15,4.72c.67.38.59,1-.18,1.47L575,588.11A2.78,2.78,0,0,1,572.5,588.21Z" transform="translate(-61.91 -228.47)"/><path class="cls-17" d="M585.1,595.49l-8.16-4.72c-.66-.39-.57-1,.18-1.49l8.08-4.65a2.84,2.84,0,0,1,2.57-.12l8.15,4.72c.67.37.58,1-.17,1.47l-8.1,4.67A2.8,2.8,0,0,1,585.1,595.49Z" transform="translate(-61.91 -228.47)"/><path class="cls-17" d="M597.71,602.77l-8.17-4.72c-.65-.37-.57-1,.18-1.47l8.09-4.67a2.82,2.82,0,0,1,2.56-.1l8.17,4.7c.65.39.57,1.06-.19,1.49l-8.1,4.67A2.78,2.78,0,0,1,597.71,602.77Z" transform="translate(-61.91 -228.47)"/><path class="cls-17" d="M424.8,545.46l-24.07-13.89c-.65-.37-.57-1,.19-1.48l8.18-4.6a2.82,2.82,0,0,1,2.56-.1l24,13.88c.65.38.57,1-.19,1.47l-8.08,4.67A2.9,2.9,0,0,1,424.8,545.46Z" transform="translate(-61.91 -228.47)"/><path class="cls-17" d="M579.65,634.86l-24-13.88c-.65-.38-.57-1.05.19-1.49l8.08-4.67a2.82,2.82,0,0,1,2.56-.1l24,13.88c.65.38.57,1-.19,1.47l-8.08,4.67A2.88,2.88,0,0,1,579.65,634.86Z" transform="translate(-61.91 -228.47)"/><path class="cls-17" d="M529.25,621.82l-8.17-4.7c-.65-.39-.57-1,.18-1.48l9.65-5.57a2.82,2.82,0,0,1,2.56-.1l8.15,4.72c.65.37.57,1-.19,1.47l-9.62,5.56A2.82,2.82,0,0,1,529.25,621.82Z" transform="translate(-61.91 -228.47)"/><path class="cls-17" d="M437.71,569l-13-7.53c-.67-.39-.59-1,.18-1.48l9.63-5.57a2.82,2.82,0,0,1,2.56-.1l13,7.53c.66.39.57,1-.18,1.48l-9.64,5.57A2.82,2.82,0,0,1,437.71,569Z" transform="translate(-61.91 -228.47)"/><path class="cls-17" d="M517.1,614.81l-13-7.54c-.67-.36-.59-1,.18-1.47l9.63-5.56a2.88,2.88,0,0,1,2.56-.11l13.05,7.55c.66.36.57,1-.18,1.47l-9.64,5.56A2.85,2.85,0,0,1,517.1,614.81Z" transform="translate(-61.91 -228.47)"/><path class="cls-17" d="M456,579.47l-13.06-7.53c-.65-.37-.57-1,.19-1.47l9.64-5.56a2.84,2.84,0,0,1,2.54-.12l13.06,7.55c.65.37.57,1-.19,1.47l-9.62,5.56A2.82,2.82,0,0,1,456,579.47Z" transform="translate(-61.91 -228.47)"/><path class="cls-17" d="M455.32,564.84l56.74,32.78a.77.77,0,0,1,.51,1,.79.79,0,0,1-.51.51l-9.83,5.67a2.78,2.78,0,0,1-2.54,0L442.93,572Z" transform="translate(-61.91 -228.47)"/><path class="cls-17" d="M564.48,635l9.09,5.23c.54.32.47.86-.15,1.21l-3.95,2.28a2.33,2.33,0,0,1-2.09.1l-9.09-5.26c-.54-.3-.47-.85.15-1.2l3.93-2.28A2.28,2.28,0,0,1,564.48,635Z" transform="translate(-61.91 -228.47)"/><path class="cls-17" d="M551.76,627.68l9.09,5.25c.54.3.47.86-.15,1.21l-3.93,2.27a2.29,2.29,0,0,1-2.1.09l-9.08-5.24c-.54-.32-.47-.85.15-1.22l4-2.28A2.37,2.37,0,0,1,551.76,627.68Z" transform="translate(-61.91 -228.47)"/><path class="cls-17" d="M539.16,620.4l9.09,5.25c.53.32.47.86-.15,1.21l-3.94,2.27a2.27,2.27,0,0,1-2.09.09L533,624c-.55-.32-.46-.86.16-1.21l3.93-2.27A2.31,2.31,0,0,1,539.16,620.4Z" transform="translate(-61.91 -228.47)"/><path class="cls-17" d="M558.72,623.66l9.09,5.26c.54.3.47.85-.15,1.2l-3.93,2.28a2.3,2.3,0,0,1-2.09.08l-9.11-5.24c-.53-.32-.47-.85.15-1.22l4-2.28A2.36,2.36,0,0,1,558.72,623.66Z" transform="translate(-61.91 -228.47)"/></g><g class="cls-16"><path class="cls-17" d="M395,544.32l-8.15-4.7c-.67-.39-.59-1.06.16-1.49l9.65-5.56a2.82,2.82,0,0,1,2.56-.1l8.2,4.74c.67.38.58,1-.19,1.47l-9.62,5.57A2.8,2.8,0,0,1,395,544.32Z" transform="translate(-61.91 -228.47)"/><path class="cls-17" d="M407.61,551.6l-8.15-4.72c-.67-.37-.59-1,.18-1.47l9.63-5.56a2.82,2.82,0,0,1,2.56-.1l8.15,4.7c.67.39.59,1-.18,1.48l-9.63,5.57A2.88,2.88,0,0,1,407.61,551.6Z" transform="translate(-61.91 -228.47)"/><path class="cls-17" d="M420.22,559l-8.16-4.72c-.66-.37-.58-1,.19-1.48l9.62-5.55a2.88,2.88,0,0,1,2.56-.12l8.16,4.72c.67.37.58,1-.19,1.47l-9.62,5.56A2.88,2.88,0,0,1,420.22,559Z" transform="translate(-61.91 -228.47)"/><path class="cls-17" d="M437.66,552.87l-8.17-4.72c-.65-.38-.57-1,.18-1.47l8.09-4.67a2.82,2.82,0,0,1,2.56-.1l8.17,4.7c.65.39.57,1-.19,1.48l-8.1,4.67A2.84,2.84,0,0,1,437.66,552.87Z" transform="translate(-61.91 -228.47)"/><path class="cls-17" d="M450.26,560.14l-8.17-4.7c-.65-.39-.57-1,.19-1.48l8.08-4.67a2.88,2.88,0,0,1,2.56-.11l8.17,4.72c.65.36.57,1-.18,1.47l-8.1,4.67A2.8,2.8,0,0,1,450.26,560.14Z" transform="translate(-61.91 -228.47)"/><path class="cls-17" d="M462.86,567.42l-8.16-4.7c-.66-.39-.57-1.06.18-1.49l8.09-4.67a2.85,2.85,0,0,1,2.56-.1l8.16,4.72c.66.36.57,1-.18,1.47l-8.1,4.69A2.83,2.83,0,0,1,462.86,567.42Z" transform="translate(-61.91 -228.47)"/><path class="cls-17" d="M475.47,574.7,467.3,570c-.65-.37-.57-1,.18-1.47l8.09-4.67a2.82,2.82,0,0,1,2.56-.1l8.17,4.7c.65.39.57,1-.19,1.49L478,574.6A2.84,2.84,0,0,1,475.47,574.7Z" transform="translate(-61.91 -228.47)"/><path class="cls-17" d="M488.07,582l-8.17-4.72c-.65-.37-.56-1,.19-1.47l8.08-4.67a2.82,2.82,0,0,1,2.56-.1l8.17,4.7c.66.39.57,1-.18,1.47l-8.09,4.67A2.88,2.88,0,0,1,488.07,582Z" transform="translate(-61.91 -228.47)"/><path class="cls-17" d="M500.68,589.25l-8.17-4.71c-.65-.38-.57-1,.18-1.47l8.09-4.67a2.88,2.88,0,0,1,2.56-.12l8.17,4.72c.65.39.57,1-.19,1.48l-8.08,4.62A2.85,2.85,0,0,1,500.68,589.25Z" transform="translate(-61.91 -228.47)"/><path class="cls-17" d="M513.28,596.53l-8.17-4.71c-.65-.38-.57-1,.19-1.49l8.08-4.58a2.88,2.88,0,0,1,2.56-.1l8.17,4.72c.65.37.57,1-.18,1.47l-8.09,4.67A2.85,2.85,0,0,1,513.28,596.53Z" transform="translate(-61.91 -228.47)"/><path class="cls-17" d="M525.88,603.81l-8.16-4.67c-.66-.37-.57-1,.18-1.47L526,593a2.84,2.84,0,0,1,2.57-.1l8.16,4.7c.66.38.57,1-.18,1.49l-8.08,4.67A2.87,2.87,0,0,1,525.88,603.81Z" transform="translate(-61.91 -228.47)"/><path class="cls-17" d="M538.49,611.09l-8.17-4.72c-.65-.37-.57-1,.18-1.47l8.09-4.67a2.82,2.82,0,0,1,2.56-.1l8.17,4.7c.65.38.57,1-.19,1.47L541.05,611A2.88,2.88,0,0,1,538.49,611.09Z" transform="translate(-61.91 -228.47)"/><path class="cls-17" d="M551.09,618.35l-8.08-4.7c-.66-.38-.57-1,.18-1.47l8.09-4.67a2.88,2.88,0,0,1,2.56-.12l8.17,4.72c.65.39.56,1-.19,1.47l-8.08,4.67A2.83,2.83,0,0,1,551.09,618.35Z" transform="translate(-61.91 -228.47)"/><path class="cls-17" d="M456.22,549.43l-8.15-4.72c-.67-.37-.59-1,.18-1.48l8.09-4.67a2.81,2.81,0,0,1,2.54-.1l8.17,4.71c.65.38.57,1-.18,1.47l-8.09,4.67A2.85,2.85,0,0,1,456.22,549.43Z" transform="translate(-61.91 -228.47)"/><path class="cls-17" d="M443.43,542l-8.17-4.72c-.65-.38-.57-1,.19-1.47l8.08-4.67a2.82,2.82,0,0,1,2.56-.1l8.17,4.7c.65.39.57,1-.18,1.48l-8.15,4.67A2.92,2.92,0,0,1,443.43,542Z" transform="translate(-61.91 -228.47)"/><path class="cls-17" d="M430.61,534.65,413,524.49c-.66-.37-.57-1,.18-1.48l8.08-4.67a2.87,2.87,0,0,1,2.57-.1l17.57,10.15c.65.38.59,1-.18,1.47l-8.09,4.67A2.92,2.92,0,0,1,430.61,534.65Z" transform="translate(-61.91 -228.47)"/><path class="cls-17" d="M439.58,525.64l-14.28-8.23c-.65-.39-.56-1,.19-1.48l8.08-4.67a2.85,2.85,0,0,1,2.56-.1l14.27,8.24c.66.37.58,1-.19,1.47l-8.08,4.62A2.8,2.8,0,0,1,439.58,525.64Z" transform="translate(-61.91 -228.47)"/><path class="cls-17" d="M468.82,556.71,460.67,552c-.67-.39-.58-1,.19-1.48l8.08-4.67a2.83,2.83,0,0,1,2.55-.1l8.16,4.71c.66.38.57,1-.18,1.47l-8.09,4.67A2.88,2.88,0,0,1,468.82,556.71Z" transform="translate(-61.91 -228.47)"/><path class="cls-17" d="M481.43,564l-8.15-4.7c-.67-.39-.59-1,.18-1.48l8.08-4.67a2.9,2.9,0,0,1,2.55-.12l8.17,4.73c.65.36.57,1-.19,1.47L484,563.89A2.82,2.82,0,0,1,481.43,564Z" transform="translate(-61.91 -228.47)"/><path class="cls-17" d="M494,571.25l-8.15-4.7c-.65-.39-.59-1.06.18-1.49l8.09-4.67a2.82,2.82,0,0,1,2.56-.1l8.15,4.72c.65.37.57,1-.18,1.47l-8.09,4.67A2.82,2.82,0,0,1,494,571.25Z" transform="translate(-61.91 -228.47)"/><path class="cls-17" d="M506.64,578.53l-8.16-4.72c-.65-.36-.58-1,.19-1.47l8.08-4.67a2.82,2.82,0,0,1,2.56-.1l8.15,4.7c.66.39.57,1-.18,1.49l-8.08,4.66A2.85,2.85,0,0,1,506.64,578.53Z" transform="translate(-61.91 -228.47)"/><path class="cls-17" d="M519.24,585.75,511.09,581c-.66-.39-.59-1,.18-1.48l8.09-4.66a2.82,2.82,0,0,1,2.56-.11l8.15,4.71c.65.38.57,1-.19,1.47l-8.08,4.79A2.88,2.88,0,0,1,519.24,585.75Z" transform="translate(-61.91 -228.47)"/><path class="cls-17" d="M531.84,593.08l-8.15-4.7c-.65-.39-.58-1,.19-1.48l8.08-4.67a2.88,2.88,0,0,1,2.56-.11l8.15,4.72c.66.36.57,1-.18,1.47L534.4,593A2.82,2.82,0,0,1,531.84,593.08Z" transform="translate(-61.91 -228.47)"/><path class="cls-17" d="M544.45,600.36l-8.14-4.7c-.65-.39-.57-1.06.19-1.49l8.08-4.67a2.82,2.82,0,0,1,2.56-.1l8.15,4.72c.66.37.57,1-.18,1.47L547,600.26A2.81,2.81,0,0,1,544.45,600.36Z" transform="translate(-61.91 -228.47)"/><path class="cls-17" d="M557.05,607.64l-8.15-4.72c-.65-.37-.57-1,.18-1.47l8.09-4.67a2.82,2.82,0,0,1,2.56-.1l8.15,4.7c.65.39.59,1-.18,1.49l-8.09,4.64A2.88,2.88,0,0,1,557.05,607.64Z" transform="translate(-61.91 -228.47)"/><path class="cls-17" d="M569.65,614.92l-8.15-4.72c-.65-.38-.57-1,.19-1.47l8.08-4.67a2.82,2.82,0,0,1,2.56-.1l8.15,4.7c.66.39.59,1-.18,1.48l-8.08,4.67A2.94,2.94,0,0,1,569.65,614.92Z" transform="translate(-61.91 -228.47)"/><path class="cls-17" d="M592.07,627.86l-17.81-10.31c-.66-.37-.57-1,.18-1.47l8.09-4.67a2.82,2.82,0,0,1,2.56-.1l17.81,10.27c.65.39.57,1-.19,1.48l-8.08,4.67A2.88,2.88,0,0,1,592.07,627.86Z" transform="translate(-61.91 -228.47)"/><path class="cls-17" d="M616.66,613.68,601.59,605c-.65-.38-.57-1,.19-1.49l8.08-4.67a2.92,2.92,0,0,1,2.56-.1l15.07,8.69c.65.37.56,1-.19,1.47l-8.08,4.67A2.82,2.82,0,0,1,616.66,613.68Z" transform="translate(-61.91 -228.47)"/><path class="cls-17" d="M490.9,555.27l-8.15-4.67c-.65-.39-.57-1,.18-1.48l8.09-4.66a2.88,2.88,0,0,1,2.56-.12l8.17,4.72c.65.38.57,1-.19,1.47l-8.08,4.67A2.83,2.83,0,0,1,490.9,555.27Z" transform="translate(-61.91 -228.47)"/><path class="cls-17" d="M478,547.82l-8.15-4.72c-.67-.37-.59-1,.18-1.47L478.1,537a2.78,2.78,0,0,1,2.54-.1l8.17,4.7c.65.38.57,1.05-.18,1.49l-8.09,4.67A2.88,2.88,0,0,1,478,547.82Z" transform="translate(-61.91 -228.47)"/><path class="cls-17" d="M465.06,540.35l-8.15-4.7c-.66-.38-.57-1,.18-1.47l8.08-4.67a2.9,2.9,0,0,1,2.57-.12l8.15,4.72c.65.37.58,1-.19,1.47l-8,4.67A2.82,2.82,0,0,1,465.06,540.35Z" transform="translate(-61.91 -228.47)"/><path class="cls-17" d="M452.15,532.91,444,528.19c-.65-.37-.56-1,.19-1.48l8.08-4.67a2.82,2.82,0,0,1,2.56-.1l8.17,4.71c.65.38.57,1-.18,1.47l-8.1,4.67A2.9,2.9,0,0,1,452.15,532.91Z" transform="translate(-61.91 -228.47)"/><path class="cls-17" d="M503.51,562.55l-8.17-4.7c-.66-.39-.57-1,.18-1.48l8.09-4.67a2.85,2.85,0,0,1,2.56-.11l8.16,4.72c.66.36.57,1-.18,1.47l-8.08,4.67A2.82,2.82,0,0,1,503.51,562.55Z" transform="translate(-61.91 -228.47)"/><path class="cls-17" d="M516.11,569.83l-8.17-4.72c-.65-.37-.57-1,.19-1.47l8.1-4.67a2.82,2.82,0,0,1,2.56-.1l8.17,4.72c.65.37.56,1-.19,1.47l-8.08,4.67A2.83,2.83,0,0,1,516.11,569.83Z" transform="translate(-61.91 -228.47)"/><path class="cls-17" d="M528.71,577.11l-8.17-4.75c-.65-.37-.56-1,.19-1.48l8.1-4.67a2.81,2.81,0,0,1,2.54-.1l8.17,4.71c.66.38.57,1-.18,1.47l-8.07,4.7A2.83,2.83,0,0,1,528.71,577.11Z" transform="translate(-61.91 -228.47)"/><path class="cls-17" d="M541.33,584.39l-8.16-4.72c-.66-.38-.57-1,.18-1.47l8.1-4.67a2.78,2.78,0,0,1,2.54-.1l8.17,4.7c.66.39.57,1-.18,1.48l-8.09,4.67A2.91,2.91,0,0,1,541.33,584.39Z" transform="translate(-61.91 -228.47)"/><path class="cls-17" d="M553.92,591.66,545.75,587c-.65-.38-.57-1,.19-1.47l8.1-4.67a2.78,2.78,0,0,1,2.54-.12l8.19,4.72c.65.37.57,1-.19,1.48l-8.08,4.67A2.86,2.86,0,0,1,553.92,591.66Z" transform="translate(-61.91 -228.47)"/><path class="cls-17" d="M566.52,598.94l-8.16-4.72c-.66-.37-.57-1,.18-1.48l8.1-4.67a2.83,2.83,0,0,1,2.55-.1l8.16,4.72c.66.37.57,1-.18,1.48l-8.08,4.67A2.84,2.84,0,0,1,566.52,598.94Z" transform="translate(-61.91 -228.47)"/><path class="cls-17" d="M579.13,606.22,571,601.5c-.65-.37-.57-1,.18-1.47l8.11-4.67a2.78,2.78,0,0,1,2.54-.1L590,600c.65.38.57,1-.19,1.49l-8.08,4.65A2.85,2.85,0,0,1,579.13,606.22Z" transform="translate(-61.91 -228.47)"/><path class="cls-17" d="M591.73,613.5l-8.15-4.72c-.67-.39-.58-1,.17-1.47l8.1-4.67a2.78,2.78,0,0,1,2.54-.1l8.17,4.7c.65.38.57,1-.18,1.47l-8.09,4.67A2.88,2.88,0,0,1,591.73,613.5Z" transform="translate(-61.91 -228.47)"/><path class="cls-17" d="M604.34,620.76l-8.16-4.7c-.66-.38-.58-1,.19-1.47l8.08-4.67a2.86,2.86,0,0,1,2.55-.12l8.17,4.72c.65.37.56,1-.19,1.47l-8.08,4.67A2.82,2.82,0,0,1,604.34,620.76Z" transform="translate(-61.91 -228.47)"/><path class="cls-17" d="M484.26,537.21l-8.21-4.64c-.65-.38-.56-1.05.19-1.49l8.08-4.67a2.88,2.88,0,0,1,2.56-.1L495,531c.65.37.58,1-.19,1.47l-8,4.71A2.82,2.82,0,0,1,484.26,537.21Z" transform="translate(-61.91 -228.47)"/><path class="cls-17" d="M471.72,530l-8.15-4.72c-.67-.38-.59-1,.17-1.47l8.1-4.67a2.78,2.78,0,0,1,2.54-.1l8.17,4.7c.65.39.57,1-.18,1.48l-8.09,4.67A2.92,2.92,0,0,1,471.72,530Z" transform="translate(-61.91 -228.47)"/><path class="cls-17" d="M459.18,522.8,451,518.08c-.66-.37-.57-1,.18-1.48l8.19-4.67a2.82,2.82,0,0,1,2.56-.1l8.17,4.71c.65.38.56,1.05-.19,1.49l-8.08,4.67A2.87,2.87,0,0,1,459.18,522.8Z" transform="translate(-61.91 -228.47)"/><path class="cls-17" d="M446.65,515.55l-8.17-4.71c-.66-.38-.57-1,.18-1.47l8.09-4.67a2.91,2.91,0,0,1,2.56-.12l8.15,4.72c.67.37.58,1-.19,1.48l-8,4.67A2.8,2.8,0,0,1,446.65,515.55Z" transform="translate(-61.91 -228.47)"/><path class="cls-17" d="M459.53,508.1l-8.16-4.7c-.66-.39-.57-1,.18-1.48l2.75-1.54a2.85,2.85,0,0,1,2.56-.11L465,505c.67.36.58,1-.17,1.47L462.16,508A2.84,2.84,0,0,1,459.53,508.1Z" transform="translate(-61.91 -228.47)"/><path class="cls-17" d="M475.9,517.56l-8.21-4.72c-.66-.37-.57-1,.18-1.48l2.68-1.54a2.85,2.85,0,0,1,2.56-.1l8.15,4.71c.65.38.59,1-.18,1.47l-2.67,1.56A2.84,2.84,0,0,1,475.9,517.56Z" transform="translate(-61.91 -228.47)"/><path class="cls-17" d="M488.39,524.77l-8.17-4.72c-.65-.37-.57-1,.19-1.47l2.67-1.54a2.84,2.84,0,0,1,2.57-.1l8.15,4.7c.67.39.58,1-.17,1.47L491,524.65A2.82,2.82,0,0,1,488.39,524.77Z" transform="translate(-61.91 -228.47)"/><path class="cls-17" d="M500.88,532l-8.09-4.73c-.67-.38-.58-1,.19-1.47l2.66-1.54a2.92,2.92,0,0,1,2.56-.12l8.17,4.72c.65.37.57,1-.19,1.48l-2.67,1.54A2.91,2.91,0,0,1,500.88,532Z" transform="translate(-61.91 -228.47)"/><path class="cls-17" d="M513.36,539.18l-8.15-4.7c-.65-.39-.58-1,.19-1.47l2.66-1.56a2.88,2.88,0,0,1,2.56-.1l8.17,4.72c.65.37.57,1-.19,1.47l-2.67,1.54A2.84,2.84,0,0,1,513.36,539.18Z" transform="translate(-61.91 -228.47)"/><path class="cls-17" d="M583.18,579.44,575,574.73c-.65-.38-.57-1,.19-1.47l2.67-1.54a2.85,2.85,0,0,1,2.56-.12l8.16,4.72c.67.37.58,1-.19,1.48l-2.66,1.54A2.82,2.82,0,0,1,583.18,579.44Z" transform="translate(-61.91 -228.47)"/><path class="cls-17" d="M595.58,586.65l-8.15-4.7c-.67-.39-.59-1,.18-1.47l2.67-1.56a2.82,2.82,0,0,1,2.56-.1l8.17,4.72c.65.37.56,1-.19,1.47l-2.68,1.54A2.82,2.82,0,0,1,595.58,586.65Z" transform="translate(-61.91 -228.47)"/><path class="cls-17" d="M608.07,593.87l-8.15-4.77c-.66-.39-.59-1.06.18-1.49l2.66-1.54a2.82,2.82,0,0,1,2.56-.1l8.17,4.7c.65.38.57,1-.18,1.47l-2.68,1.56A2.86,2.86,0,0,1,608.07,593.87Z" transform="translate(-61.91 -228.47)"/><path class="cls-17" d="M620.57,601.08l-8.17-4.72c-.65-.37-.57-1,.19-1.47l2.68-1.54a2.78,2.78,0,0,1,2.54-.1L626,598c.65.39.57,1-.19,1.47L623.12,601A2.86,2.86,0,0,1,620.57,601.08Z" transform="translate(-61.91 -228.47)"/><path class="cls-17" d="M496.86,544.56l-8.15-4.72c-.65-.37-.57-1,.18-1.48l8.09-4.67a2.82,2.82,0,0,1,2.56-.1l8.15,4.71c.65.38.59,1-.18,1.49l-8,4.67A2.9,2.9,0,0,1,496.86,544.56Z" transform="translate(-61.91 -228.47)"/><path class="cls-17" d="M509.53,551.84l-8.15-4.72c-.65-.39-.57-1,.18-1.48l8.09-4.67a2.85,2.85,0,0,1,2.56-.1l8.15,4.71c.65.38.59,1-.18,1.47l-8.09,4.67A2.92,2.92,0,0,1,509.53,551.84Z" transform="translate(-61.91 -228.47)"/><path class="cls-17" d="M522.07,559.1l-8.15-4.7c-.66-.39-.57-1,.18-1.48l8.09-4.67a2.91,2.91,0,0,1,2.56-.11l8.15,4.72c.67.38.58,1-.19,1.47L524.6,559A2.82,2.82,0,0,1,522.07,559.1Z" transform="translate(-61.91 -228.47)"/><path class="cls-17" d="M534.64,566.38l-8.17-4.7c-.65-.39-.57-1,.18-1.49l8.09-4.67a2.88,2.88,0,0,1,2.56-.1l8.15,4.72c.67.37.59,1-.18,1.47l-8.09,4.67A2.78,2.78,0,0,1,534.64,566.38Z" transform="translate(-61.91 -228.47)"/><path class="cls-17" d="M547.29,573.66,539.12,569c-.65-.37-.56-1,.19-1.47l8.08-4.67a2.82,2.82,0,0,1,2.56-.1l8.12,4.57c.67.38.59,1-.18,1.49l-8.09,4.67A2.78,2.78,0,0,1,547.29,573.66Z" transform="translate(-61.91 -228.47)"/><path class="cls-17" d="M559.9,580.94l-8.17-4.72c-.65-.36-.57-1,.18-1.47l8.09-4.67a2.82,2.82,0,0,1,2.56-.1l8.15,4.7c.67.39.58,1-.18,1.48l-8.09,4.67A2.84,2.84,0,0,1,559.9,580.94Z" transform="translate(-61.91 -228.47)"/><path class="cls-17" d="M572.5,588.21l-8.17-4.7c-.65-.39-.57-1,.19-1.48l8.08-4.67a2.88,2.88,0,0,1,2.56-.11l8.15,4.72c.67.38.59,1-.18,1.47L575,588.11A2.78,2.78,0,0,1,572.5,588.21Z" transform="translate(-61.91 -228.47)"/><path class="cls-17" d="M585.1,595.49l-8.16-4.72c-.66-.39-.57-1,.18-1.49l8.08-4.65a2.84,2.84,0,0,1,2.57-.12l8.15,4.72c.67.37.58,1-.17,1.47l-8.1,4.67A2.8,2.8,0,0,1,585.1,595.49Z" transform="translate(-61.91 -228.47)"/><path class="cls-17" d="M597.71,602.77l-8.17-4.72c-.65-.37-.57-1,.18-1.47l8.09-4.67a2.82,2.82,0,0,1,2.56-.1l8.17,4.7c.65.39.57,1.06-.19,1.49l-8.1,4.67A2.78,2.78,0,0,1,597.71,602.77Z" transform="translate(-61.91 -228.47)"/><path class="cls-17" d="M424.8,545.46l-24.07-13.89c-.65-.37-.57-1,.19-1.48l8.18-4.6a2.82,2.82,0,0,1,2.56-.1l24,13.88c.65.38.57,1-.19,1.47l-8.08,4.67A2.9,2.9,0,0,1,424.8,545.46Z" transform="translate(-61.91 -228.47)"/><path class="cls-17" d="M579.65,634.86l-24-13.88c-.65-.38-.57-1.05.19-1.49l8.08-4.67a2.82,2.82,0,0,1,2.56-.1l24,13.88c.65.38.57,1-.19,1.47l-8.08,4.67A2.88,2.88,0,0,1,579.65,634.86Z" transform="translate(-61.91 -228.47)"/><path class="cls-17" d="M529.25,621.82l-8.17-4.7c-.65-.39-.57-1,.18-1.48l9.65-5.57a2.82,2.82,0,0,1,2.56-.1l8.15,4.72c.65.37.57,1-.19,1.47l-9.62,5.56A2.82,2.82,0,0,1,529.25,621.82Z" transform="translate(-61.91 -228.47)"/><path class="cls-17" d="M437.71,569l-13-7.53c-.67-.39-.59-1,.18-1.48l9.63-5.57a2.82,2.82,0,0,1,2.56-.1l13,7.53c.66.39.57,1-.18,1.48l-9.64,5.57A2.82,2.82,0,0,1,437.71,569Z" transform="translate(-61.91 -228.47)"/><path class="cls-17" d="M517.1,614.81l-13-7.54c-.67-.36-.59-1,.18-1.47l9.63-5.56a2.88,2.88,0,0,1,2.56-.11l13.05,7.55c.66.36.57,1-.18,1.47l-9.64,5.56A2.85,2.85,0,0,1,517.1,614.81Z" transform="translate(-61.91 -228.47)"/><path class="cls-17" d="M456,579.47l-13.06-7.53c-.65-.37-.57-1,.19-1.47l9.64-5.56a2.84,2.84,0,0,1,2.54-.12l13.06,7.55c.65.37.57,1-.19,1.47l-9.62,5.56A2.82,2.82,0,0,1,456,579.47Z" transform="translate(-61.91 -228.47)"/><path class="cls-17" d="M455.32,564.84l56.74,32.78a.77.77,0,0,1,.51,1,.79.79,0,0,1-.51.51l-9.83,5.67a2.78,2.78,0,0,1-2.54,0L442.93,572Z" transform="translate(-61.91 -228.47)"/><path class="cls-17" d="M564.48,635l9.09,5.23c.54.32.47.86-.15,1.21l-3.95,2.28a2.33,2.33,0,0,1-2.09.1l-9.09-5.26c-.54-.3-.47-.85.15-1.2l3.93-2.28A2.28,2.28,0,0,1,564.48,635Z" transform="translate(-61.91 -228.47)"/><path class="cls-17" d="M551.76,627.68l9.09,5.25c.54.3.47.86-.15,1.21l-3.93,2.27a2.29,2.29,0,0,1-2.1.09l-9.08-5.24c-.54-.32-.47-.85.15-1.22l4-2.28A2.37,2.37,0,0,1,551.76,627.68Z" transform="translate(-61.91 -228.47)"/><path class="cls-17" d="M539.16,620.4l9.09,5.25c.53.32.47.86-.15,1.21l-3.94,2.27a2.27,2.27,0,0,1-2.09.09L533,624c-.55-.32-.46-.86.16-1.21l3.93-2.27A2.31,2.31,0,0,1,539.16,620.4Z" transform="translate(-61.91 -228.47)"/><path class="cls-17" d="M558.72,623.66l9.09,5.26c.54.3.47.85-.15,1.2l-3.93,2.28a2.3,2.3,0,0,1-2.09.08l-9.11-5.24c-.53-.32-.47-.85.15-1.22l4-2.28A2.36,2.36,0,0,1,558.72,623.66Z" transform="translate(-61.91 -228.47)"/></g><path class="cls-18" d="M692.13,609l-240.81-139a10.66,10.66,0,0,1-4.41-11.9l54.45-176.81c1.36-4.38,5.51-6.17,9.31-4l240.8,139a10.66,10.66,0,0,1,4.4,11.9L701.42,605C700.08,609.35,695.91,611.12,692.13,609Z" transform="translate(-61.91 -228.47)"/><path class="cls-19" d="M689.85,602.75l-233.56-135a10.22,10.22,0,0,1-4.22-11.38l52.05-169a5.93,5.93,0,0,1,7-4.55,5.83,5.83,0,0,1,1.87.75l233.56,135a10.21,10.21,0,0,1,4.22,11.39L698.76,599C697.45,603.14,693.47,604.85,689.85,602.75Z" transform="translate(-61.91 -228.47)"/><path class="cls-20" d="M689.85,602.75l-233.56-135a10.22,10.22,0,0,1-4.22-11.38l52.05-169a5.93,5.93,0,0,1,7-4.55,5.83,5.83,0,0,1,1.87.75l233.56,135a10.21,10.21,0,0,1,4.22,11.39L698.76,599C697.45,603.14,693.47,604.85,689.85,602.75Z" transform="translate(-61.91 -228.47)"/><path class="cls-20" d="M689.85,602.75l-233.56-135a10.22,10.22,0,0,1-4.22-11.38l52.05-169a5.93,5.93,0,0,1,7-4.55,5.83,5.83,0,0,1,1.87.75l233.56,135a10.21,10.21,0,0,1,4.22,11.39L698.76,599C697.45,603.14,693.47,604.85,689.85,602.75Z" transform="translate(-61.91 -228.47)"/><path class="cls-21" d="M677.3,551.1,519.19,459.81a7,7,0,0,1-2.9-7.82l35.76-116.08a4.07,4.07,0,0,1,4.85-3.12,3.91,3.91,0,0,1,1.26.5l158.1,91.29a7,7,0,0,1,2.9,7.81l-35.75,116.1a4.07,4.07,0,0,1-4.83,3.12A4,4,0,0,1,677.3,551.1Z" transform="translate(-61.91 -228.47)"/><path class="cls-22" d="M655.94,554,497.81,462.61a7,7,0,0,1-2.89-7.8l35.75-116.1a4,4,0,0,1,4.79-3.14,4.11,4.11,0,0,1,1.32.53l158.11,91.27a7,7,0,0,1,2.9,7.82L662,551.28a4.05,4.05,0,0,1-4.76,3.19A4.24,4.24,0,0,1,655.94,554Z" transform="translate(-61.91 -228.47)"/><g class="cls-23"><path class="cls-17" d="M655.94,554,497.81,462.61a7,7,0,0,1-2.89-7.8l35.75-116.1a4,4,0,0,1,4.79-3.14,4.11,4.11,0,0,1,1.32.53l158.11,91.27a7,7,0,0,1,2.9,7.82L662,551.28a4.05,4.05,0,0,1-4.76,3.19A4.24,4.24,0,0,1,655.94,554Z" transform="translate(-61.91 -228.47)"/></g><path class="cls-15" d="M694.91,427.37,536.8,336.1a4,4,0,0,0-4.45.15,4.32,4.32,0,0,1,2.27.58l158.11,91.28a7,7,0,0,1,2.91,7.81L659.87,552a4.66,4.66,0,0,1-1.67,2.46,4.19,4.19,0,0,0,3.83-3.2l35.76-116.09A7,7,0,0,0,694.91,427.37Z" transform="translate(-61.91 -228.47)"/><path class="cls-20" d="M456.52,648.7a12,12,0,0,1-5.86-1.37h0l-63.32-36.57a4.61,4.61,0,0,1-2.61-3.9,6,6,0,0,1,3.5-4.84l32.59-18.83a14.57,14.57,0,0,1,13.39-.52l63.27,36.55a4.57,4.57,0,0,1,2.61,3.9,6,6,0,0,1-3.5,4.84L464,646.79A15.16,15.16,0,0,1,456.52,648.7Zm-28.2-65.55a13.76,13.76,0,0,0-6.58,1.68l-32.61,18.83c-1.67,1-2.57,2.14-2.57,3.26a2.82,2.82,0,0,0,1.67,2.31l63.34,36.57a13,13,0,0,0,11.48-.5l32.62-18.83c1.68-1,2.58-2.14,2.58-3.35a2.89,2.89,0,0,0-1.67-2.31l-63.36-36.57a9.91,9.91,0,0,0-4.9-1.09Z" transform="translate(-61.91 -228.47)"/><path class="cls-15" d="M575.31,397l-9.77-5.66a2.51,2.51,0,0,1-1.09-2.81h0a1.45,1.45,0,0,1,1.71-1.11,1.68,1.68,0,0,1,.48.2l9.84,5.63a2.55,2.55,0,0,1,1.09,2.81h0a1.45,1.45,0,0,1-1.69,1.17A1.3,1.3,0,0,1,575.31,397Z" transform="translate(-61.91 -228.47)"/><path class="cls-15" d="M598.6,410.45l-14.42-8.37a2.52,2.52,0,0,1-1.08-2.81h0a1.42,1.42,0,0,1,1.69-1.12,1.28,1.28,0,0,1,.5.2l14.41,8.37a2.57,2.57,0,0,1,1.09,2.81h0a1.44,1.44,0,0,1-1.7,1.12A1.24,1.24,0,0,1,598.6,410.45Z" transform="translate(-61.91 -228.47)"/><path class="cls-15" d="M555.59,440.53l-9.77-5.66a2.58,2.58,0,0,1-1.09-2.81h0a1.45,1.45,0,0,1,1.71-1.11,1.57,1.57,0,0,1,.48.2l9.78,5.64a2.59,2.59,0,0,1,1.09,2.82h0a1.46,1.46,0,0,1-1.74,1.1A1.3,1.3,0,0,1,555.59,440.53Z" transform="translate(-61.91 -228.47)"/><path class="cls-15" d="M576.35,452.5l-14.41-8.37a2.54,2.54,0,0,1-1.09-2.82h0a1.44,1.44,0,0,1,1.71-1.1,1.36,1.36,0,0,1,.48.2l14.41,8.37a2.55,2.55,0,0,1,1.09,2.81h0a1.44,1.44,0,0,1-1.71,1.11A1.68,1.68,0,0,1,576.35,452.5Z" transform="translate(-61.91 -228.47)"/><path class="cls-15" d="M546,389.24l-6.11-3.51a2.59,2.59,0,0,1-1.09-2.82h0a1.46,1.46,0,0,1,1.73-1.11,1.34,1.34,0,0,1,.48.19l6.11,3.54a2.52,2.52,0,0,1,1.07,2.81h0a1.43,1.43,0,0,1-1.71,1.1A1.26,1.26,0,0,1,546,389.24Z" transform="translate(-61.91 -228.47)"/><path class="cls-15" d="M564.4,409l-18.66-10.73a2.55,2.55,0,0,1-1.09-2.81h0a1.44,1.44,0,0,1,1.74-1.1,1.6,1.6,0,0,1,.47.19l18.64,10.77a2.54,2.54,0,0,1,1.09,2.81h0a1.45,1.45,0,0,1-1.77,1.05A1.57,1.57,0,0,1,564.4,409Z" transform="translate(-61.91 -228.47)"/><path class="cls-15" d="M547.19,417.36l-6.11-3.51A2.59,2.59,0,0,1,540,411h0a1.45,1.45,0,0,1,1.7-1.12,1.69,1.69,0,0,1,.5.2l6.11,3.54a2.55,2.55,0,0,1,1.08,2.81h0a1.43,1.43,0,0,1-1.71,1.1A1.26,1.26,0,0,1,547.19,417.36Z" transform="translate(-61.91 -228.47)"/><path class="cls-15" d="M578.59,472.1l-16.3-9.41a2.58,2.58,0,0,1-1.09-2.81h0a1.45,1.45,0,0,1,1.7-1.13,1.43,1.43,0,0,1,.49.21l16.32,9.42a2.55,2.55,0,0,1,1.09,2.81h0a1.44,1.44,0,0,1-1.74,1.1A1.72,1.72,0,0,1,578.59,472.1Z" transform="translate(-61.91 -228.47)"/><path class="cls-15" d="M540.35,431.76l-3.92-2.28a2.55,2.55,0,0,1-1.09-2.79h0a1.44,1.44,0,0,1,1.7-1.13,1.63,1.63,0,0,1,.49.2l3.92,2.26a2.53,2.53,0,0,1,1.09,2.82h0a1.47,1.47,0,0,1-2.19.92Z" transform="translate(-61.91 -228.47)"/><path class="cls-15" d="M536.63,447.88l-4.85-2.82a2.51,2.51,0,0,1-1.09-2.81h0a1.43,1.43,0,0,1,1.71-1.1,1.26,1.26,0,0,1,.48.2l4.87,2.79a2.59,2.59,0,0,1,1.09,2.82h0a1.45,1.45,0,0,1-1.73,1.11A1.42,1.42,0,0,1,536.63,447.88Z" transform="translate(-61.91 -228.47)"/><path class="cls-15" d="M555.58,458.81l-12.84-7.4a2.58,2.58,0,0,1-1.09-2.81h0a1.44,1.44,0,0,1,1.7-1.13,1.63,1.63,0,0,1,.49.2l12.84,7.42a2.55,2.55,0,0,1,1.09,2.81h0a1.45,1.45,0,0,1-1.71,1.11A1.68,1.68,0,0,1,555.58,458.81Z" transform="translate(-61.91 -228.47)"/><path class="cls-15" d="M538.67,458.2l-9.24-5.34a2.51,2.51,0,0,1-1.07-2.79h0a1.44,1.44,0,0,1,1.7-1.12,1.24,1.24,0,0,1,.49.2l9.23,5.32a2.58,2.58,0,0,1,1.09,2.81h0a1.45,1.45,0,0,1-1.7,1.13A1.48,1.48,0,0,1,538.67,458.2Z" transform="translate(-61.91 -228.47)"/><path class="cls-15" d="M592.59,480.3,586.66,477a2.58,2.58,0,0,1-1.09-2.81h0a1.48,1.48,0,0,1,1.77-1.1,1.14,1.14,0,0,1,.44.18l5.93,3.34a2.59,2.59,0,0,1,1.09,2.82h0a1.47,1.47,0,0,1-1.73,1.12A1.57,1.57,0,0,1,592.59,480.3Z" transform="translate(-61.91 -228.47)"/><path class="cls-15" d="M569.91,430.48l-16.31-9.42a2.53,2.53,0,0,1-1.09-2.81h0a1.45,1.45,0,0,1,1.71-1.11,1.43,1.43,0,0,1,.49.21l16.3,9.4a2.55,2.55,0,0,1,1.09,2.81h0a1.44,1.44,0,0,1-1.7,1.13A1.43,1.43,0,0,1,569.91,430.48Z" transform="translate(-61.91 -228.47)"/><path class="cls-24" d="M571.83,422.45,543.38,406a2.53,2.53,0,0,1-1.09-2.8h0a1.45,1.45,0,0,1,1.73-1.11,1.42,1.42,0,0,1,.48.19L573,418.72a2.58,2.58,0,0,1,1.09,2.81h0a1.45,1.45,0,0,1-1.73,1.12A1.68,1.68,0,0,1,571.83,422.45Z" transform="translate(-61.91 -228.47)"/><path class="cls-24" d="M555.06,431.07l-16.3-9.36a2.54,2.54,0,0,1-1.09-2.81h0a1.43,1.43,0,0,1,1.71-1.1,1.26,1.26,0,0,1,.48.2l16.32,9.4a2.59,2.59,0,0,1,1.09,2.82h0a1.48,1.48,0,0,1-1.81,1A1.44,1.44,0,0,1,555.06,431.07Z" transform="translate(-61.91 -228.47)"/><path class="cls-24" d="M582.28,437.63l-5.93-3.35a2.57,2.57,0,0,1-1.09-2.81h0a1.43,1.43,0,0,1,1.71-1.1,1.2,1.2,0,0,1,.48.2l5.93,3.35a2.51,2.51,0,0,1,1.09,2.81h0a1.46,1.46,0,0,1-1.75,1.09A1.34,1.34,0,0,1,582.28,437.63Z" transform="translate(-61.91 -228.47)"/><path class="cls-24" d="M642.55,435.82,607.4,415.57a2.53,2.53,0,0,1-1.09-2.81h0a1.44,1.44,0,0,1,1.7-1.12,1.24,1.24,0,0,1,.49.2l35.15,20.25a2.52,2.52,0,0,1,1.09,2.81h0A1.44,1.44,0,0,1,643,436,1.51,1.51,0,0,1,642.55,435.82Z" transform="translate(-61.91 -228.47)"/><path class="cls-25" d="M553.7,448.58l-19.6-11.32a2.54,2.54,0,0,1-1.09-2.81h0a1.44,1.44,0,0,1,1.7-1.12,1.28,1.28,0,0,1,.5.2l19.6,11.32a2.54,2.54,0,0,1,1.09,2.81h0a1.44,1.44,0,0,1-1.7,1.12A1.46,1.46,0,0,1,553.7,448.58Z" transform="translate(-61.91 -228.47)"/><path class="cls-25" d="M556.67,386.23l-14.43-8.37a2.52,2.52,0,0,1-1.07-2.81h0a1.44,1.44,0,0,1,1.71-1.11,1.68,1.68,0,0,1,.48.2l14.41,8.37a2.56,2.56,0,0,1,1.09,2.81h0a1.44,1.44,0,0,1-1.71,1.11A1.57,1.57,0,0,1,556.67,386.23Z" transform="translate(-61.91 -228.47)"/><path class="cls-24" d="M535.66,465.6,518.92,456a2.59,2.59,0,0,1-1.09-2.82h0a1.46,1.46,0,0,1,1.73-1.11,1.34,1.34,0,0,1,.48.19l16.74,9.65a2.56,2.56,0,0,1,1.09,2.81h0a1.42,1.42,0,0,1-1.7,1.11A1.35,1.35,0,0,1,535.66,465.6Z" transform="translate(-61.91 -228.47)"/><path class="cls-15" d="M646.48,417.78l-7.13-4.13a1.85,1.85,0,0,1-.8-2h0a1,1,0,0,1,1.21-.86.94.94,0,0,1,.46.19l7.15,4.12a1.89,1.89,0,0,1,.79,2.06h0a1.06,1.06,0,0,1-1.22.87A1.18,1.18,0,0,1,646.48,417.78Z" transform="translate(-61.91 -228.47)"/><path class="cls-15" d="M660.17,425.65,653,421.53a1.89,1.89,0,0,1-.81-2.06h0a1.07,1.07,0,0,1,1.22-.87,1.18,1.18,0,0,1,.46.2l7.15,4.12a1.88,1.88,0,0,1,.8,2.06h0a1.05,1.05,0,0,1-1.21.86A1,1,0,0,1,660.17,425.65Z" transform="translate(-61.91 -228.47)"/><path class="cls-15" d="M673.75,433.51l-7.15-4.11a1.83,1.83,0,0,1-.78-2.06h0a1,1,0,0,1,1.21-.82.89.89,0,0,1,.38.15l7.14,4.12a1.87,1.87,0,0,1,.81,2h0a1.06,1.06,0,0,1-1.25.82A.82.82,0,0,1,673.75,433.51Z" transform="translate(-61.91 -228.47)"/><path class="cls-25" d="M680.44,437.38l-.21-.12a1.88,1.88,0,0,1-.79-2.06h0a1.05,1.05,0,0,1,1.21-.86,1,1,0,0,1,.46.2l.22.13a1.87,1.87,0,0,1,.79,2h0a1.06,1.06,0,0,1-1.21.87A1.16,1.16,0,0,1,680.44,437.38Z" transform="translate(-61.91 -228.47)"/><path class="cls-26" d="M311.69,521a26.13,26.13,0,0,1-13.09-3.49h0l-47.86-27.64a6.68,6.68,0,0,1-2.29-9.18,6.55,6.55,0,0,1,2.29-2.3l47.89-27.62a26.17,26.17,0,0,1,26.16,0l47.86,27.64a6.59,6.59,0,0,1,0,11.46l-47.86,27.64A26.16,26.16,0,0,1,311.69,521Zm-11.54-6.19a23.14,23.14,0,0,0,23.05,0l47.86-27.63a3.5,3.5,0,0,0,0-6.08L323.2,453.52a23.09,23.09,0,0,0-23.05,0L252.3,481.15a3.5,3.5,0,0,0-1.31,4.77,3.58,3.58,0,0,0,1.31,1.31Z" transform="translate(-61.91 -228.47)"/><ellipse class="cls-10" cx="249.54" cy="256.33" rx="32.87" ry="18.98"/><path class="cls-27" d="M360.18,349.51H266.44l8.76,101.38h0c0,5.64,3.71,11.26,11.16,15.56,14.88,8.59,39,8.59,53.9,0,7.43-4.3,11.15-9.92,11.15-15.56Z" transform="translate(-61.91 -228.47)"/><path class="cls-20" d="M360.18,349.51H266.44l1.44,16.73a36.08,36.08,0,0,0,8.69,7.8c17.89,11.87,47.4,14.16,67.55,5.61L341,453.8a14.61,14.61,0,0,1-3.35,8.86c-3,3.56-8.87,7.76-20.08,10.14a53.33,53.33,0,0,0,22.68-6.29c7.43-4.31,11.15-9.93,11.15-15.57l7-81.3h0Z" transform="translate(-61.91 -228.47)"/><ellipse class="cls-20" cx="251.45" cy="121.05" rx="46.82" ry="27.03"/><ellipse class="cls-20" cx="251.45" cy="111.51" rx="40.32" ry="23.28"/><path class="cls-28" d="M362.94,348.23h0a.38.38,0,0,0,0-.15l-.89-9.07v.1c-.4-6.86-5.12-13.67-14.21-18.91-19-11-49.83-11-68.84,0-9.31,5.37-14.05,12.38-14.23,19.43h0l-.86,8.08v.76h0c-.5,7.7,4.32,15.5,14.5,21.37,19.4,11.2,50.83,11.2,70.3,0C358.7,363.85,363.52,356,362.94,348.23Z" transform="translate(-61.91 -228.47)"/><ellipse class="cls-29" cx="251.45" cy="111.51" rx="40.32" ry="23.28"/><ellipse class="cls-30" cx="249.54" cy="111.51" rx="40.32" ry="23.28"/><path class="cls-20" d="M289.62,327c15.76-9.09,41.28-9.09,57,0l.57.35a31.56,31.56,0,0,0-5.36-3.81c-15.75-9.11-41.27-9.11-57,0s-15.72,23.43-.57,32.55C274.16,347.06,275.93,334.89,289.62,327Z" transform="translate(-61.91 -228.47)"/><path class="cls-31" d="M284.84,327.56c15.75-9.09,41.27-9.09,57,0,7,4,10.87,9.17,11.72,14.45,1-6.62-2.88-13.39-11.72-18.42-15.75-9.1-41.27-9.1-57,0-8.77,5-12.64,11.87-11.72,18.42C274,336.73,277.86,331.6,284.84,327.56Z" transform="translate(-61.91 -228.47)"/><path class="cls-32" d="M348.07,320.35c-19-11.18-49.91-11.47-69.09-.62s-19.33,28.7-.35,39.89,49.91,11.46,69.09.61S367.06,331.53,348.07,320.35Zm-6.21,36.08a52.6,52.6,0,0,1-18.41,6.05l-.73-2.41a2.33,2.33,0,0,0-2.21-1.68H306a2.31,2.31,0,0,0-2.21,1.68l-.74,2.41a53.08,53.08,0,0,1-18.41-6.05c-15.75-9.1-15.75-23.83,0-32.92s41.28-9.1,57,0S357.62,347.35,341.86,356.43Z" transform="translate(-61.91 -228.47)"/><path class="cls-15" d="M341.86,321.8c-15.75-9.1-41.27-9.1-57,0-8.25,4.76-12.17,11.08-11.72,17.33.35-5.68,4.27-11.28,11.72-15.6,15.75-9.11,41.27-9.11,57,0,7.5,4.32,11.42,9.92,11.72,15.6C354,332.88,350.12,326.56,341.86,321.8Z" transform="translate(-61.91 -228.47)"/><path class="cls-15" d="M347.72,358.51c-19.18,10.85-50.11,10.58-69.09-.62-9-5.3-13.73-12.15-14.1-19-.36,7.43,4.31,15,14.1,20.74,19,11.19,49.91,11.46,69.09.61,10-5.69,14.87-13.39,14.45-20.87C361.82,346.39,357,353.25,347.72,358.51Z" transform="translate(-61.91 -228.47)"/><rect class="cls-33" x="246.03" y="132.93" width="10.85" height="2.34" rx="1.09"/><path class="cls-34" d="M317.68,361.46H309a1.08,1.08,0,0,0-1.08,1.08v.15a1.6,1.6,0,0,0,0,.31,1.07,1.07,0,0,1,1-.81h8.66a1.08,1.08,0,0,1,1,.81,1.61,1.61,0,0,0,0-.31v-.15A1.09,1.09,0,0,0,317.68,361.46Z" transform="translate(-61.91 -228.47)"/><path class="cls-35" d="M316.42,362.58s26.18-8.77,15.59-38.87-31.25-39.25-22.94-63.3c0,0-13,19.48-.85,45.83s14.85,23.33,14.7,35.93a22.77,22.77,0,0,1-12.27,20.41Z" transform="translate(-61.91 -228.47)"/><path class="cls-35" d="M318.72,264.59s-2.72-18,14.16-36.12c0,0-14.93,33.33-10.05,49.8C322.88,278.27,318.93,267.81,318.72,264.59Z" transform="translate(-61.91 -228.47)"/><path class="cls-15" d="M302.73,416.69a9.24,9.24,0,0,1,2.29.72,5,5,0,0,1,1.43,1.07,3.87,3.87,0,0,1,.78,1.68,11.55,11.55,0,0,1,.24,2.49v8.24a2.76,2.76,0,0,0,.43,1.77,2.11,2.11,0,0,0,1.53.54v.65l-1.85-.19-2.41-.23c-.82,0-1.67-.17-2.39-.22l-1.79-.16v-.67a1.27,1.27,0,0,0,1.26-.29,2.94,2.94,0,0,0,.35-1.67v-9.68a6,6,0,0,0-.14-1.39,2.14,2.14,0,0,0-.52-1,2.23,2.23,0,0,0-1.17-.57,2.46,2.46,0,0,0-1.67.08,2.37,2.37,0,0,0-1.19,1,3.35,3.35,0,0,0-.45,1.78v8.88a3.47,3.47,0,0,0,.37,1.9,1.74,1.74,0,0,0,1.23.71v.67l-1.67-.4-2.11-.63-2.61-.59-2-.47V430a2.14,2.14,0,0,0,1.68,0c.33-.22.48-.82.48-1.67V417.91a5.22,5.22,0,0,0-.45-2.37,3.09,3.09,0,0,0-1.67-1.41v-.79c.72.37,1.41.69,2.05,1a22.71,22.71,0,0,0,2.53.72,15.73,15.73,0,0,0,2.26.4v2.95a3.34,3.34,0,0,1,2.18-1.68A7.63,7.63,0,0,1,302.73,416.69Zm10.19,1a8.15,8.15,0,0,1,2.31.25,3.68,3.68,0,0,1,1.43.77,3,3,0,0,1,.78,1.44,10.66,10.66,0,0,1,.24,2.45v8.25a2.24,2.24,0,0,0,.48,1.67,2.18,2.18,0,0,0,1.68.32v.62l-1.93.08h-2.53l-2.41.1h-1.79V433a1.43,1.43,0,0,0,1.28-.43,3.17,3.17,0,0,0,.35-1.68v-9.47a4.87,4.87,0,0,0-.15-1.32,1.7,1.7,0,0,0-.57-.89,2.25,2.25,0,0,0-1.31-.35,3,3,0,0,0-2.31.92,3.57,3.57,0,0,0-1,2.51c0-.64-.12-1.27-.17-1.89a4.55,4.55,0,0,1,2.43-2.3,9.45,9.45,0,0,1,3.21-.41Z" transform="translate(-61.91 -228.47)"/><path class="cls-15" d="M327.75,415.34a9.07,9.07,0,0,1,2.46-.47,4.37,4.37,0,0,1,1.53.12c.75.21,1.22-.31,1.39-1.56l.7-.29c0,.64-.08,1.43-.1,2.33s0,2.11,0,3.6l-.7.27a8,8,0,0,0-.62-2.2,2.93,2.93,0,0,0-1.36-1.44,3.12,3.12,0,0,0-2.29,0,4,4,0,0,0-1.68,1,2.33,2.33,0,0,0-.66,1.67,2,2,0,0,0,.6,1.52,5,5,0,0,0,1.55.94l2,.82a14,14,0,0,1,2.81,1.54,3.34,3.34,0,0,1,1.15,2.9,5.41,5.41,0,0,1-.87,2.89,7.83,7.83,0,0,1-2.29,2.33,8.91,8.91,0,0,1-3.16,1.29,7.69,7.69,0,0,1-1.79.15,6.43,6.43,0,0,1-1.38-.24l-.82-.23c-.25-.08-.5-.13-.72-.19a.56.56,0,0,0-.58.31,2.53,2.53,0,0,0-.4.92l-.71.08c0-.67.09-1.47.1-2.43s0-2.21,0-3.8c.24,0,.47-.08.71-.1a10.18,10.18,0,0,0,.73,2.87,4.05,4.05,0,0,0,1.46,1.79,3.13,3.13,0,0,0,2.34.33,3.21,3.21,0,0,0,1.68-.87,2.45,2.45,0,0,0,.73-1.92,2.48,2.48,0,0,0-.94-2.13,16.63,16.63,0,0,0-2.44-1.44c-.72-.4-1.39-.8-2-1.22a5.64,5.64,0,0,1-1.58-1.46A3.48,3.48,0,0,1,322,421a4.15,4.15,0,0,1,.82-2.51,7.41,7.41,0,0,1,2.14-1.92A12.08,12.08,0,0,1,327.75,415.34Z" transform="translate(-61.91 -228.47)"/></svg>