<svg id="Warstwa_1" data-name="Warstwa 1" xmlns="http://www.w3.org/2000/svg" xmlns:xlink="http://www.w3.org/1999/xlink" viewBox="0 0 856.56 588.7"><defs><style>.cls-1{fill:#14152c;opacity:0.6;}.cls-1,.cls-20,.cls-22,.cls-38{isolation:isolate;}.cls-2{fill:url(#Gradient_bez_nazwy);}.cls-3{fill:url(#Gradient_bez_nazwy_2);}.cls-4{fill:url(#Gradient_bez_nazwy_3);}.cls-5{fill:url(#Gradient_bez_nazwy_4);}.cls-6{fill:url(#Gradient_bez_nazwy_5);}.cls-7{fill:url(#Gradient_bez_nazwy_6);}.cls-8{fill:url(#Gradient_bez_nazwy_7);}.cls-9{fill:url(#Gradient_bez_nazwy_8);}.cls-10{fill:url(#Gradient_bez_nazwy_9);}.cls-11{fill:url(#Gradient_bez_nazwy_10);}.cls-12{fill:url(#Gradient_bez_nazwy_11);}.cls-13{fill:url(#Gradient_bez_nazwy_12);}.cls-14{fill:url(#Gradient_bez_nazwy_14);}.cls-15{fill:url(#Gradient_bez_nazwy_15);}.cls-16,.cls-20{opacity:0.4;}.cls-17,.cls-20,.cls-22{fill:#1a1a38;}.cls-18{fill:url(#Gradient_bez_nazwy_16);}.cls-19{fill:url(#Gradient_bez_nazwy_17);}.cls-21{opacity:0.22;fill:url(#Gradient_bez_nazwy_18);}.cls-22,.cls-24,.cls-38{opacity:0.5;}.cls-23{fill:url(#Gradient_bez_nazwy_19);}.cls-25{fill:#003566;}.cls-26,.cls-38{fill:#fff;}.cls-27{fill:#e8975b;}.cls-28{fill:#e64491;}.cls-29{fill:url(#Gradient_bez_nazwy_20);}.cls-30{fill:url(#Gradient_bez_nazwy_21);}.cls-31{fill:url(#Gradient_bez_nazwy_22);}.cls-32{fill:url(#Gradient_bez_nazwy_23);}.cls-33{fill:url(#Gradient_bez_nazwy_24);}.cls-34{fill:url(#Gradient_bez_nazwy_25);}.cls-35{fill:url(#Gradient_bez_nazwy_26);}.cls-36{fill:#272d66;}.cls-37{fill:url(#Gradient_bez_nazwy_27);}</style><linearGradient id="Gradient_bez_nazwy" x1="887.72" y1="324.83" x2="942.36" y2="324.83" gradientTransform="translate(-137.08 125.98)" gradientUnits="userSpaceOnUse"><stop offset="0" stop-color="#457b9d"/><stop offset="1" stop-color="#1d3557"/></linearGradient><linearGradient id="Gradient_bez_nazwy_2" x1="691.43" y1="423.51" x2="824.63" y2="423.51" xlink:href="#Gradient_bez_nazwy"/><linearGradient id="Gradient_bez_nazwy_3" x1="447.63" y1="23.81" x2="580.83" y2="23.81" xlink:href="#Gradient_bez_nazwy"/><linearGradient id="Gradient_bez_nazwy_4" x1="813.02" y1="250.05" x2="904.67" y2="250.05" xlink:href="#Gradient_bez_nazwy"/><linearGradient id="Gradient_bez_nazwy_5" x1="902.05" y1="174.75" x2="993.67" y2="174.75" xlink:href="#Gradient_bez_nazwy"/><linearGradient id="Gradient_bez_nazwy_6" x1="643.96" y1="19.52" x2="884.77" y2="19.52" xlink:href="#Gradient_bez_nazwy"/><linearGradient id="Gradient_bez_nazwy_7" x1="237.09" y1="108.01" x2="322.5" y2="108.01" xlink:href="#Gradient_bez_nazwy"/><linearGradient id="Gradient_bez_nazwy_8" x1="137.11" y1="200.22" x2="279.75" y2="200.22" xlink:href="#Gradient_bez_nazwy"/><linearGradient id="Gradient_bez_nazwy_9" x1="208.39" y1="280.85" x2="300.07" y2="280.85" xlink:href="#Gradient_bez_nazwy"/><linearGradient id="Gradient_bez_nazwy_10" x1="315.28" y1="274.87" x2="804.58" y2="274.87" xlink:href="#Gradient_bez_nazwy"/><linearGradient id="Gradient_bez_nazwy_11" x1="322.62" y1="129.71" x2="451.11" y2="129.71" xlink:href="#Gradient_bez_nazwy"/><linearGradient id="Gradient_bez_nazwy_12" x1="525.76" y1="87.75" x2="835.6" y2="87.75" gradientTransform="translate(-137.08 125.98)" gradientUnits="userSpaceOnUse"><stop offset="0" stop-color="#003566"/><stop offset="1" stop-color="#1d1d1b"/></linearGradient><linearGradient id="Gradient_bez_nazwy_14" x1="352.51" y1="233.29" x2="768.95" y2="233.29" xlink:href="#Gradient_bez_nazwy"/><linearGradient id="Gradient_bez_nazwy_15" x1="215.47" y1="183.27" x2="631.76" y2="183.27" gradientTransform="matrix(1, 0, 0, -1, 0, 590)" xlink:href="#Gradient_bez_nazwy"/><linearGradient id="Gradient_bez_nazwy_16" x1="446.47" y1="-265.1" x2="756.31" y2="-265.1" gradientTransform="matrix(1, 0, 0, -1, -61.89, -50.47)" xlink:href="#Gradient_bez_nazwy"/><linearGradient id="Gradient_bez_nazwy_17" x1="526.85" y1="88.75" x2="826.41" y2="88.75" gradientTransform="translate(-137.08 125.98)" gradientUnits="userSpaceOnUse"><stop offset="0" stop-color="#3b3c90"/><stop offset="1" stop-color="#4c4797"/></linearGradient><linearGradient id="Gradient_bez_nazwy_18" x1="389.77" y1="375.27" x2="689.33" y2="375.27" gradientTransform="matrix(1, 0, 0, -1, 0, 590)" xlink:href="#Gradient_bez_nazwy"/><radialGradient id="Gradient_bez_nazwy_19" cx="349.3" cy="-521.26" r="582.24" gradientTransform="matrix(1, 0, 0, -1, -61.89, -50.47)" gradientUnits="userSpaceOnUse"><stop offset="0" stop-color="#e39a65"/><stop offset="0.47" stop-color="#6f4a98"/><stop offset="0.59" stop-color="#5c4797"/><stop offset="0.73" stop-color="#4c4797"/><stop offset="1" stop-color="#3b3c90"/></radialGradient><linearGradient id="Gradient_bez_nazwy_20" x1="204.6" y1="407.27" x2="298.3" y2="407.27" gradientTransform="matrix(1, 0, 0, -1, 0, 590)" xlink:href="#Gradient_bez_nazwy"/><linearGradient id="Gradient_bez_nazwy_21" x1="201.96" y1="473.37" x2="301.05" y2="473.37" gradientTransform="matrix(1, 0, 0, -1, 0, 590)" xlink:href="#Gradient_bez_nazwy"/><linearGradient id="Gradient_bez_nazwy_22" x1="273.09" y1="-52.03" x2="353.69" y2="-52.03" gradientTransform="translate(-61.92 163.53)" gradientUnits="userSpaceOnUse"><stop offset="0" stop-color="#424898"/><stop offset="1" stop-color="#6f4a98"/></linearGradient><linearGradient id="Gradient_bez_nazwy_23" x1="209.3" y1="478.5" x2="289.9" y2="478.5" gradientTransform="matrix(1, 0, 0, -1, -0.03, 590)" xlink:href="#Gradient_bez_nazwy"/><linearGradient id="Gradient_bez_nazwy_24" x1="211.07" y1="489.11" x2="291.75" y2="489.11" gradientTransform="matrix(1, 0, 0, -1, 0, 590)" xlink:href="#Gradient_bez_nazwy"/><linearGradient id="Gradient_bez_nazwy_25" x1="202.61" y1="478.45" x2="300.33" y2="478.45" gradientTransform="matrix(1, 0, 0, -1, 0, 590)" xlink:href="#Gradient_bez_nazwy"/><linearGradient id="Gradient_bez_nazwy_26" x1="211.26" y1="491.46" x2="291.73" y2="491.46" gradientTransform="matrix(1, 0, 0, -1, 0, 590)" xlink:href="#Gradient_bez_nazwy"/><linearGradient id="Gradient_bez_nazwy_27" x1="382.16" y1="7.77" x2="396.23" y2="7.77" gradientTransform="translate(-137.08 125.98)" gradientUnits="userSpaceOnUse"><stop offset="0" stop-color="#262857"/><stop offset="0.19" stop-color="#262859"/><stop offset="0.28" stop-color="#282a5f"/><stop offset="0.36" stop-color="#2c2a6b"/><stop offset="0.42" stop-color="#30277a"/><stop offset="0.48" stop-color="#3d3189"/><stop offset="0.54" stop-color="#473c90"/><stop offset="0.58" stop-color="#4f4395"/><stop offset="0.61" stop-color="#524697"/><stop offset="0.62" stop-color="#564596"/><stop offset="0.68" stop-color="#7d4896"/><stop offset="0.75" stop-color="#b85e9e"/><stop offset="0.81" stop-color="#cc7680"/><stop offset="0.88" stop-color="#dd896d"/><stop offset="0.94" stop-color="#e5935f"/><stop offset="1" stop-color="#e8975b"/></linearGradient></defs><path class="cls-1" d="M459.6,518.4,217.8,378.9c-3.5-2-3.1-5.6,1-7.9L374,281.3c4.1-2.4,10.2-2.6,13.8-.6L629.5,420.3c3.5,2,3.1,5.6-1,7.9L473.3,517.8C469.2,520.2,463.1,520.5,459.6,518.4Z" transform="translate(-0.03)"/><path class="cls-2" d="M778,466.9a10.8,10.8,0,0,1-5.8-1.6L752.5,454a3.63,3.63,0,0,1-1.4-4.9h0V449a3.76,3.76,0,0,1,1.4-1.4l19.6-11.3a11.65,11.65,0,0,1,11.7,0l19.6,11.3a3.63,3.63,0,0,1,1.4,5h0a3.76,3.76,0,0,1-1.4,1.4l-19.6,11.4A12.49,12.49,0,0,1,778,466.9Zm0-29a9.16,9.16,0,0,0-4.3,1.1l-19.6,11.3a.57.57,0,0,0,0,1l19.6,11.4h0a8.59,8.59,0,0,0,8.5,0l19.6-11.3a.57.57,0,0,0,0-1l-19.6-11.3a8.56,8.56,0,0,0-4.2-1.2Z" transform="translate(-0.03)"/><path class="cls-3" d="M620.9,588.7a28.23,28.23,0,0,1-14.2-3.8l-47.9-27.7a8.92,8.92,0,0,1-3.3-12.1,8.72,8.72,0,0,1,3.3-3.3l47.9-27.7a28.64,28.64,0,0,1,28.6,0l47.8,27.5a8.92,8.92,0,0,1,3.3,12.1,8.72,8.72,0,0,1-3.3,3.3l-47.9,27.7A27.54,27.54,0,0,1,620.9,588.7Zm0-70.7a20,20,0,0,0-10.4,2.8l-47.9,27.6a1.39,1.39,0,0,0-.7,1.2,1.23,1.23,0,0,0,.7,1.1l47.9,27.8h0a21.06,21.06,0,0,0,20.9,0l47.9-27.7a1.23,1.23,0,0,0,.7-1.1,1.08,1.08,0,0,0-.7-1.1l-47.9-27.7a20.5,20.5,0,0,0-10.5-2.9Z" transform="translate(-0.03)"/><path class="cls-4" d="M377.1,189a28.23,28.23,0,0,1-14.2-3.8L315,157.5a8.92,8.92,0,0,1-3.3-12.1,8.72,8.72,0,0,1,3.3-3.3l47.9-27.7a28.64,28.64,0,0,1,28.6,0L439.3,142a8.92,8.92,0,0,1,3.3,12.1,8.72,8.72,0,0,1-3.3,3.3L391.4,185A29.09,29.09,0,0,1,377.1,189Zm0-70.7a21,21,0,0,0-10.4,2.7l-47.9,27.6a1.08,1.08,0,0,0-.6,1.1,1.15,1.15,0,0,0,.6,1.1l47.9,27.8h0a21.06,21.06,0,0,0,20.9,0L435.5,151a1,1,0,0,0,.6-1.1,1.15,1.15,0,0,0-.6-1.1l-47.9-27.7a21.42,21.42,0,0,0-10.5-2.8Z" transform="translate(-0.03)"/><path class="cls-5" d="M721.8,402.5a19.81,19.81,0,0,1-9.5-2.5l-33.8-19.5a5.2,5.2,0,0,1-1.9-7,5,5,0,0,1,1.9-1.9l33.8-19.5a18.79,18.79,0,0,1,18.9,0L765,371.6a5.09,5.09,0,0,1,1.9,7,4.36,4.36,0,0,1-1.9,1.9L731.3,400A18.75,18.75,0,0,1,721.8,402.5Zm-7.9-5.2a15.91,15.91,0,0,0,15.8,0l33.8-19.5a1.94,1.94,0,0,0,1-1.7,2.06,2.06,0,0,0-1-1.7l-33.8-19.5a15.91,15.91,0,0,0-15.8,0l-33.8,19.5a1.94,1.94,0,0,0-.8,2.6,3,3,0,0,0,.8.8Z" transform="translate(-0.03)"/><path class="cls-6" d="M810.8,327.2a19.81,19.81,0,0,1-9.5-2.5l-33.8-19.5a5.08,5.08,0,0,1-1.8-7h0a5.46,5.46,0,0,1,1.8-1.9l33.8-19.5a18.79,18.79,0,0,1,18.9,0L854,296.3a5.11,5.11,0,0,1,1.9,7,5.75,5.75,0,0,1-1.9,1.9l-33.8,19.5A19.43,19.43,0,0,1,810.8,327.2Zm-8-5.2a15.91,15.91,0,0,0,15.8,0l33.8-19.5a1.94,1.94,0,0,0,1-1.7,2.06,2.06,0,0,0-1-1.7l-33.8-19.6a15.91,15.91,0,0,0-15.8,0L769,299.1a1.85,1.85,0,0,0-.8,2.5,3,3,0,0,0,.8.8Z" transform="translate(-0.03)"/><path class="cls-7" d="M627.3,215a50.67,50.67,0,0,1-24.9-6.6l-88.8-51.2a13.57,13.57,0,0,1-4.9-18.5,14.36,14.36,0,0,1,4.9-4.9l88.8-51.2a50.08,50.08,0,0,1,49.7,0l88.8,51.3a13.48,13.48,0,0,1,0,23.4l-88.8,51.2A51,51,0,0,1,627.3,215Zm-20.8-13.7a41.56,41.56,0,0,0,41.5,0l88.8-51.2a5,5,0,0,0,0-8.8L648,90a41.56,41.56,0,0,0-41.5,0l-88.8,51.3a5.09,5.09,0,0,0-2.6,4.4,5.31,5.31,0,0,0,2.6,4.4Z" transform="translate(-0.03)"/><path class="cls-8" d="M142.7,258.7a17.13,17.13,0,0,1-8.8-2.4l-31.5-18.2a4.76,4.76,0,0,1-1.7-6.6,4.62,4.62,0,0,1,1.7-1.7l31.5-18.2a17.82,17.82,0,0,1,17.6,0L183,229.8a4.76,4.76,0,0,1,1.8,6.5,5.16,5.16,0,0,1-1.8,1.8l-31.5,18.2A17.13,17.13,0,0,1,142.7,258.7Zm-7.4-4.9a15,15,0,0,0,14.8,0l31.5-18.2a1.7,1.7,0,0,0,.7-2.4h0a1.58,1.58,0,0,0-.7-.7L150,214.3a15,15,0,0,0-14.8,0l-31.5,18.2a1.7,1.7,0,0,0-.9,1.6,2.2,2.2,0,0,0,.9,1.6Z" transform="translate(-0.03)"/><path class="cls-9" d="M71.3,367.4a28.87,28.87,0,0,1-14.7-3.9L4,333.1a8,8,0,0,1,0-13.8l52.6-30.4a29.84,29.84,0,0,1,29.5,0l52.6,30.4a8,8,0,0,1,0,13.8L86.1,363.5A29.5,29.5,0,0,1,71.3,367.4ZM59,359.3a24.57,24.57,0,0,0,24.6,0l52.6-30.4a2.91,2.91,0,0,0,0-5.2L83.6,293.3a24.57,24.57,0,0,0-24.6,0L6.4,323.7a3.31,3.31,0,0,0-1.6,2.6,2.88,2.88,0,0,0,1.6,2.6Z" transform="translate(-0.03)"/><path class="cls-10" d="M117.2,433.3a19.81,19.81,0,0,1-9.5-2.5L73.9,411.3a5.11,5.11,0,0,1-1.9-7,5,5,0,0,1,1.9-1.9l33.8-19.5a18.79,18.79,0,0,1,18.9,0l33.8,19.5a5.11,5.11,0,0,1,1.9,7,5,5,0,0,1-1.9,1.9l-33.8,19.5A19.14,19.14,0,0,1,117.2,433.3Zm0-49.9a15.57,15.57,0,0,0-7.9,2.1L75.5,405a2.1,2.1,0,0,0-1,1.8,2.06,2.06,0,0,0,1,1.7l33.8,19.6h0a15.91,15.91,0,0,0,15.8,0l33.8-19.5a2,2,0,0,0,.7-2.7,2.34,2.34,0,0,0-.7-.7l-33.8-19.5a14.83,14.83,0,0,0-7.9-2.3Z" transform="translate(-0.03)"/><path class="cls-11" d="M465.1,543.6a15.24,15.24,0,0,1-7.6-1.8h0L181.6,382.5a6.15,6.15,0,0,1-3.4-5.2c0-2.4,1.7-4.8,4.6-6.5L370.9,260.6c5.2-3,12.7-3.4,17.2-.7L664,419.2a6.27,6.27,0,0,1,3.5,5.3c0,2.4-1.7,4.8-4.6,6.5L474.7,541.2A18.77,18.77,0,0,1,465.1,543.6ZM380.5,261.3a17.64,17.64,0,0,0-8.1,2L184.3,373.5c-1.9,1.1-3.1,2.5-3.1,3.8a3.64,3.64,0,0,0,1.9,2.6L459,539.2h0c3.5,2,10,1.7,14.1-.7L661.2,428.3c1.9-1.1,3.1-2.5,3.1-3.8a3.64,3.64,0,0,0-1.9-2.6L386.5,262.7A11.54,11.54,0,0,0,380.5,261.3Z" transform="translate(-0.03)"/><path class="cls-12" d="M249.8,292.5a26.23,26.23,0,0,1-13.1-3.5h0l-47.9-27.6a6.59,6.59,0,0,1-2.3-9.1h0a7.22,7.22,0,0,1,2.3-2.3l47.9-27.6a26.1,26.1,0,0,1,26.2,0L310.8,250a6.57,6.57,0,0,1,2.5,9,6.67,6.67,0,0,1-2.5,2.5L262.9,289A26.23,26.23,0,0,1,249.8,292.5Zm-11.5-6.2a23,23,0,0,0,23,0l47.9-27.6a3.48,3.48,0,0,0,1.3-4.8,4,4,0,0,0-1.3-1.3L261.3,225a23,23,0,0,0-23,0l-47.8,27.6a3.48,3.48,0,0,0-1.3,4.8,4,4,0,0,0,1.3,1.3Z" transform="translate(-0.03)"/><path class="cls-13" d="M693.7,186.4,452.9,47.4a6.09,6.09,0,0,0-4.9-.7h0l-4.5,1.5,1.6.3a6.9,6.9,0,0,0-1.5,2.8L389.1,228.1a10.73,10.73,0,0,0,4.4,11.9L634.4,379a5.63,5.63,0,0,0,1.8.7l-.6,1.3,4.2-1.5h0a7,7,0,0,0,3.9-4.5l54.4-176.8A10.59,10.59,0,0,0,693.7,186.4Z" transform="translate(-0.03)"/><path d="M625.7,385.6l.1.1L387.9,248.5c-3.5-2-9.6-1.8-13.6.6L220.6,337.8l-5.1-2,1.4,7.2h0a4.22,4.22,0,0,0,2.3,2.9L459.3,484.6c3.5,2,9.6,1.8,13.6-.6L627,395a6,6,0,0,0,3.3-3.8h0l1.4-7.1Z" transform="translate(-0.03)"/><path class="cls-14" d="M459.6,478.1,217.8,338.5c-3.5-2-3.1-5.6,1-7.9L374,241c4.1-2.3,10.2-2.6,13.8-.6L629.5,380c3.5,2,3.1,5.6-1,7.9L473.3,477.5C469.2,479.9,463.1,480.1,459.6,478.1Z" transform="translate(-0.03)"/><path class="cls-15" d="M628.4,386,473.2,475.6c-4.1,2.4-10.2,2.6-13.7.6L217.8,336.6a4.52,4.52,0,0,1-2.2-2.5,3.74,3.74,0,0,0,2.2,4.4L459.6,478c3.5,2,9.7,1.8,13.7-.6l155.1-89.6c2.7-1.5,3.8-3.6,3.2-5.4A6,6,0,0,1,628.4,386Z" transform="translate(-0.03)"/><g class="cls-16"><path class="cls-17" d="M333.1,315.9l-8.1-4.7c-.7-.4-.6-1.1.2-1.5l9.6-5.6a3,3,0,0,1,2.6-.1l8.2,4.7c.7.4.6,1-.2,1.5l-9.6,5.6A3.2,3.2,0,0,1,333.1,315.9Z" transform="translate(-0.03)"/><path class="cls-17" d="M345.7,323.1l-8.1-4.7c-.7-.4-.6-1,.2-1.5l9.6-5.6a3,3,0,0,1,2.6-.1l8.1,4.7c.7.4.6,1-.2,1.5l-9.6,5.5A2.69,2.69,0,0,1,345.7,323.1Z" transform="translate(-0.03)"/><path class="cls-17" d="M358.3,330.5l-8.2-4.7c-.7-.4-.6-1,.2-1.5l9.6-5.5a3,3,0,0,1,2.6-.1l8.2,4.7c.7.4.6,1-.2,1.5l-9.6,5.6A3.35,3.35,0,0,1,358.3,330.5Z" transform="translate(-0.03)"/><path class="cls-17" d="M375.8,324.4l-8.2-4.7c-.6-.4-.6-1,.2-1.5l8.1-4.7a3,3,0,0,1,2.6-.1l8.2,4.7c.6.4.6,1-.2,1.5l-8.1,4.7A3,3,0,0,1,375.8,324.4Z" transform="translate(-0.03)"/><path class="cls-17" d="M388.4,331.7l-8.2-4.7c-.6-.4-.6-1,.2-1.5l8.1-4.7a3,3,0,0,1,2.6-.1l8.2,4.7c.6.4.6,1-.2,1.5l-8.1,4.7A3.37,3.37,0,0,1,388.4,331.7Z" transform="translate(-0.03)"/><path class="cls-17" d="M401,339l-8.2-4.7c-.7-.4-.6-1.1.2-1.5l8.1-4.7a3,3,0,0,1,2.6-.1l8.2,4.7c.7.4.6,1-.2,1.5l-8.1,4.7A2.68,2.68,0,0,1,401,339Z" transform="translate(-0.03)"/><path class="cls-17" d="M413.6,346.2l-8.2-4.7c-.6-.4-.6-1,.2-1.5l8.1-4.7a3,3,0,0,1,2.6-.1l8.2,4.7c.6.4.6,1-.2,1.5l-8.1,4.6A2.47,2.47,0,0,1,413.6,346.2Z" transform="translate(-0.03)"/><path class="cls-17" d="M426.2,353.5l-8.2-4.7c-.6-.4-.6-1,.2-1.5l8.1-4.7a3,3,0,0,1,2.6-.1l8.2,4.7c.7.4.6,1-.2,1.5l-8.1,4.7A2.68,2.68,0,0,1,426.2,353.5Z" transform="translate(-0.03)"/><path class="cls-17" d="M438.8,360.8l-8.2-4.7c-.6-.4-.6-1,.2-1.5l8.1-4.7a3,3,0,0,1,2.6-.1l8.2,4.7c.6.4.6,1-.2,1.5l-8.1,4.6A3,3,0,0,1,438.8,360.8Z" transform="translate(-0.03)"/><path class="cls-17" d="M451.4,368.1l-8.2-4.7c-.6-.4-.6-1,.2-1.5l8.1-4.6a3,3,0,0,1,2.6-.1l8.2,4.7c.6.4.6,1-.2,1.5L454,368A3.36,3.36,0,0,1,451.4,368.1Z" transform="translate(-0.03)"/><path class="cls-17" d="M464,375.3l-8.2-4.7c-.7-.4-.6-1,.2-1.5l8.1-4.7a3,3,0,0,1,2.6-.1l8.2,4.7c.7.4.6,1-.2,1.5l-8.1,4.7A2.68,2.68,0,0,1,464,375.3Z" transform="translate(-0.03)"/><path class="cls-17" d="M476.6,382.6l-8.2-4.7c-.6-.4-.6-1,.2-1.5l8.1-4.7a3,3,0,0,1,2.6-.1l8.2,4.7c.6.4.6,1-.2,1.5l-8.1,4.7A2.68,2.68,0,0,1,476.6,382.6Z" transform="translate(-0.03)"/><path class="cls-17" d="M489.2,389.9l-8.1-4.7c-.7-.4-.6-1,.2-1.5l8.1-4.7a3,3,0,0,1,2.6-.1l8.2,4.7c.6.4.6,1-.2,1.5l-8.1,4.7A2.88,2.88,0,0,1,489.2,389.9Z" transform="translate(-0.03)"/><path class="cls-17" d="M394.3,321l-8.1-4.7c-.7-.4-.6-1,.2-1.5l8.1-4.7a2.67,2.67,0,0,1,2.6-.1l8.2,4.7c.6.4.6,1-.2,1.5l-8.1,4.7A3.19,3.19,0,0,1,394.3,321Z" transform="translate(-0.03)"/><path class="cls-17" d="M381.5,313.5l-8.2-4.7c-.6-.4-.6-1,.2-1.5l8.1-4.7a3,3,0,0,1,2.6-.1l8.2,4.7c.6.4.6,1-.2,1.5l-8.2,4.7A2.75,2.75,0,0,1,381.5,313.5Z" transform="translate(-0.03)"/><path class="cls-17" d="M368.7,306.2,351.1,296c-.7-.4-.6-1,.2-1.5l8.1-4.7a3,3,0,0,1,2.6-.1l17.6,10.1c.6.4.6,1-.2,1.5l-8.1,4.7A3,3,0,0,1,368.7,306.2Z" transform="translate(-0.03)"/><path class="cls-17" d="M377.7,297.2,363.4,289c-.6-.4-.6-1,.2-1.5l8.1-4.7a3,3,0,0,1,2.6-.1l14.3,8.2c.7.4.6,1-.2,1.5l-8.1,4.6A3,3,0,0,1,377.7,297.2Z" transform="translate(-0.03)"/><path class="cls-17" d="M406.9,328.2l-8.1-4.7c-.7-.4-.6-1,.2-1.5l8.1-4.7a2.76,2.76,0,0,1,2.5-.1l8.2,4.7c.7.4.6,1-.2,1.5l-8.1,4.7A2.67,2.67,0,0,1,406.9,328.2Z" transform="translate(-0.03)"/><path class="cls-17" d="M419.5,335.5l-8.1-4.7c-.7-.4-.6-1,.2-1.5l8.1-4.7a2.76,2.76,0,0,1,2.5-.1l8.2,4.7c.6.4.6,1-.2,1.5l-8.1,4.7A2.67,2.67,0,0,1,419.5,335.5Z" transform="translate(-0.03)"/><path class="cls-17" d="M432.1,342.8l-8.1-4.7c-.6-.4-.6-1.1.2-1.5l8.1-4.7a3,3,0,0,1,2.6-.1l8.1,4.7c.6.4.6,1-.2,1.5l-8.1,4.7A3,3,0,0,1,432.1,342.8Z" transform="translate(-0.03)"/><path class="cls-17" d="M444.8,350.1l-8.2-4.7c-.6-.4-.6-1,.2-1.5l8.1-4.7a3,3,0,0,1,2.6-.1l8.1,4.7c.7.4.6,1-.2,1.5l-8.1,4.7A3.11,3.11,0,0,1,444.8,350.1Z" transform="translate(-0.03)"/><path class="cls-17" d="M457.3,357.3l-8.1-4.8c-.7-.4-.6-1,.2-1.5l8.1-4.7a3,3,0,0,1,2.6-.1l8.1,4.7c.6.4.6,1-.2,1.5l-8.1,4.8A2.67,2.67,0,0,1,457.3,357.3Z" transform="translate(-0.03)"/><path class="cls-17" d="M469.9,364.6l-8.1-4.7c-.6-.4-.6-1,.2-1.5l8.1-4.7a3,3,0,0,1,2.6-.1l8.1,4.7c.7.4.6,1-.2,1.5l-8.1,4.7A2.67,2.67,0,0,1,469.9,364.6Z" transform="translate(-0.03)"/><path class="cls-17" d="M482.6,371.9l-8.1-4.7c-.6-.4-.6-1.1.2-1.5l8.1-4.7a3,3,0,0,1,2.6-.1l8.1,4.7c.7.4.6,1-.2,1.5l-8.1,4.7A3,3,0,0,1,482.6,371.9Z" transform="translate(-0.03)"/><path class="cls-17" d="M495.2,379.2l-8.1-4.7c-.6-.4-.6-1,.2-1.5l8.1-4.7a3,3,0,0,1,2.6-.1l8.1,4.7c.6.4.6,1-.2,1.5l-8.1,4.6A3,3,0,0,1,495.2,379.2Z" transform="translate(-0.03)"/><path class="cls-17" d="M507.8,386.5l-8.1-4.7c-.6-.4-.6-1,.2-1.5l8.1-4.7a3,3,0,0,1,2.6-.1l8.2,4.7c.7.4.6,1-.2,1.5l-8.1,4.7A3.63,3.63,0,0,1,507.8,386.5Z" transform="translate(-0.03)"/><path class="cls-17" d="M530.2,399.4l-17.8-10.3c-.7-.4-.6-1,.2-1.5l8.1-4.7a3,3,0,0,1,2.6-.1l17.8,10.3c.7.4.6,1-.2,1.5l-8.1,4.7A3,3,0,0,1,530.2,399.4Z" transform="translate(-0.03)"/><path class="cls-17" d="M554.8,385.2l-15.1-8.7c-.7-.4-.6-1,.2-1.5l8.1-4.7a3,3,0,0,1,2.6-.1l15.1,8.7c.7.4.6,1-.2,1.5l-8.1,4.7A2.68,2.68,0,0,1,554.8,385.2Z" transform="translate(-0.03)"/><path class="cls-17" d="M429,326.8l-8.1-4.7c-.6-.4-.6-1,.2-1.5l8.1-4.7a3,3,0,0,1,2.6-.1l8.2,4.7c.6.4.6,1-.2,1.5l-8.1,4.7A2.88,2.88,0,0,1,429,326.8Z" transform="translate(-0.03)"/><path class="cls-17" d="M416.1,319.4l-8.1-4.7c-.7-.4-.6-1,.2-1.5l8.1-4.6a2.76,2.76,0,0,1,2.5-.1l8.2,4.7c.6.4.6,1-.2,1.5l-8.1,4.7A3.87,3.87,0,0,1,416.1,319.4Z" transform="translate(-0.03)"/><path class="cls-17" d="M403.2,311.9l-8.1-4.7c-.7-.4-.6-1,.2-1.5l8.1-4.7a3,3,0,0,1,2.6-.1l8.1,4.7c.6.4.6,1-.2,1.5l-8,4.7A2.88,2.88,0,0,1,403.2,311.9Z" transform="translate(-0.03)"/><path class="cls-17" d="M390.3,304.4l-8.1-4.7c-.6-.4-.6-1,.2-1.5l8.1-4.7a3,3,0,0,1,2.6-.1l8.2,4.7c.6.4.6,1-.2,1.5l-8.1,4.7A2.89,2.89,0,0,1,390.3,304.4Z" transform="translate(-0.03)"/><path class="cls-17" d="M441.6,334.1l-8.2-4.7c-.7-.4-.6-1,.2-1.5l8.1-4.7a3,3,0,0,1,2.6-.1l8.2,4.7c.7.4.6,1-.2,1.5l-8.1,4.7A3,3,0,0,1,441.6,334.1Z" transform="translate(-0.03)"/><path class="cls-17" d="M454.2,341.4l-8.2-4.7c-.6-.4-.6-1,.2-1.5l8.1-4.7a3,3,0,0,1,2.6-.1l8.2,4.7c.6.4.6,1-.2,1.5l-8.1,4.7A3.36,3.36,0,0,1,454.2,341.4Z" transform="translate(-0.03)"/><path class="cls-17" d="M466.8,348.6l-8.2-4.8c-.6-.4-.6-1,.2-1.5l8.1-4.7a2.76,2.76,0,0,1,2.5-.1l8.2,4.7c.7.4.6,1-.2,1.5l-8.1,4.7A2.28,2.28,0,0,1,466.8,348.6Z" transform="translate(-0.03)"/><path class="cls-17" d="M479.4,355.9l-8.2-4.7c-.7-.4-.6-1,.2-1.5l8.1-4.7a2.76,2.76,0,0,1,2.5-.1l8.2,4.7c.7.4.6,1-.2,1.5l-8.1,4.7A2.73,2.73,0,0,1,479.4,355.9Z" transform="translate(-0.03)"/><path class="cls-17" d="M492,363.2l-8.2-4.7c-.6-.4-.6-1,.2-1.5l8.1-4.7a2.76,2.76,0,0,1,2.5-.1l8.2,4.7c.6.4.6,1-.2,1.5l-8.1,4.7A2.48,2.48,0,0,1,492,363.2Z" transform="translate(-0.03)"/><path class="cls-17" d="M504.6,370.5l-8.2-4.7c-.7-.4-.6-1,.2-1.5l8.1-4.7a2.76,2.76,0,0,1,2.5-.1l8.2,4.7c.7.4.6,1-.2,1.5l-8.1,4.7A3.08,3.08,0,0,1,504.6,370.5Z" transform="translate(-0.03)"/><path class="cls-17" d="M517.2,377.8l-8.1-4.8c-.6-.4-.6-1,.2-1.5l8.1-4.7a2.76,2.76,0,0,1,2.5-.1l8.2,4.7c.7.4.6,1-.2,1.5l-8.1,4.6A2.69,2.69,0,0,1,517.2,377.8Z" transform="translate(-0.03)"/><path class="cls-17" d="M529.8,385l-8.2-4.7c-.7-.4-.6-1,.2-1.5l8.1-4.7a2.76,2.76,0,0,1,2.5-.1l8.2,4.7c.7.4.6,1-.2,1.5l-8.1,4.7A2.73,2.73,0,0,1,529.8,385Z" transform="translate(-0.03)"/><path class="cls-17" d="M542.5,392.3l-8.2-4.7c-.7-.4-.6-1,.2-1.5l8.1-4.7a2.76,2.76,0,0,1,2.5-.1l8.2,4.7c.7.4.6,1-.2,1.5l-8.1,4.7A2.76,2.76,0,0,1,542.5,392.3Z" transform="translate(-0.03)"/><path class="cls-17" d="M422.4,308.7l-8.2-4.6c-.6-.4-.6-1,.2-1.5l8.1-4.7a3,3,0,0,1,2.6-.1l8.1,4.7c.6.4.6,1-.2,1.5l-8,4.7A3,3,0,0,1,422.4,308.7Z" transform="translate(-0.03)"/><path class="cls-17" d="M409.8,301.5l-8.1-4.7c-.7-.4-.6-1,.2-1.5l8.1-4.7a2.76,2.76,0,0,1,2.5-.1l8.2,4.7c.6.4.6,1-.2,1.5l-8.1,4.7A3,3,0,0,1,409.8,301.5Z" transform="translate(-0.03)"/><path class="cls-17" d="M397.3,294.3l-8.2-4.7c-.7-.4-.6-1,.2-1.5l8.2-4.7a3,3,0,0,1,2.6-.1l8.2,4.7c.6.4.6,1-.2,1.5l-8.1,4.7A2.88,2.88,0,0,1,397.3,294.3Z" transform="translate(-0.03)"/><path class="cls-17" d="M384.8,287.1l-8.2-4.7c-.7-.4-.6-1,.2-1.5l8.1-4.7a3,3,0,0,1,2.6-.1l8.1,4.7c.7.4.6,1-.2,1.5l-8,4.7A3,3,0,0,1,384.8,287.1Z" transform="translate(-0.03)"/><path class="cls-17" d="M397.6,279.6l-8.2-4.7c-.7-.4-.6-1,.2-1.5l2.8-1.5a3,3,0,0,1,2.6-.1l8.1,4.7c.7.4.6,1-.2,1.5l-2.7,1.5A2.65,2.65,0,0,1,397.6,279.6Z" transform="translate(-0.03)"/><path class="cls-17" d="M414,289.1l-8.2-4.7c-.7-.4-.6-1,.2-1.5l2.7-1.5a3,3,0,0,1,2.6-.1l8.1,4.7c.6.4.6,1-.2,1.5l-2.7,1.6A3.58,3.58,0,0,1,414,289.1Z" transform="translate(-0.03)"/><path class="cls-17" d="M426.5,296.3l-8.2-4.7c-.6-.4-.6-1,.2-1.5l2.7-1.5a3,3,0,0,1,2.6-.1l8.1,4.7c.7.4.6,1-.2,1.5l-2.6,1.5A3,3,0,0,1,426.5,296.3Z" transform="translate(-0.03)"/><path class="cls-17" d="M439,303.5l-8.1-4.7c-.7-.4-.6-1,.2-1.5l2.7-1.5a3,3,0,0,1,2.6-.1l8.2,4.7c.6.4.6,1-.2,1.5l-2.7,1.5A2.87,2.87,0,0,1,439,303.5Z" transform="translate(-0.03)"/><path class="cls-17" d="M451.5,310.7l-8.2-4.7c-.6-.4-.6-1,.2-1.5l2.7-1.6a3,3,0,0,1,2.6-.1l8.2,4.7c.6.4.6,1-.2,1.5l-2.7,1.5A2.71,2.71,0,0,1,451.5,310.7Z" transform="translate(-0.03)"/><path class="cls-17" d="M521.3,351l-8.2-4.7c-.7-.4-.6-1,.2-1.5l2.7-1.5a3,3,0,0,1,2.6-.1l8.2,4.7c.7.4.6,1-.2,1.5l-2.7,1.5A3,3,0,0,1,521.3,351Z" transform="translate(-0.03)"/><path class="cls-17" d="M533.7,358.2l-8.2-4.7c-.7-.4-.6-1,.2-1.5l2.7-1.6a3,3,0,0,1,2.6-.1l8.2,4.7c.7.4.6,1-.2,1.5l-2.7,1.5A2.69,2.69,0,0,1,533.7,358.2Z" transform="translate(-0.03)"/><path class="cls-17" d="M546.2,365.4l-8.2-4.8c-.7-.4-.6-1.1.2-1.5l2.7-1.5a3,3,0,0,1,2.6-.1l8.2,4.7c.7.4.6,1-.2,1.5l-2.7,1.6A3.36,3.36,0,0,1,546.2,365.4Z" transform="translate(-0.03)"/><path class="cls-17" d="M558.7,372.6l-8.2-4.7c-.7-.4-.6-1,.2-1.5l2.7-1.5a2.76,2.76,0,0,1,2.5-.1l8.2,4.8c.7.4.6,1-.2,1.5l-2.7,1.5A2.75,2.75,0,0,1,558.7,372.6Z" transform="translate(-0.03)"/><path class="cls-17" d="M435,316.1l-8.1-4.7c-.6-.4-.6-1,.2-1.5l8.1-4.7a3,3,0,0,1,2.6-.1l8.1,4.7c.6.4.6,1-.2,1.5l-8,4.7A2.86,2.86,0,0,1,435,316.1Z" transform="translate(-0.03)"/><path class="cls-17" d="M447.6,323.4l-8.1-4.7c-.6-.4-.6-1,.2-1.5l8.1-4.7a3,3,0,0,1,2.6-.1l8.1,4.7c.6.4.6,1-.2,1.5l-8.1,4.7A3.34,3.34,0,0,1,447.6,323.4Z" transform="translate(-0.03)"/><path class="cls-17" d="M460.2,330.6l-8.1-4.7c-.7-.4-.6-1,.2-1.5l8.1-4.7a3,3,0,0,1,2.6-.1l8.1,4.7c.7.4.6,1-.2,1.5l-8.1,4.7A2.68,2.68,0,0,1,460.2,330.6Z" transform="translate(-0.03)"/><path class="cls-17" d="M472.8,337.9l-8.2-4.7c-.6-.4-.6-1,.2-1.5l8.1-4.7a3,3,0,0,1,2.6-.1l8.1,4.7c.7.4.6,1-.2,1.5l-8.1,4.7A2.49,2.49,0,0,1,472.8,337.9Z" transform="translate(-0.03)"/><path class="cls-17" d="M485.4,345.2l-8.2-4.7c-.6-.4-.6-1,.2-1.5l8.1-4.7a3,3,0,0,1,2.6-.1l8.1,4.6c.7.4.6,1-.2,1.5l-8.1,4.7A2.75,2.75,0,0,1,485.4,345.2Z" transform="translate(-0.03)"/><path class="cls-17" d="M498,352.5l-8.2-4.7c-.6-.4-.6-1,.2-1.5l8.1-4.7a3,3,0,0,1,2.6-.1l8.1,4.7c.7.4.6,1-.2,1.5l-8.1,4.7A3.1,3.1,0,0,1,498,352.5Z" transform="translate(-0.03)"/><path class="cls-17" d="M510.6,359.7l-8.2-4.7c-.6-.4-.6-1,.2-1.5l8.1-4.7a3,3,0,0,1,2.6-.1l8.2,4.7c.7.4.6,1-.2,1.5l-8.1,4.7A2.68,2.68,0,0,1,510.6,359.7Z" transform="translate(-0.03)"/><path class="cls-17" d="M523.2,367l-8.2-4.7c-.7-.4-.6-1,.2-1.5l8.1-4.6a3,3,0,0,1,2.6-.1l8.2,4.7c.7.4.6,1-.2,1.5l-8.1,4.7A3.35,3.35,0,0,1,523.2,367Z" transform="translate(-0.03)"/><path class="cls-17" d="M535.8,374.3l-8.2-4.7c-.7-.4-.6-1,.2-1.5l8.1-4.7a3,3,0,0,1,2.6-.1l8.2,4.7c.7.4.6,1.1-.2,1.5l-8.1,4.7A3,3,0,0,1,535.8,374.3Z" transform="translate(-0.03)"/><path class="cls-17" d="M362.9,317l-24.1-13.9c-.6-.4-.6-1,.2-1.5l8.2-4.6a3,3,0,0,1,2.6-.1l24,13.9c.6.4.6,1-.2,1.5l-8.1,4.7A3,3,0,0,1,362.9,317Z" transform="translate(-0.03)"/><path class="cls-17" d="M517.8,406.4l-24-13.9c-.6-.4-.6-1,.2-1.5l8.1-4.7a3,3,0,0,1,2.6-.1l24,13.9c.7.4.6,1-.2,1.5l-8.1,4.7A3,3,0,0,1,517.8,406.4Z" transform="translate(-0.03)"/><path class="cls-17" d="M467.4,393.4l-8.2-4.7c-.6-.4-.6-1,.2-1.5l9.7-5.6a3,3,0,0,1,2.6-.1l8.1,4.7c.6.4.6,1-.2,1.5l-9.6,5.6A3.37,3.37,0,0,1,467.4,393.4Z" transform="translate(-0.03)"/><path class="cls-17" d="M375.8,340.5l-13-7.5c-.7-.4-.6-1,.2-1.5l9.6-5.6a3,3,0,0,1,2.6-.1l13,7.5c.7.4.6,1-.2,1.5l-9.6,5.6A2.68,2.68,0,0,1,375.8,340.5Z" transform="translate(-0.03)"/><path class="cls-17" d="M455.2,386.3l-13-7.5c-.7-.4-.6-1,.2-1.5l9.6-5.6a3,3,0,0,1,2.6-.1l13,7.5c.7.4.6,1-.2,1.5l-9.6,5.6A2.68,2.68,0,0,1,455.2,386.3Z" transform="translate(-0.03)"/><path class="cls-17" d="M394.1,351,381,343.5c-.6-.4-.6-1,.2-1.5l9.6-5.6a2.76,2.76,0,0,1,2.5-.1l13.1,7.5c.6.4.6,1-.2,1.5l-9.6,5.6A2.75,2.75,0,0,1,394.1,351Z" transform="translate(-0.03)"/><path class="cls-17" d="M393.4,336.4l56.7,32.8a.72.72,0,0,1,.5.9v.1h0a1.21,1.21,0,0,1-.5.5l-9.8,5.7a2.75,2.75,0,0,1-2.5,0L381,343.5Z" transform="translate(-0.03)"/><path class="cls-17" d="M502.6,406.5l9.1,5.2a.65.65,0,0,1-.1,1.2l-4,2.3a2.22,2.22,0,0,1-2.1.1l-9.1-5.3a.65.65,0,0,1,.1-1.2l3.9-2.3A2.8,2.8,0,0,1,502.6,406.5Z" transform="translate(-0.03)"/><path class="cls-17" d="M489.9,399.2l9.1,5.2a.65.65,0,0,1-.1,1.2l-3.9,2.3a2.22,2.22,0,0,1-2.1.1l-9.1-5.2a.65.65,0,0,1,.1-1.2l4-2.3A2.32,2.32,0,0,1,489.9,399.2Z" transform="translate(-0.03)"/><path class="cls-17" d="M477.3,391.9l9.1,5.2a.65.65,0,0,1-.1,1.2l-3.9,2.3a2.22,2.22,0,0,1-2.1.1l-9.1-5.2c-.5-.3-.5-.9.2-1.2l3.9-2.3A2.3,2.3,0,0,1,477.3,391.9Z" transform="translate(-0.03)"/><path class="cls-17" d="M496.8,395.2l9.1,5.3a.65.65,0,0,1-.1,1.2l-3.9,2.3a2.22,2.22,0,0,1-2.1.1l-9.1-5.2a.65.65,0,0,1,.1-1.2l4-2.3A1.84,1.84,0,0,1,496.8,395.2Z" transform="translate(-0.03)"/></g><g class="cls-16"><path class="cls-17" d="M333.1,315.9l-8.1-4.7c-.7-.4-.6-1.1.2-1.5l9.6-5.6a3,3,0,0,1,2.6-.1l8.2,4.7c.7.4.6,1-.2,1.5l-9.6,5.6A3.2,3.2,0,0,1,333.1,315.9Z" transform="translate(-0.03)"/><path class="cls-17" d="M345.7,323.1l-8.1-4.7c-.7-.4-.6-1,.2-1.5l9.6-5.6a3,3,0,0,1,2.6-.1l8.1,4.7c.7.4.6,1-.2,1.5l-9.6,5.5A2.69,2.69,0,0,1,345.7,323.1Z" transform="translate(-0.03)"/><path class="cls-17" d="M358.3,330.5l-8.2-4.7c-.7-.4-.6-1,.2-1.5l9.6-5.5a3,3,0,0,1,2.6-.1l8.2,4.7c.7.4.6,1-.2,1.5l-9.6,5.6A3.35,3.35,0,0,1,358.3,330.5Z" transform="translate(-0.03)"/><path class="cls-17" d="M375.8,324.4l-8.2-4.7c-.6-.4-.6-1,.2-1.5l8.1-4.7a3,3,0,0,1,2.6-.1l8.2,4.7c.6.4.6,1-.2,1.5l-8.1,4.7A3,3,0,0,1,375.8,324.4Z" transform="translate(-0.03)"/><path class="cls-17" d="M388.4,331.7l-8.2-4.7c-.6-.4-.6-1,.2-1.5l8.1-4.7a3,3,0,0,1,2.6-.1l8.2,4.7c.6.4.6,1-.2,1.5l-8.1,4.7A3.37,3.37,0,0,1,388.4,331.7Z" transform="translate(-0.03)"/><path class="cls-17" d="M401,339l-8.2-4.7c-.7-.4-.6-1.1.2-1.5l8.1-4.7a3,3,0,0,1,2.6-.1l8.2,4.7c.7.4.6,1-.2,1.5l-8.1,4.7A2.68,2.68,0,0,1,401,339Z" transform="translate(-0.03)"/><path class="cls-17" d="M413.6,346.2l-8.2-4.7c-.6-.4-.6-1,.2-1.5l8.1-4.7a3,3,0,0,1,2.6-.1l8.2,4.7c.6.4.6,1-.2,1.5l-8.1,4.6A2.47,2.47,0,0,1,413.6,346.2Z" transform="translate(-0.03)"/><path class="cls-17" d="M426.2,353.5l-8.2-4.7c-.6-.4-.6-1,.2-1.5l8.1-4.7a3,3,0,0,1,2.6-.1l8.2,4.7c.7.4.6,1-.2,1.5l-8.1,4.7A2.68,2.68,0,0,1,426.2,353.5Z" transform="translate(-0.03)"/><path class="cls-17" d="M438.8,360.8l-8.2-4.7c-.6-.4-.6-1,.2-1.5l8.1-4.7a3,3,0,0,1,2.6-.1l8.2,4.7c.6.4.6,1-.2,1.5l-8.1,4.6A3,3,0,0,1,438.8,360.8Z" transform="translate(-0.03)"/><path class="cls-17" d="M451.4,368.1l-8.2-4.7c-.6-.4-.6-1,.2-1.5l8.1-4.6a3,3,0,0,1,2.6-.1l8.2,4.7c.6.4.6,1-.2,1.5L454,368A3.36,3.36,0,0,1,451.4,368.1Z" transform="translate(-0.03)"/><path class="cls-17" d="M464,375.3l-8.2-4.7c-.7-.4-.6-1,.2-1.5l8.1-4.7a3,3,0,0,1,2.6-.1l8.2,4.7c.7.4.6,1-.2,1.5l-8.1,4.7A2.68,2.68,0,0,1,464,375.3Z" transform="translate(-0.03)"/><path class="cls-17" d="M476.6,382.6l-8.2-4.7c-.6-.4-.6-1,.2-1.5l8.1-4.7a3,3,0,0,1,2.6-.1l8.2,4.7c.6.4.6,1-.2,1.5l-8.1,4.7A2.68,2.68,0,0,1,476.6,382.6Z" transform="translate(-0.03)"/><path class="cls-17" d="M489.2,389.9l-8.1-4.7c-.7-.4-.6-1,.2-1.5l8.1-4.7a3,3,0,0,1,2.6-.1l8.2,4.7c.6.4.6,1-.2,1.5l-8.1,4.7A2.88,2.88,0,0,1,489.2,389.9Z" transform="translate(-0.03)"/><path class="cls-17" d="M394.3,321l-8.1-4.7c-.7-.4-.6-1,.2-1.5l8.1-4.7a2.67,2.67,0,0,1,2.6-.1l8.2,4.7c.6.4.6,1-.2,1.5l-8.1,4.7A3.19,3.19,0,0,1,394.3,321Z" transform="translate(-0.03)"/><path class="cls-17" d="M381.5,313.5l-8.2-4.7c-.6-.4-.6-1,.2-1.5l8.1-4.7a3,3,0,0,1,2.6-.1l8.2,4.7c.6.4.6,1-.2,1.5l-8.2,4.7A2.75,2.75,0,0,1,381.5,313.5Z" transform="translate(-0.03)"/><path class="cls-17" d="M368.7,306.2,351.1,296c-.7-.4-.6-1,.2-1.5l8.1-4.7a3,3,0,0,1,2.6-.1l17.6,10.1c.6.4.6,1-.2,1.5l-8.1,4.7A3,3,0,0,1,368.7,306.2Z" transform="translate(-0.03)"/><path class="cls-17" d="M377.7,297.2,363.4,289c-.6-.4-.6-1,.2-1.5l8.1-4.7a3,3,0,0,1,2.6-.1l14.3,8.2c.7.4.6,1-.2,1.5l-8.1,4.6A3,3,0,0,1,377.7,297.2Z" transform="translate(-0.03)"/><path class="cls-17" d="M406.9,328.2l-8.1-4.7c-.7-.4-.6-1,.2-1.5l8.1-4.7a2.76,2.76,0,0,1,2.5-.1l8.2,4.7c.7.4.6,1-.2,1.5l-8.1,4.7A2.67,2.67,0,0,1,406.9,328.2Z" transform="translate(-0.03)"/><path class="cls-17" d="M419.5,335.5l-8.1-4.7c-.7-.4-.6-1,.2-1.5l8.1-4.7a2.76,2.76,0,0,1,2.5-.1l8.2,4.7c.6.4.6,1-.2,1.5l-8.1,4.7A2.67,2.67,0,0,1,419.5,335.5Z" transform="translate(-0.03)"/><path class="cls-17" d="M432.1,342.8l-8.1-4.7c-.6-.4-.6-1.1.2-1.5l8.1-4.7a3,3,0,0,1,2.6-.1l8.1,4.7c.6.4.6,1-.2,1.5l-8.1,4.7A3,3,0,0,1,432.1,342.8Z" transform="translate(-0.03)"/><path class="cls-17" d="M444.8,350.1l-8.2-4.7c-.6-.4-.6-1,.2-1.5l8.1-4.7a3,3,0,0,1,2.6-.1l8.1,4.7c.7.4.6,1-.2,1.5l-8.1,4.7A3.11,3.11,0,0,1,444.8,350.1Z" transform="translate(-0.03)"/><path class="cls-17" d="M457.3,357.3l-8.1-4.8c-.7-.4-.6-1,.2-1.5l8.1-4.7a3,3,0,0,1,2.6-.1l8.1,4.7c.6.4.6,1-.2,1.5l-8.1,4.8A2.67,2.67,0,0,1,457.3,357.3Z" transform="translate(-0.03)"/><path class="cls-17" d="M469.9,364.6l-8.1-4.7c-.6-.4-.6-1,.2-1.5l8.1-4.7a3,3,0,0,1,2.6-.1l8.1,4.7c.7.4.6,1-.2,1.5l-8.1,4.7A2.67,2.67,0,0,1,469.9,364.6Z" transform="translate(-0.03)"/><path class="cls-17" d="M482.6,371.9l-8.1-4.7c-.6-.4-.6-1.1.2-1.5l8.1-4.7a3,3,0,0,1,2.6-.1l8.1,4.7c.7.4.6,1-.2,1.5l-8.1,4.7A3,3,0,0,1,482.6,371.9Z" transform="translate(-0.03)"/><path class="cls-17" d="M495.2,379.2l-8.1-4.7c-.6-.4-.6-1,.2-1.5l8.1-4.7a3,3,0,0,1,2.6-.1l8.1,4.7c.6.4.6,1-.2,1.5l-8.1,4.6A3,3,0,0,1,495.2,379.2Z" transform="translate(-0.03)"/><path class="cls-17" d="M507.8,386.5l-8.1-4.7c-.6-.4-.6-1,.2-1.5l8.1-4.7a3,3,0,0,1,2.6-.1l8.2,4.7c.7.4.6,1-.2,1.5l-8.1,4.7A3.63,3.63,0,0,1,507.8,386.5Z" transform="translate(-0.03)"/><path class="cls-17" d="M530.2,399.4l-17.8-10.3c-.7-.4-.6-1,.2-1.5l8.1-4.7a3,3,0,0,1,2.6-.1l17.8,10.3c.7.4.6,1-.2,1.5l-8.1,4.7A3,3,0,0,1,530.2,399.4Z" transform="translate(-0.03)"/><path class="cls-17" d="M554.8,385.2l-15.1-8.7c-.7-.4-.6-1,.2-1.5l8.1-4.7a3,3,0,0,1,2.6-.1l15.1,8.7c.7.4.6,1-.2,1.5l-8.1,4.7A2.68,2.68,0,0,1,554.8,385.2Z" transform="translate(-0.03)"/><path class="cls-17" d="M429,326.8l-8.1-4.7c-.6-.4-.6-1,.2-1.5l8.1-4.7a3,3,0,0,1,2.6-.1l8.2,4.7c.6.4.6,1-.2,1.5l-8.1,4.7A2.88,2.88,0,0,1,429,326.8Z" transform="translate(-0.03)"/><path class="cls-17" d="M416.1,319.4l-8.1-4.7c-.7-.4-.6-1,.2-1.5l8.1-4.6a2.76,2.76,0,0,1,2.5-.1l8.2,4.7c.6.4.6,1-.2,1.5l-8.1,4.7A3.87,3.87,0,0,1,416.1,319.4Z" transform="translate(-0.03)"/><path class="cls-17" d="M403.2,311.9l-8.1-4.7c-.7-.4-.6-1,.2-1.5l8.1-4.7a3,3,0,0,1,2.6-.1l8.1,4.7c.6.4.6,1-.2,1.5l-8,4.7A2.88,2.88,0,0,1,403.2,311.9Z" transform="translate(-0.03)"/><path class="cls-17" d="M390.3,304.4l-8.1-4.7c-.6-.4-.6-1,.2-1.5l8.1-4.7a3,3,0,0,1,2.6-.1l8.2,4.7c.6.4.6,1-.2,1.5l-8.1,4.7A2.89,2.89,0,0,1,390.3,304.4Z" transform="translate(-0.03)"/><path class="cls-17" d="M441.6,334.1l-8.2-4.7c-.7-.4-.6-1,.2-1.5l8.1-4.7a3,3,0,0,1,2.6-.1l8.2,4.7c.7.4.6,1-.2,1.5l-8.1,4.7A3,3,0,0,1,441.6,334.1Z" transform="translate(-0.03)"/><path class="cls-17" d="M454.2,341.4l-8.2-4.7c-.6-.4-.6-1,.2-1.5l8.1-4.7a3,3,0,0,1,2.6-.1l8.2,4.7c.6.4.6,1-.2,1.5l-8.1,4.7A3.36,3.36,0,0,1,454.2,341.4Z" transform="translate(-0.03)"/><path class="cls-17" d="M466.8,348.6l-8.2-4.8c-.6-.4-.6-1,.2-1.5l8.1-4.7a2.76,2.76,0,0,1,2.5-.1l8.2,4.7c.7.4.6,1-.2,1.5l-8.1,4.7A2.28,2.28,0,0,1,466.8,348.6Z" transform="translate(-0.03)"/><path class="cls-17" d="M479.4,355.9l-8.2-4.7c-.7-.4-.6-1,.2-1.5l8.1-4.7a2.76,2.76,0,0,1,2.5-.1l8.2,4.7c.7.4.6,1-.2,1.5l-8.1,4.7A2.73,2.73,0,0,1,479.4,355.9Z" transform="translate(-0.03)"/><path class="cls-17" d="M492,363.2l-8.2-4.7c-.6-.4-.6-1,.2-1.5l8.1-4.7a2.76,2.76,0,0,1,2.5-.1l8.2,4.7c.6.4.6,1-.2,1.5l-8.1,4.7A2.48,2.48,0,0,1,492,363.2Z" transform="translate(-0.03)"/><path class="cls-17" d="M504.6,370.5l-8.2-4.7c-.7-.4-.6-1,.2-1.5l8.1-4.7a2.76,2.76,0,0,1,2.5-.1l8.2,4.7c.7.4.6,1-.2,1.5l-8.1,4.7A3.08,3.08,0,0,1,504.6,370.5Z" transform="translate(-0.03)"/><path class="cls-17" d="M517.2,377.8l-8.1-4.8c-.6-.4-.6-1,.2-1.5l8.1-4.7a2.76,2.76,0,0,1,2.5-.1l8.2,4.7c.7.4.6,1-.2,1.5l-8.1,4.6A2.69,2.69,0,0,1,517.2,377.8Z" transform="translate(-0.03)"/><path class="cls-17" d="M529.8,385l-8.2-4.7c-.7-.4-.6-1,.2-1.5l8.1-4.7a2.76,2.76,0,0,1,2.5-.1l8.2,4.7c.7.4.6,1-.2,1.5l-8.1,4.7A2.73,2.73,0,0,1,529.8,385Z" transform="translate(-0.03)"/><path class="cls-17" d="M542.5,392.3l-8.2-4.7c-.7-.4-.6-1,.2-1.5l8.1-4.7a2.76,2.76,0,0,1,2.5-.1l8.2,4.7c.7.4.6,1-.2,1.5l-8.1,4.7A2.76,2.76,0,0,1,542.5,392.3Z" transform="translate(-0.03)"/><path class="cls-17" d="M422.4,308.7l-8.2-4.6c-.6-.4-.6-1,.2-1.5l8.1-4.7a3,3,0,0,1,2.6-.1l8.1,4.7c.6.4.6,1-.2,1.5l-8,4.7A3,3,0,0,1,422.4,308.7Z" transform="translate(-0.03)"/><path class="cls-17" d="M409.8,301.5l-8.1-4.7c-.7-.4-.6-1,.2-1.5l8.1-4.7a2.76,2.76,0,0,1,2.5-.1l8.2,4.7c.6.4.6,1-.2,1.5l-8.1,4.7A3,3,0,0,1,409.8,301.5Z" transform="translate(-0.03)"/><path class="cls-17" d="M397.3,294.3l-8.2-4.7c-.7-.4-.6-1,.2-1.5l8.2-4.7a3,3,0,0,1,2.6-.1l8.2,4.7c.6.4.6,1-.2,1.5l-8.1,4.7A2.88,2.88,0,0,1,397.3,294.3Z" transform="translate(-0.03)"/><path class="cls-17" d="M384.8,287.1l-8.2-4.7c-.7-.4-.6-1,.2-1.5l8.1-4.7a3,3,0,0,1,2.6-.1l8.1,4.7c.7.4.6,1-.2,1.5l-8,4.7A3,3,0,0,1,384.8,287.1Z" transform="translate(-0.03)"/><path class="cls-17" d="M397.6,279.6l-8.2-4.7c-.7-.4-.6-1,.2-1.5l2.8-1.5a3,3,0,0,1,2.6-.1l8.1,4.7c.7.4.6,1-.2,1.5l-2.7,1.5A2.65,2.65,0,0,1,397.6,279.6Z" transform="translate(-0.03)"/><path class="cls-17" d="M414,289.1l-8.2-4.7c-.7-.4-.6-1,.2-1.5l2.7-1.5a3,3,0,0,1,2.6-.1l8.1,4.7c.6.4.6,1-.2,1.5l-2.7,1.6A3.58,3.58,0,0,1,414,289.1Z" transform="translate(-0.03)"/><path class="cls-17" d="M426.5,296.3l-8.2-4.7c-.6-.4-.6-1,.2-1.5l2.7-1.5a3,3,0,0,1,2.6-.1l8.1,4.7c.7.4.6,1-.2,1.5l-2.6,1.5A3,3,0,0,1,426.5,296.3Z" transform="translate(-0.03)"/><path class="cls-17" d="M439,303.5l-8.1-4.7c-.7-.4-.6-1,.2-1.5l2.7-1.5a3,3,0,0,1,2.6-.1l8.2,4.7c.6.4.6,1-.2,1.5l-2.7,1.5A2.87,2.87,0,0,1,439,303.5Z" transform="translate(-0.03)"/><path class="cls-17" d="M451.5,310.7l-8.2-4.7c-.6-.4-.6-1,.2-1.5l2.7-1.6a3,3,0,0,1,2.6-.1l8.2,4.7c.6.4.6,1-.2,1.5l-2.7,1.5A2.71,2.71,0,0,1,451.5,310.7Z" transform="translate(-0.03)"/><path class="cls-17" d="M521.3,351l-8.2-4.7c-.7-.4-.6-1,.2-1.5l2.7-1.5a3,3,0,0,1,2.6-.1l8.2,4.7c.7.4.6,1-.2,1.5l-2.7,1.5A3,3,0,0,1,521.3,351Z" transform="translate(-0.03)"/><path class="cls-17" d="M533.7,358.2l-8.2-4.7c-.7-.4-.6-1,.2-1.5l2.7-1.6a3,3,0,0,1,2.6-.1l8.2,4.7c.7.4.6,1-.2,1.5l-2.7,1.5A2.69,2.69,0,0,1,533.7,358.2Z" transform="translate(-0.03)"/><path class="cls-17" d="M546.2,365.4l-8.2-4.8c-.7-.4-.6-1.1.2-1.5l2.7-1.5a3,3,0,0,1,2.6-.1l8.2,4.7c.7.4.6,1-.2,1.5l-2.7,1.6A3.36,3.36,0,0,1,546.2,365.4Z" transform="translate(-0.03)"/><path class="cls-17" d="M558.7,372.6l-8.2-4.7c-.7-.4-.6-1,.2-1.5l2.7-1.5a2.76,2.76,0,0,1,2.5-.1l8.2,4.8c.7.4.6,1-.2,1.5l-2.7,1.5A2.75,2.75,0,0,1,558.7,372.6Z" transform="translate(-0.03)"/><path class="cls-17" d="M435,316.1l-8.1-4.7c-.6-.4-.6-1,.2-1.5l8.1-4.7a3,3,0,0,1,2.6-.1l8.1,4.7c.6.4.6,1-.2,1.5l-8,4.7A2.86,2.86,0,0,1,435,316.1Z" transform="translate(-0.03)"/><path class="cls-17" d="M447.6,323.4l-8.1-4.7c-.6-.4-.6-1,.2-1.5l8.1-4.7a3,3,0,0,1,2.6-.1l8.1,4.7c.6.4.6,1-.2,1.5l-8.1,4.7A3.34,3.34,0,0,1,447.6,323.4Z" transform="translate(-0.03)"/><path class="cls-17" d="M460.2,330.6l-8.1-4.7c-.7-.4-.6-1,.2-1.5l8.1-4.7a3,3,0,0,1,2.6-.1l8.1,4.7c.7.4.6,1-.2,1.5l-8.1,4.7A2.68,2.68,0,0,1,460.2,330.6Z" transform="translate(-0.03)"/><path class="cls-17" d="M472.8,337.9l-8.2-4.7c-.6-.4-.6-1,.2-1.5l8.1-4.7a3,3,0,0,1,2.6-.1l8.1,4.7c.7.4.6,1-.2,1.5l-8.1,4.7A2.49,2.49,0,0,1,472.8,337.9Z" transform="translate(-0.03)"/><path class="cls-17" d="M485.4,345.2l-8.2-4.7c-.6-.4-.6-1,.2-1.5l8.1-4.7a3,3,0,0,1,2.6-.1l8.1,4.6c.7.4.6,1-.2,1.5l-8.1,4.7A2.75,2.75,0,0,1,485.4,345.2Z" transform="translate(-0.03)"/><path class="cls-17" d="M498,352.5l-8.2-4.7c-.6-.4-.6-1,.2-1.5l8.1-4.7a3,3,0,0,1,2.6-.1l8.1,4.7c.7.4.6,1-.2,1.5l-8.1,4.7A3.1,3.1,0,0,1,498,352.5Z" transform="translate(-0.03)"/><path class="cls-17" d="M510.6,359.7l-8.2-4.7c-.6-.4-.6-1,.2-1.5l8.1-4.7a3,3,0,0,1,2.6-.1l8.2,4.7c.7.4.6,1-.2,1.5l-8.1,4.7A2.68,2.68,0,0,1,510.6,359.7Z" transform="translate(-0.03)"/><path class="cls-17" d="M523.2,367l-8.2-4.7c-.7-.4-.6-1,.2-1.5l8.1-4.6a3,3,0,0,1,2.6-.1l8.2,4.7c.7.4.6,1-.2,1.5l-8.1,4.7A3.35,3.35,0,0,1,523.2,367Z" transform="translate(-0.03)"/><path class="cls-17" d="M535.8,374.3l-8.2-4.7c-.7-.4-.6-1,.2-1.5l8.1-4.7a3,3,0,0,1,2.6-.1l8.2,4.7c.7.4.6,1.1-.2,1.5l-8.1,4.7A3,3,0,0,1,535.8,374.3Z" transform="translate(-0.03)"/><path class="cls-17" d="M362.9,317l-24.1-13.9c-.6-.4-.6-1,.2-1.5l8.2-4.6a3,3,0,0,1,2.6-.1l24,13.9c.6.4.6,1-.2,1.5l-8.1,4.7A3,3,0,0,1,362.9,317Z" transform="translate(-0.03)"/><path class="cls-17" d="M517.8,406.4l-24-13.9c-.6-.4-.6-1,.2-1.5l8.1-4.7a3,3,0,0,1,2.6-.1l24,13.9c.7.4.6,1-.2,1.5l-8.1,4.7A3,3,0,0,1,517.8,406.4Z" transform="translate(-0.03)"/><path class="cls-17" d="M467.4,393.4l-8.2-4.7c-.6-.4-.6-1,.2-1.5l9.7-5.6a3,3,0,0,1,2.6-.1l8.1,4.7c.6.4.6,1-.2,1.5l-9.6,5.6A3.37,3.37,0,0,1,467.4,393.4Z" transform="translate(-0.03)"/><path class="cls-17" d="M375.8,340.5l-13-7.5c-.7-.4-.6-1,.2-1.5l9.6-5.6a3,3,0,0,1,2.6-.1l13,7.5c.7.4.6,1-.2,1.5l-9.6,5.6A2.68,2.68,0,0,1,375.8,340.5Z" transform="translate(-0.03)"/><path class="cls-17" d="M455.2,386.3l-13-7.5c-.7-.4-.6-1,.2-1.5l9.6-5.6a3,3,0,0,1,2.6-.1l13,7.5c.7.4.6,1-.2,1.5l-9.6,5.6A2.68,2.68,0,0,1,455.2,386.3Z" transform="translate(-0.03)"/><path class="cls-17" d="M394.1,351,381,343.5c-.6-.4-.6-1,.2-1.5l9.6-5.6a2.76,2.76,0,0,1,2.5-.1l13.1,7.5c.6.4.6,1-.2,1.5l-9.6,5.6A2.75,2.75,0,0,1,394.1,351Z" transform="translate(-0.03)"/><path class="cls-17" d="M393.4,336.4l56.7,32.8a.72.72,0,0,1,.5.9v.1h0a1.21,1.21,0,0,1-.5.5l-9.8,5.7a2.75,2.75,0,0,1-2.5,0L381,343.5Z" transform="translate(-0.03)"/><path class="cls-17" d="M502.6,406.5l9.1,5.2a.65.65,0,0,1-.1,1.2l-4,2.3a2.22,2.22,0,0,1-2.1.1l-9.1-5.3a.65.65,0,0,1,.1-1.2l3.9-2.3A2.8,2.8,0,0,1,502.6,406.5Z" transform="translate(-0.03)"/><path class="cls-17" d="M489.9,399.2l9.1,5.2a.65.65,0,0,1-.1,1.2l-3.9,2.3a2.22,2.22,0,0,1-2.1.1l-9.1-5.2a.65.65,0,0,1,.1-1.2l4-2.3A2.32,2.32,0,0,1,489.9,399.2Z" transform="translate(-0.03)"/><path class="cls-17" d="M477.3,391.9l9.1,5.2a.65.65,0,0,1-.1,1.2l-3.9,2.3a2.22,2.22,0,0,1-2.1.1l-9.1-5.2c-.5-.3-.5-.9.2-1.2l3.9-2.3A2.3,2.3,0,0,1,477.3,391.9Z" transform="translate(-0.03)"/><path class="cls-17" d="M496.8,395.2l9.1,5.3a.65.65,0,0,1-.1,1.2l-3.9,2.3a2.22,2.22,0,0,1-2.1.1l-9.1-5.2a.65.65,0,0,1,.1-1.2l4-2.3A1.84,1.84,0,0,1,496.8,395.2Z" transform="translate(-0.03)"/></g><path class="cls-18" d="M630.2,380.5l-240.8-139a10.73,10.73,0,0,1-4.4-11.9L439.5,52.8c1.4-4.4,5.5-6.2,9.3-4l240.8,139a10.73,10.73,0,0,1,4.4,11.9L639.5,376.5C638.2,380.9,634,382.6,630.2,380.5Z" transform="translate(-0.03)"/><path class="cls-19" d="M628,374.3l-233.6-135a10.11,10.11,0,0,1-4.2-11.4l52-169a5.85,5.85,0,0,1,7-4.5,4.55,4.55,0,0,1,1.9.8l233.6,135a10.11,10.11,0,0,1,4.2,11.4l-52,169C635.6,374.7,631.6,376.4,628,374.3Z" transform="translate(-0.03)"/><path class="cls-20" d="M628,374.3l-233.6-135a10.11,10.11,0,0,1-4.2-11.4l52-169a5.85,5.85,0,0,1,7-4.5,4.55,4.55,0,0,1,1.9.8l233.6,135a10.11,10.11,0,0,1,4.2,11.4l-52,169C635.6,374.7,631.6,376.4,628,374.3Z" transform="translate(-0.03)"/><path class="cls-21" d="M628,374.3l-233.6-135a10.11,10.11,0,0,1-4.2-11.4l52-169a5.85,5.85,0,0,1,7-4.5,4.55,4.55,0,0,1,1.9.8l233.6,135a10.11,10.11,0,0,1,4.2,11.4l-52,169C635.6,374.7,631.6,376.4,628,374.3Z" transform="translate(-0.03)"/><path class="cls-22" d="M615.4,322.6,457.3,231.3a6.93,6.93,0,0,1-2.9-7.8l35.8-116.1a4,4,0,0,1,4.8-3.1h0a6.94,6.94,0,0,1,1.3.5l158.1,91.3a6.93,6.93,0,0,1,2.9,7.8L621.5,320a4,4,0,0,1-4.8,3.1A3,3,0,0,1,615.4,322.6Z" transform="translate(-0.03)"/><path class="cls-23" d="M594,325.5,435.9,234.1a7,7,0,0,1-2.9-7.8l35.8-116.1a4,4,0,0,1,4.7-3.2h.1a5,5,0,0,1,1.3.5L633,198.9a6.93,6.93,0,0,1,2.9,7.8L600.1,322.8a4.1,4.1,0,0,1-4.8,3.2h0A3.49,3.49,0,0,1,594,325.5Z" transform="translate(-0.03)"/><g class="cls-24"><path class="cls-25" d="M594,325.5,435.9,234.1a7,7,0,0,1-2.9-7.8l35.8-116.1a4,4,0,0,1,4.7-3.2h.1a5,5,0,0,1,1.3.5L633,198.9a6.93,6.93,0,0,1,2.9,7.8L600.1,322.8a4.1,4.1,0,0,1-4.8,3.2h0A3.49,3.49,0,0,1,594,325.5Z" transform="translate(-0.03)"/></g><path class="cls-26" d="M633,198.9,474.9,107.6a3.92,3.92,0,0,0-4.5.2,4.65,4.65,0,0,1,2.3.6l158.1,91.3a6.88,6.88,0,0,1,2.9,7.8L598,323.5a5.34,5.34,0,0,1-1.7,2.5,4.15,4.15,0,0,0,3.8-3.2l35.7-116.1A6.7,6.7,0,0,0,633,198.9Z" transform="translate(-0.03)"/><path class="cls-20" d="M394.6,420.2a12.22,12.22,0,0,1-5.9-1.4h0l-63.3-36.6a4.58,4.58,0,0,1-2.6-3.9,5.9,5.9,0,0,1,3.5-4.8l32.6-18.8a14.73,14.73,0,0,1,13.4-.5l63.3,36.5a4.58,4.58,0,0,1,2.6,3.9,5.9,5.9,0,0,1-3.5,4.8l-32.6,18.8A14.31,14.31,0,0,1,394.6,420.2Zm-28.2-65.5a13.79,13.79,0,0,0-6.6,1.7l-32.6,18.8c-1.7,1-2.6,2.1-2.6,3.3a2.73,2.73,0,0,0,1.7,2.3l63.3,36.6a13.27,13.27,0,0,0,11.5-.5l32.6-18.8c1.7-1,2.6-2.1,2.6-3.4a2.73,2.73,0,0,0-1.7-2.3l-63.4-36.6a8.74,8.74,0,0,0-4.8-1.1Z" transform="translate(-0.03)"/><path class="cls-26" d="M513.4,168.5l-9.8-5.7a2.56,2.56,0,0,1-1.1-2.8h0a1.39,1.39,0,0,1,1.7-1.1c.2,0,.3.1.5.2l9.8,5.6a2.56,2.56,0,0,1,1.1,2.8h0a1.48,1.48,0,0,1-1.7,1.2h0A.65.65,0,0,1,513.4,168.5Z" transform="translate(-0.03)"/><path class="cls-26" d="M536.7,182l-14.4-8.4a2.56,2.56,0,0,1-1.1-2.8h0a1.39,1.39,0,0,1,1.7-1.1h0c.2,0,.3.1.5.2l14.4,8.4a2.56,2.56,0,0,1,1.1,2.8h0a1.39,1.39,0,0,1-1.7,1.1A.76.76,0,0,1,536.7,182Z" transform="translate(-0.03)"/><path class="cls-26" d="M493.7,212.1l-9.8-5.7a2.56,2.56,0,0,1-1.1-2.8h0a1.39,1.39,0,0,1,1.7-1.1c.2,0,.3.1.5.2l9.8,5.6a2.56,2.56,0,0,1,1.1,2.8h0a1.44,1.44,0,0,1-1.7,1.1A4.33,4.33,0,0,1,493.7,212.1Z" transform="translate(-0.03)"/><path class="cls-26" d="M514.5,224l-14.4-8.3a2.56,2.56,0,0,1-1.1-2.8h0a1.39,1.39,0,0,1,1.7-1.1c.2,0,.3.1.5.2l14.4,8.4a2.56,2.56,0,0,1,1.1,2.8h0a1.39,1.39,0,0,1-1.7,1.1h0A1.07,1.07,0,0,1,514.5,224Z" transform="translate(-0.03)"/><path class="cls-26" d="M484.1,160.8l-6.1-3.5a2.56,2.56,0,0,1-1.1-2.8h0a1.39,1.39,0,0,1,1.7-1.1c.2,0,.3.1.5.2l6.1,3.5a2.56,2.56,0,0,1,1.1,2.8h0a1.39,1.39,0,0,1-1.7,1.1h0C484.4,160.9,484.3,160.9,484.1,160.8Z" transform="translate(-0.03)"/><path class="cls-26" d="M502.5,180.5l-18.7-10.7a2.56,2.56,0,0,1-1.1-2.8h0a1.39,1.39,0,0,1,1.7-1.1h0c.2,0,.3.1.5.2l18.6,10.8a2.56,2.56,0,0,1,1.1,2.8h0a1.52,1.52,0,0,1-1.7,1.1h0C502.8,180.7,502.6,180.6,502.5,180.5Z" transform="translate(-0.03)"/><path class="cls-26" d="M485.3,188.9l-6.1-3.5a2.71,2.71,0,0,1-1.1-2.9h0a1.39,1.39,0,0,1,1.7-1.1c.2,0,.3.1.5.2l6.1,3.5a2.56,2.56,0,0,1,1.1,2.8h0a1.39,1.39,0,0,1-1.7,1.1h0A.9.9,0,0,1,485.3,188.9Z" transform="translate(-0.03)"/><path class="cls-26" d="M516.7,243.6l-16.3-9.4a2.56,2.56,0,0,1-1.1-2.8h0a1.39,1.39,0,0,1,1.7-1.1c.2,0,.3.1.5.2l16.3,9.4a2.56,2.56,0,0,1,1.1,2.8h0a1.39,1.39,0,0,1-1.7,1.1h0C517,243.8,516.9,243.7,516.7,243.6Z" transform="translate(-0.03)"/><path class="cls-26" d="M478.5,203.3l-3.9-2.3a2.56,2.56,0,0,1-1.1-2.8h0a1.35,1.35,0,0,1,1.7-1.1h0c.2,0,.3.1.5.2l3.9,2.3a2.56,2.56,0,0,1,1.1,2.8h0a1.49,1.49,0,0,1-1.8,1.1c-.2-.1-.3-.1-.4-.2Z" transform="translate(-0.03)"/><path class="cls-26" d="M474.7,219.4l-4.9-2.8a2.56,2.56,0,0,1-1.1-2.8h0a1.39,1.39,0,0,1,1.7-1.1h0c.2,0,.3.1.5.2l4.9,2.8a2.56,2.56,0,0,1,1.1,2.8h0a1.39,1.39,0,0,1-1.7,1.1h0C475,219.6,474.9,219.5,474.7,219.4Z" transform="translate(-0.03)"/><path class="cls-26" d="M493.7,230.3l-12.8-7.4a2.56,2.56,0,0,1-1.1-2.8h0a1.35,1.35,0,0,1,1.7-1.1h0c.2,0,.3.1.5.2l12.8,7.4a2.56,2.56,0,0,1,1.1,2.8h0a1.39,1.39,0,0,1-1.7,1.1A.76.76,0,0,1,493.7,230.3Z" transform="translate(-0.03)"/><path class="cls-26" d="M476.8,229.7l-9.2-5.3a2.56,2.56,0,0,1-1.1-2.8h0a1.39,1.39,0,0,1,1.7-1.1c.2,0,.3.1.5.2l9.2,5.3a2.56,2.56,0,0,1,1.1,2.8h0a1.39,1.39,0,0,1-1.7,1.1A.76.76,0,0,1,476.8,229.7Z" transform="translate(-0.03)"/><path class="cls-26" d="M530.7,251.8l-5.9-3.3a2.56,2.56,0,0,1-1.1-2.8h0a1.49,1.49,0,0,1,1.8-1.1.52.52,0,0,1,.4.2l5.9,3.3a2.56,2.56,0,0,1,1.1,2.8h0a1.46,1.46,0,0,1-1.6,1.2.86.86,0,0,1-.6-.3Z" transform="translate(-0.03)"/><path class="cls-26" d="M508,202l-16.3-9.4a2.56,2.56,0,0,1-1.1-2.8h0a1.39,1.39,0,0,1,1.7-1.1c.2,0,.3.1.5.2l16.3,9.4a2.56,2.56,0,0,1,1.1,2.8h0a1.35,1.35,0,0,1-1.7,1.1h0C508.3,202.2,508.2,202.1,508,202Z" transform="translate(-0.03)"/><path class="cls-27" d="M509.9,194l-28.5-16.4a2.56,2.56,0,0,1-1.1-2.8h0a1.39,1.39,0,0,1,1.7-1.1h0c.2,0,.3.1.5.2L511,190.3a2.56,2.56,0,0,1,1.1,2.8h0a1.39,1.39,0,0,1-1.7,1.1h0A1.69,1.69,0,0,1,509.9,194Z" transform="translate(-0.03)"/><path class="cls-27" d="M493.2,202.6l-16.3-9.4a2.56,2.56,0,0,1-1.1-2.8h0a1.39,1.39,0,0,1,1.7-1.1h0c.2,0,.3.1.5.2l16.3,9.4a2.56,2.56,0,0,1,1.1,2.8h0a1.55,1.55,0,0,1-2,.9.14.14,0,0,1-.2,0Z" transform="translate(-0.03)"/><path class="cls-27" d="M520.4,209.2l-5.9-3.4a2.56,2.56,0,0,1-1.1-2.8h0a1.39,1.39,0,0,1,1.7-1.1h0c.2,0,.3.1.5.2l5.9,3.4a2.56,2.56,0,0,1,1.1,2.8h0a1.49,1.49,0,0,1-1.8,1.1A.76.76,0,0,0,520.4,209.2Z" transform="translate(-0.03)"/><path class="cls-27" d="M580.7,207.4l-35.2-20.2a2.56,2.56,0,0,1-1.1-2.8h0a1.39,1.39,0,0,1,1.7-1.1c.2,0,.3.1.5.2l35.2,20.2a2.56,2.56,0,0,1,1.1,2.8h0a1.39,1.39,0,0,1-1.7,1.1h0A1.69,1.69,0,0,0,580.7,207.4Z" transform="translate(-0.03)"/><path class="cls-28" d="M491.8,220.1l-19.6-11.3a2.56,2.56,0,0,1-1.1-2.8h0a1.39,1.39,0,0,1,1.7-1.1c.2,0,.3.1.5.2l19.6,11.3a2.56,2.56,0,0,1,1.1,2.8h0a1.39,1.39,0,0,1-1.7,1.1C492.1,220.3,492,220.2,491.8,220.1Z" transform="translate(-0.03)"/><path class="cls-28" d="M494.8,157.8l-14.4-8.4a2.56,2.56,0,0,1-1.1-2.8h0a1.39,1.39,0,0,1,1.7-1.1h0c.2,0,.3.1.5.2l14.4,8.3a2.56,2.56,0,0,1,1.1,2.8h0a1.39,1.39,0,0,1-1.7,1.1h0A4.33,4.33,0,0,1,494.8,157.8Z" transform="translate(-0.03)"/><path class="cls-27" d="M473.8,237.1,457,227.5a2.56,2.56,0,0,1-1.1-2.8h0a1.39,1.39,0,0,1,1.7-1.1c.2,0,.3.1.5.2l16.7,9.6a2.56,2.56,0,0,1,1.1,2.8h0a1.39,1.39,0,0,1-1.7,1.1h0A.76.76,0,0,1,473.8,237.1Z" transform="translate(-0.03)"/><path class="cls-26" d="M584.6,189.3l-7.1-4.1a1.76,1.76,0,0,1-.8-2h0a1.17,1.17,0,0,1,1.1-.9h.1c.2,0,.3.1.5.2l7.2,4.1a1.9,1.9,0,0,1,.8,2.1h0a1,1,0,0,1-1.2.9A1.63,1.63,0,0,1,584.6,189.3Z" transform="translate(-0.03)"/><path class="cls-26" d="M598.3,197.2l-7.2-4.1a1.9,1.9,0,0,1-.8-2.1h0a1,1,0,0,1,1.2-.9c.2,0,.3.1.5.2l7.2,4.1a1.9,1.9,0,0,1,.8,2.1h0a1,1,0,0,1-1.2.9C598.6,197.3,598.4,197.3,598.3,197.2Z" transform="translate(-0.03)"/><path class="cls-26" d="M611.9,205l-7.2-4.1a1.9,1.9,0,0,1-.8-2.1h0a1,1,0,0,1,1.1-.8h.1c.1,0,.3.1.4.1l7.1,4.1a1.76,1.76,0,0,1,.8,2h0a1,1,0,0,1-1.2.8A.19.19,0,0,1,611.9,205Z" transform="translate(-0.03)"/><path class="cls-28" d="M618.6,208.9l-.2-.1a1.9,1.9,0,0,1-.8-2.1h0a.9.9,0,0,1,1.1-.9.86.86,0,0,1,.6.3l.2.1a1.76,1.76,0,0,1,.8,2h0a1,1,0,0,1-1.2.9A.76.76,0,0,1,618.6,208.9Z" transform="translate(-0.03)"/><ellipse class="cls-1" cx="249.57" cy="256.3" rx="32.9" ry="19"/><path class="cls-29" d="M298.3,121H204.6l8.8,101.4h0c0,5.6,3.7,11.3,11.2,15.6,14.9,8.6,39,8.6,53.9,0,7.4-4.3,11.1-9.9,11.1-15.6Z" transform="translate(-0.03)"/><path class="cls-20" d="M298.3,121H204.6l1.5,16.8a35.83,35.83,0,0,0,8.7,7.8c17.9,11.9,47.4,14.2,67.5,5.6l-3.1,74.2a14.68,14.68,0,0,1-3.4,8.9c-3,3.6-8.9,7.8-20.1,10.1a53.87,53.87,0,0,0,22.6-6.3c7.4-4.3,11.1-9.9,11.1-15.6l7-81.3h0Z" transform="translate(-0.03)"/><ellipse class="cls-20" cx="251.47" cy="121.1" rx="46.8" ry="27"/><ellipse class="cls-20" cx="251.47" cy="111.5" rx="40.3" ry="23.3"/><path class="cls-30" d="M301,119.8h0v-.2l-.9-9.1v.1c-.4-6.9-5.1-13.7-14.2-18.9-19-11-49.8-11-68.8,0-9.3,5.4-14.1,12.4-14.2,19.4h0l-.9,8.1v.8h0c-.5,7.7,4.3,15.5,14.5,21.4,19.4,11.2,50.8,11.2,70.3,0C296.8,135.4,301.6,127.5,301,119.8Z" transform="translate(-0.03)"/><ellipse class="cls-31" cx="251.47" cy="111.5" rx="40.3" ry="23.3"/><ellipse class="cls-32" cx="249.57" cy="111.5" rx="40.3" ry="23.3"/><path class="cls-20" d="M227.7,98.5c15.8-9.1,41.3-9.1,57,0l.6.3a29.17,29.17,0,0,0-5.4-3.8c-15.8-9.1-41.3-9.1-57,0s-15.7,23.4-.6,32.5C212.3,118.6,214,106.4,227.7,98.5Z" transform="translate(-0.03)"/><path class="cls-33" d="M222.9,99.1c15.8-9.1,41.3-9.1,57,0,7,4,10.9,9.2,11.7,14.4,1-6.6-2.9-13.4-11.7-18.4-15.8-9.1-41.3-9.1-57,0-8.8,5-12.6,11.9-11.7,18.4C212.1,108.3,216,103.1,222.9,99.1Z" transform="translate(-0.03)"/><path class="cls-34" d="M286.2,91.9c-19-11.2-49.9-11.5-69.1-.6s-19.3,28.7-.4,39.9,49.9,11.5,69.1.6S305.2,103.1,286.2,91.9ZM280,128a52.39,52.39,0,0,1-18.4,6l-.7-2.4a2.34,2.34,0,0,0-2.2-1.7H244.1a2.34,2.34,0,0,0-2.2,1.7l-.7,2.4a53.8,53.8,0,0,1-18.4-6c-15.8-9.1-15.8-23.8,0-32.9s41.3-9.1,57,0,15.9,23.8.2,32.9Z" transform="translate(-0.03)"/><path class="cls-35" d="M280,93.3c-15.8-9.1-41.3-9.1-57,0-8.2,4.8-12.2,11.1-11.7,17.3.4-5.7,4.3-11.3,11.7-15.6,15.8-9.1,41.3-9.1,57,0,7.5,4.3,11.4,9.9,11.7,15.6C292.1,104.4,288.2,98.1,280,93.3Z" transform="translate(-0.03)"/><path class="cls-26" d="M285.8,130c-19.2,10.9-50.1,10.6-69.1-.6-9-5.3-13.7-12.2-14.1-19-.4,7.4,4.3,15,14.1,20.7,19,11.2,49.9,11.5,69.1.6,10-5.7,14.9-13.4,14.5-20.9C299.9,117.9,295.1,124.8,285.8,130Z" transform="translate(-0.03)"/><path class="cls-36" d="M247.1,132.9h8.7a1.11,1.11,0,0,1,1.1,1.1v.2a1.11,1.11,0,0,1-1.1,1.1h-8.7a1.11,1.11,0,0,1-1.1-1.1V134A1.18,1.18,0,0,1,247.1,132.9Z" transform="translate(-0.03)"/><path class="cls-37" d="M255.8,133h-8.7a1.11,1.11,0,0,0-1.1,1.1h0v.4a1,1,0,0,1,1-.8h8.7a1,1,0,0,1,1,.8v-.4A1.09,1.09,0,0,0,255.8,133Z" transform="translate(-0.03)"/><path class="cls-38" d="M254.5,134.1s26.2-8.8,15.6-38.9S238.9,56,247.2,31.9c0,0-13,19.5-.9,45.8S261.1,101,261,113.6A22.66,22.66,0,0,1,248.7,134h5.8Z" transform="translate(-0.03)"/><path class="cls-38" d="M256.8,36.1S254.1,18.1,271,0c0,0-14.9,33.3-10,49.8C261,49.8,257,39.3,256.8,36.1Z" transform="translate(-0.03)"/><path class="cls-26" d="M240.8,188.2a8.78,8.78,0,0,1,2.3.7,4.86,4.86,0,0,1,1.4,1.1,3.81,3.81,0,0,1,.8,1.7,7.07,7.07,0,0,1,.2,2.5v8.2a3,3,0,0,0,.4,1.8,1.74,1.74,0,0,0,1.5.5v.6l-1.9-.2-2.4-.2c-.8,0-1.7-.2-2.4-.2l-1.8-.2v-.7a1.59,1.59,0,0,0,1.3-.3,3.29,3.29,0,0,0,.4-1.7v-9.7a6.6,6.6,0,0,0-.1-1.4,3.13,3.13,0,0,0-.5-1,2.28,2.28,0,0,0-1.2-.6,2.52,2.52,0,0,0-1.7.1,2.34,2.34,0,0,0-1.2,1,2.83,2.83,0,0,0-.4,1.8v8.9a3.13,3.13,0,0,0,.4,1.9,1.52,1.52,0,0,0,1.2.7v.7l-1.7-.4-2.1-.6-2.6-.6-2-.5v-.7a2.48,2.48,0,0,0,1.7,0c.3-.2.5-.8.5-1.7V189.3a6.72,6.72,0,0,0-.4-2.4,2.91,2.91,0,0,0-1.7-1.4v-.8c.7.4,1.4.7,2,1a23.35,23.35,0,0,0,2.5.7,15.72,15.72,0,0,0,2.3.4v2.9a3.45,3.45,0,0,1,2.2-1.7A15.14,15.14,0,0,1,240.8,188.2Zm10.2,1a16.41,16.41,0,0,1,2.3.2,3.06,3.06,0,0,1,2.2,2.2,6.52,6.52,0,0,1,.2,2.4v8.2a2.16,2.16,0,0,0,.5,1.7,2.49,2.49,0,0,0,1.7.3v.6l-1.9.1h-2.5l-2.4.1h-1.8v-.6a1.48,1.48,0,0,0,1.3-.4,3.29,3.29,0,0,0,.4-1.7V193a5.7,5.7,0,0,0-.1-1.3,1.8,1.8,0,0,0-.6-.9,2.84,2.84,0,0,0-1.3-.4,3.17,3.17,0,0,0-2.3.9,3.47,3.47,0,0,0-1,2.5,12.25,12.25,0,0,0-.2-1.9,4.87,4.87,0,0,1,2.4-2.3,16.45,16.45,0,0,1,3.1-.4Z" transform="translate(-0.03)"/><path class="cls-26" d="M265.9,186.9a10.08,10.08,0,0,1,2.5-.5,3.81,3.81,0,0,1,1.5.1c.8.2,1.2-.3,1.4-1.6l.7-.3c0,.6-.1,1.4-.1,2.3v3.6l-.7.3a7.94,7.94,0,0,0-.6-2.2,3.16,3.16,0,0,0-1.4-1.4,3.05,3.05,0,0,0-2.3,0,4.25,4.25,0,0,0-1.7,1,2.41,2.41,0,0,0-.7,1.7,2,2,0,0,0,.6,1.5,6,6,0,0,0,1.5.9l2,.8a15.09,15.09,0,0,1,2.8,1.5,3.18,3.18,0,0,1,1.1,2.9,5.21,5.21,0,0,1-.9,2.9,8.39,8.39,0,0,1-2.3,2.3,9,9,0,0,1-3.2,1.3,5.46,5.46,0,0,1-1.8.1,6.75,6.75,0,0,1-1.4-.2l-.8-.2c-.2-.1-.5-.1-.7-.2a.71.71,0,0,0-.6.3,3.55,3.55,0,0,0-.4.9l-.7.1c0-.7.1-1.5.1-2.4v-3.8c.2,0,.5-.1.7-.1a9.47,9.47,0,0,0,.7,2.9,4.28,4.28,0,0,0,1.5,1.8,3.06,3.06,0,0,0,2.3.3,3.15,3.15,0,0,0,1.7-.9,2.28,2.28,0,0,0,.7-1.9,2.43,2.43,0,0,0-.9-2.1c-.8-.5-1.6-1-2.4-1.4s-1.4-.8-2-1.2a5.72,5.72,0,0,1-1.6-1.5,3.61,3.61,0,0,1-.6-2,4.38,4.38,0,0,1,.8-2.5,7.56,7.56,0,0,1,2.1-1.9A24.48,24.48,0,0,1,265.9,186.9Z" transform="translate(-0.03)"/></svg>