<svg id="svg10" xmlns="http://www.w3.org/2000/svg" xmlns:xlink="http://www.w3.org/1999/xlink" viewBox="0 0 1225.94 299"><defs><style>.cls-1{fill:url(#Gradient_bez_nazwy_22);}</style><linearGradient id="Gradient_bez_nazwy_22" x1="3.01" y1="-233.65" x2="1228.94" y2="-233.65" gradientTransform="matrix(1, 0, 0, -1, 0, -120.15)" gradientUnits="userSpaceOnUse"><stop offset="0" stop-color="#ae67fa"/><stop offset="1" stop-color="#f49867"/></linearGradient></defs><path class="cls-1" d="M1211.73,244.06h0a5.55,5.55,0,0,0,5.5-5.51,1.6,1.6,0,0,0,0-.31c0-4.12-2.47-6.18-7.58-6.18h-8.25v21.58h3.09v-9.4h3.82v.1l5.91,9.3h3.34l-6.26-9.58Zm-3.61-2.07h-3.61V234.7h4.58c2.35,0,5,.37,5,3.46,0,3.55-2.7,3.83-6,3.83M3,7.93H48.79V174.75h84.79V217H3ZM153.83,75.24h44V216.93h-44Zm22-70.32A25.52,25.52,0,1,1,150.3,30.44,25.52,25.52,0,0,1,175.82,4.92h0M382,8h44V133l49.86-57.72h53.93L472,140.84l56.53,76.27H473.15L426.46,147h-.58v70.09h-44ZM222.33,75.36h42.24V94.72h.6a46.33,46.33,0,0,1,41.66-22.88c44.61,0,52.84,29.35,52.84,67.49V217h-44.1V148c0-16.49-.31-37.58-22.92-37.58s-26.39,17.91-26.39,36.39v70.09h-44Zm400.1,54.37v-.64a26.5,26.5,0,0,0-26.37-26.37h-.66a29.52,29.52,0,0,0-31.09,27ZM659.7,192.5a77.66,77.66,0,0,1-60.18,28.2c-44,0-79.22-29.38-79.22-74.85s35.19-75,79.12-75c41.13,0,66.92,29.34,66.92,74.83v13.81H564.21a33,33,0,0,0,33.17,27.59,37.57,37.57,0,0,0,31.4-17.32Zm98.44-82.9c-22,0-35.19,14.68-35.19,36.08s13.19,36.12,35.19,36.12,35.23-14.68,35.23-36.12-13.2-36.08-35.23-36.08m75.65,107.31H793.26V198.13h-.59a55.4,55.4,0,0,1-43.75,22.3c-42.26,0-70.09-30.51-70.09-73.66,0-39.62,24.64-76,65.14-76,18.21,0,35.21,5,45.19,18.78h.58V7.89h44Zm297,0h-44V148.09c0-16.49-.29-37.58-22.88-37.58s-26.41,17.9-26.41,36.39V217h-44V75.3h42.34V94.66h.6a46.33,46.33,0,0,1,41.66-22.88c44.59,0,52.82,29.33,52.82,67.49ZM943.86,55.84h0A25.52,25.52,0,1,1,969.4,30.32h0a25.65,25.65,0,0,1-25.54,25.52m22,161.07H921.8V75.3h44ZM1152.71-36h-253a21.77,21.77,0,0,0-21.91,21.4V239.48a21.79,21.79,0,0,0,21.91,21.44h253a21.84,21.84,0,0,0,22-21.44V-14.6a21.82,21.82,0,0,0-22-21.4m55.8,258.51a20.25,20.25,0,1,0,.37,0h-.37m0,38.18h-.31a17.75,17.75,0,1,1,17.75-18v.29a17.45,17.45,0,0,1-17,17.75h-.46" transform="translate(-3.01 36)"/></svg>