<svg id="svg10" xmlns="http://www.w3.org/2000/svg" viewBox="0 0 1225.95 299.01"><defs><style>.cls-1{fill:#e76f51;}</style></defs><path class="cls-1" d="M1208.72,280.06h0a5.55,5.55,0,0,0,5.5-5.51,1.61,1.61,0,0,0,0-.31c0-4.12-2.47-6.18-7.58-6.18h-8.25v21.58h3.09v-9.4h3.82v.1l5.91,9.3h3.34l-6.26-9.58Zm-3.61-2.07h-3.61V270.7h4.58c2.35,0,5,.37,5,3.46,0,3.55-2.7,3.83-6,3.83M0,43.93H45.78V210.75h84.79V253H0Zm150.83,67.31h44V252.93h-44Zm22-70.32a25.52,25.52,0,1,1-25.53,25.52,25.53,25.53,0,0,1,25.53-25.52h0M379,44h44V169l49.86-57.72h53.93L469,176.84l56.53,76.27H470.14L423.45,183h-.58v70.09h-44ZM219.32,111.36h42.24v19.36h.6a46.33,46.33,0,0,1,41.66-22.88c44.61,0,52.84,29.35,52.84,67.49V253h-44.1V184c0-16.49-.31-37.58-22.92-37.58s-26.39,17.91-26.39,36.39V252.9h-44Zm400.1,54.37v-.64a26.5,26.5,0,0,0-26.37-26.37h-.66a29.51,29.51,0,0,0-31.09,27Zm37.27,62.77a77.67,77.67,0,0,1-60.18,28.2c-44,0-79.22-29.38-79.22-74.85s35.19-75,79.12-75c41.13,0,66.92,29.34,66.92,74.83v13.81H561.2a33,33,0,0,0,33.17,27.59,37.57,37.57,0,0,0,31.4-17.32Zm98.44-82.9c-22,0-35.19,14.68-35.19,36.08s13.19,36.12,35.19,36.12,35.23-14.68,35.23-36.12-13.2-36.08-35.23-36.08m75.65,107.31H790.25V234.13h-.59a55.4,55.4,0,0,1-43.75,22.3c-42.26,0-70.09-30.51-70.09-73.66,0-39.62,24.64-76,65.14-76,18.21,0,35.21,5,45.19,18.78h.58V43.89h44Zm297,0h-44V184.09c0-16.49-.29-37.58-22.88-37.58s-26.41,17.9-26.41,36.39V253h-44V111.3h42.34v19.36h.6a46.33,46.33,0,0,1,41.66-22.88c44.59,0,52.82,29.33,52.82,67.49ZM940.85,91.84h0a25.52,25.52,0,1,1,25.54-25.52h0a25.65,25.65,0,0,1-25.54,25.52m22,161.07H918.79V111.3h44ZM1149.7,0h-253a21.77,21.77,0,0,0-21.91,21.4V275.48a21.79,21.79,0,0,0,21.91,21.44h253a21.84,21.84,0,0,0,22-21.44V21.4a21.82,21.82,0,0,0-22-21.4m55.8,258.51a20.25,20.25,0,1,0,.37,0h-.37m0,38.18h-.31a17.75,17.75,0,1,1,17.75-18V279a17.45,17.45,0,0,1-17,17.75h-.46" transform="translate(0.01 0)"/></svg>